<svg version="1.2" xmlns="http://www.w3.org/2000/svg" viewBox="0 0 194 78" width="194" height="78">
	<title>arief-svg</title>
	<style>
		.s0 { fill: #000000;stroke: #000000;stroke-linecap: round;stroke-width: .4 } 
	</style>
	<g id="svgGroup">
		<g id="a">
			<path id="0" fill-rule="evenodd" class="s0" d="m34.7 39.5v-0.2q0-3.9-1.8-6.3-0.1-0.1-0.2-0.2-0.1-0.2-0.2-0.3-0.1-0.1-0.2-0.2-0.1-0.1-0.2-0.2-2.2-2.1-6-2.5-0.3 0-0.5 0-0.2 0-0.4 0-0.2 0-0.4-0.1-0.2 0-0.4 0-0.5 0-0.9 0.1-0.4 0-0.8 0-0.4 0-0.9 0.1-0.4 0-0.8 0.1-1.8 0.3-3.3 1-0.2 0.1-0.5 0.2-0.2 0.2-0.4 0.3-0.2 0.1-0.4 0.3-0.3 0.1-0.5 0.3-0.3 0.2-0.6 0.4-0.3 0.3-0.5 0.5-0.3 0.3-0.6 0.6-0.3 0.2-0.5 0.5-0.3 0.4-0.6 0.8-0.3 0.3-0.6 0.7-0.2 0.4-0.4 0.9-0.3 0.4-0.4 0.8l-10-2.3q1.8-5 5.2-8 3.5-3.1 7.9-4.5 1.2-0.3 2.3-0.6 1.2-0.3 2.3-0.5 1.2-0.1 2.4-0.2 1.2-0.1 2.4-0.1 0.5 0 1 0 0.6 0 1.1 0.1 0.5 0 1.1 0.1 0.5 0 1 0.1 0.4 0 0.7 0.1 0.3 0 0.7 0.1 0.3 0.1 0.6 0.1 0.4 0.1 0.7 0.2 0.9 0.1 1.8 0.4 0.9 0.3 1.8 0.6 0.9 0.4 1.7 0.8 0.8 0.4 1.6 0.9 0.7 0.4 1.3 0.9 0.5 0.5 1.1 1 0.5 0.5 1 1.1 0.5 0.6 0.9 1.2 0.2 0.2 0.3 0.4 0.1 0.2 0.2 0.4 0.2 0.2 0.3 0.4 0.1 0.2 0.2 0.4 0.2 0.5 0.5 0.9 0.2 0.5 0.3 0.9 0.2 0.5 0.4 1 0.1 0.5 0.2 0.9 0.7 2.7 0.7 6v36.3h-10.4v-7.5h-0.4q-0.2 0.2-0.3 0.5-0.1 0.2-0.3 0.5-0.1 0.2-0.3 0.4-0.1 0.3-0.3 0.5-0.6 0.8-1.5 1.7 0 0.1-0.1 0.1 0 0.1-0.1 0.1 0 0.1-0.1 0.1 0 0.1-0.1 0.1-0.3 0.3-0.6 0.6-0.3 0.2-0.7 0.5-0.3 0.3-0.7 0.5-0.3 0.2-0.7 0.4-0.3 0.2-0.6 0.4-0.3 0.2-0.7 0.3-0.3 0.2-0.6 0.3-0.3 0.2-0.7 0.3-3.2 1.3-7.7 1.3-0.8 0-1.5 0-0.7 0-1.4-0.1-0.7-0.1-1.5-0.2-0.7-0.1-1.4-0.3-0.4-0.1-0.9-0.3-0.5-0.1-0.9-0.3-0.5-0.1-0.9-0.3-0.5-0.2-0.9-0.4-4.2-1.9-6.7-5.6-0.4-0.6-0.7-1.3-0.3-0.6-0.6-1.3-0.3-0.7-0.5-1.4-0.2-0.7-0.3-1.4-0.1-0.5-0.1-0.9-0.1-0.5-0.1-0.9-0.1-0.5-0.1-0.9 0-0.5 0-1 0-0.4 0-0.8 0-0.4 0.1-0.8 0-0.3 0-0.7 0.1-0.4 0.1-0.8 0.5-2.6 1.6-4.4 1.8-3 4.8-4.8 0.6-0.3 1.3-0.7 0.6-0.3 1.3-0.6 0.7-0.2 1.4-0.5 0.7-0.2 1.4-0.4 0.1-0.1 0.3-0.1 0.2-0.1 0.3-0.1 0.2-0.1 0.4-0.1 0.2-0.1 0.3-0.1 3.7-0.9 7.6-1.4 4.5-0.4 7.3-0.8 0.1 0 0.2 0 0.1 0 0.2-0.1 0.1 0 0.1 0 0.1 0 0.2 0 3-0.4 4.4-1.2 0.3-0.2 0.5-0.4 0.3-0.2 0.4-0.5 0.2-0.3 0.3-0.6 0.1-0.3 0.2-0.6 0-0.1 0-0.2 0-0.1 0-0.1 0-0.1 0-0.2 0-0.1 0-0.2zm0.1 17v-7q-0.6 0.5-2.2 1-1.6 0.5-3.7 0.8-0.5 0.1-1 0.2-0.5 0.1-1 0.1-0.5 0.1-1 0.2-0.5 0.1-1 0.1-1.9 0.3-3.2 0.4 0 0-0.1 0-0.4 0.1-0.8 0.2-0.5 0.1-0.9 0.1-0.4 0.1-0.9 0.2-0.4 0.1-0.8 0.2-0.3 0.1-0.6 0.2-0.2 0.1-0.5 0.1-0.3 0.1-0.6 0.2-0.2 0.1-0.5 0.2-0.3 0.1-0.6 0.2-0.3 0.1-0.5 0.3-0.3 0.1-0.6 0.3-0.3 0.1-0.5 0.3-0.3 0.1-0.5 0.3-0.3 0.2-0.5 0.4-0.2 0.2-0.4 0.4-0.3 0.2-0.5 0.4-0.2 0.3-0.4 0.6-0.2 0.4-0.4 0.7-0.2 0.4-0.3 0.7-0.1 0.4-0.2 0.8-0.1 0.2-0.1 0.4 0 0.2-0.1 0.5 0 0.2 0 0.4 0 0.3 0 0.5 0 0.3 0 0.6 0 0.3 0.1 0.6 0 0.4 0.1 0.7 0.1 0.3 0.1 0.6 0.2 0.5 0.5 1 0.2 0.5 0.5 0.9 0.4 0.5 0.8 0.9 0.4 0.3 0.8 0.6 0.5 0.3 0.9 0.6 0.5 0.2 0.9 0.4 0.5 0.2 1 0.4 0.5 0.2 1 0.3 1.7 0.3 3.7 0.3 0.4 0.1 0.8 0 0.5 0 0.9 0 0.5-0.1 0.9-0.1 0.4-0.1 0.9-0.2 2.2-0.4 4-1.4 0.5-0.2 0.9-0.5 0.4-0.3 0.8-0.6 0.4-0.3 0.8-0.7 0.4-0.3 0.7-0.7 0.3-0.2 0.5-0.5 0.2-0.2 0.4-0.5 0.2-0.2 0.4-0.5 0.1-0.3 0.3-0.6 0.4-0.6 0.7-1.4 0.3-0.7 0.5-1.4 0.3-0.8 0.4-1.6 0.1-0.8 0.1-1.6z"/>
		</g>
		<g id="r">
			<path id="1" class="s0" d="m66.1 76.2h-10.6v-54.6h10.2v8.7h0.6q0.4-1 0.9-2 0.5-1 1.2-1.9 0.7-0.9 1.5-1.6 0.8-0.8 1.7-1.4 3.8-2.6 8.6-2.6 0.1 0 0.2 0 0.1 0 0.2 0 0.1 0 0.2 0 0.1 0 0.2 0 0.7 0 1.5 0.1 0.1 0 0.2 0 0 0 0.1 0 0.1 0 0.2 0 0.1 0 0.1 0 0.9 0.1 1.6 0.1v10.2q-0.1 0-0.1 0-0.1 0-0.1-0.1-0.1 0-0.1 0-0.1 0-0.1 0-0.7-0.1-1.9-0.3-0.4 0-0.8-0.1-0.4 0-0.8 0-0.5-0.1-0.9-0.1-0.4 0-0.8 0-0.5 0-1 0-0.5 0.1-1 0.1-0.5 0.1-1 0.2-0.4 0.1-0.9 0.2-0.4 0.1-0.7 0.2-0.4 0.1-0.7 0.3-0.4 0.1-0.7 0.3-0.4 0.1-0.7 0.3-3 1.6-4.7 4.3-0.3 0.6-0.6 1.2-0.2 0.6-0.4 1.2-0.2 0.6-0.4 1.2-0.1 0.6-0.2 1.3 0 0.2 0 0.4 0 0.2 0 0.3 0 0.2 0 0.4 0 0.2 0 0.4z"/>
		</g>
		<g id="i">
			<path id="2" fill-rule="evenodd" class="s0" d="m100.3 76.2h-10.6v-54.6h10.6zm-10-64.9q-0.2-0.2-0.4-0.4-0.2-0.2-0.4-0.5-0.2-0.2-0.3-0.5-0.2-0.3-0.3-0.5-0.1-0.3-0.2-0.6-0.1-0.3-0.2-0.6-0.1-0.4-0.1-0.7 0-0.3 0-0.6 0-0.6 0.1-1.2 0.1-0.6 0.3-1.2 0.3-0.5 0.6-1 0.4-0.5 0.8-1 0 0 0.1 0 0 0 0-0.1 2-1.9 4.8-1.9 2.7 0 4.7 1.9 0.2 0.2 0.4 0.5 0.2 0.2 0.4 0.5 0.2 0.2 0.4 0.5 0.1 0.3 0.3 0.6 0.1 0.3 0.2 0.6 0.1 0.3 0.1 0.6 0.1 0.3 0.1 0.6 0.1 0.3 0.1 0.6 0 0.6-0.2 1.2-0.1 0.6-0.3 1.1-0.2 0.6-0.6 1.1-0.3 0.5-0.7 0.9-0.1 0-0.1 0 0 0 0 0.1-0.1 0-0.1 0-2 1.9-4.7 1.9-2.8 0-4.8-1.9z"/>
		</g>
		<g id="e">
			<path id="3" class="s0" d="m157.3 48.3v3.8l-39.2-0.3-0.3-7.8 34.1 0.1-5.2-0.1c0-0.4 0.2 2 0.2 1.7q0-0.6-0.1-1.2 0-0.5-0.1-1.1 0-0.5-0.1-1.1-0.1-0.5-0.2-1.1-0.2-0.6-0.3-1.1-0.2-0.6-0.3-1.1-0.2-0.6-0.4-1.1-0.2-0.5-0.5-1-0.2-0.5-0.5-0.9-0.3-0.5-0.6-1-0.3-0.4-0.6-0.8-0.3-0.4-0.6-0.7-0.3-0.3-0.6-0.6-0.3-0.3-0.6-0.5-0.4-0.3-0.7-0.5-0.5-0.4-1-0.7-0.6-0.3-1.1-0.5-0.6-0.2-1.2-0.4-0.6-0.2-1.2-0.3-0.4-0.1-0.8-0.1-0.4-0.1-0.8-0.1-0.4-0.1-0.8-0.1-0.4 0-0.8 0-0.5 0-1 0-0.5 0-0.9 0.1-0.5 0-1 0.1-0.5 0.1-1 0.2-0.5 0.2-1 0.3-0.5 0.2-1 0.4-0.5 0.3-1 0.5-0.5 0.3-0.9 0.6-0.8 0.5-1.6 1.2-0.7 0.6-1.3 1.4-0.6 0.7-1.2 1.5-0.5 0.8-0.9 1.7-0.4 0.8-0.7 1.7-0.3 0.8-0.5 1.7-0.2 0.9-0.3 1.8-0.1 0.9-0.2 1.8 0 0.1 0 0.3 0 0.1 0 0.2 0 0.1 0 0.2 0 0.1 0 0.2v5.4q0 0.6 0 1.1 0 0.5 0.1 1.1 0 0.5 0.1 1 0 0.6 0.1 1.1 0.4 2.4 1.2 4.4 0.1 0.1 0.1 0.2 0.1 0.1 0.1 0.2 0.1 0.1 0.2 0.2 0 0.1 0.1 0.2 1.9 4 5.4 6 3.5 2.1 8.1 2.1 0.4 0 0.8-0.1 0.4 0 0.8 0 0.4 0 0.8-0.1 0.4 0 0.8-0.1 0.3-0.1 0.6-0.1 0.3-0.1 0.6-0.2 0.3 0 0.5-0.1 0.3-0.1 0.6-0.2 2.5-0.9 4.3-2.7 0.4-0.3 0.7-0.8 0.4-0.4 0.7-0.8 0.3-0.5 0.6-0.9 0.2-0.5 0.4-1 0.1-0.1 0.1-0.2 0-0.1 0.1-0.2 0-0.1 0.1-0.2 0-0.1 0-0.2l10.1 1.9q-0.3 1.1-0.7 2.1-0.4 1-1 2-0.5 1-1.2 1.9-0.6 0.9-1.4 1.7-0.6 0.7-1.3 1.3-0.7 0.6-1.4 1.1-0.7 0.6-1.5 1-0.8 0.5-1.6 0.9-0.2 0.1-0.5 0.2-0.2 0.1-0.5 0.2-0.2 0.2-0.4 0.3-0.3 0.1-0.5 0.2-0.8 0.2-1.5 0.5-0.7 0.2-1.5 0.4-0.7 0.2-1.5 0.3-0.8 0.2-1.5 0.3-0.6 0.1-1.2 0.1-0.6 0.1-1.1 0.1-0.6 0.1-1.2 0.1-0.6 0-1.2 0-0.8 0-1.7 0-0.9-0.1-1.8-0.2-0.9-0.1-1.7-0.2-0.9-0.2-1.8-0.4-0.9-0.2-1.8-0.4-0.8-0.3-1.7-0.7-0.9-0.3-1.7-0.7-0.8-0.4-1.6-0.9-1.5-0.8-2.8-1.9-1.3-1.1-2.5-2.3-1.1-1.2-2.1-2.6-0.9-1.4-1.6-3-0.5-1-0.9-2-0.5-1-0.8-2.1-0.3-1.1-0.6-2.2-0.2-1.1-0.4-2.2-0.1-0.7-0.2-1.5-0.1-0.8-0.2-1.6 0-0.8-0.1-1.6 0-0.7 0-1.5 0-1 0-2 0.1-0.9 0.2-1.9 0.1-0.9 0.2-1.9 0.2-1 0.3-1.9 0.2-0.9 0.5-1.8 0.2-0.9 0.5-1.8 0.3-0.9 0.6-1.8 0.4-0.9 0.8-1.7 0.5-1.1 1.1-2.1 0.6-0.9 1.3-1.9 0.6-0.9 1.4-1.8 0.8-0.8 1.6-1.6 0.4-0.4 0.8-0.7 0.4-0.4 0.8-0.7 0.4-0.3 0.9-0.6 0.4-0.3 0.9-0.6 1-0.7 2.2-1.2 1.1-0.6 2.3-1 1.2-0.4 2.4-0.7 1.3-0.3 2.5-0.5 0.5 0 1-0.1 0.4 0 0.9 0 0.5-0.1 1-0.1 0.4 0 0.9 0 1.2 0 2.3 0.1 1.1 0.1 2.3 0.3 1.1 0.2 2.2 0.5 1.1 0.2 2.2 0.6 4.3 1.5 7.8 4.8 3.5 3.3 5.5 8.5 0.2 0.6 0.5 1.3 0.2 0.7 0.4 1.3 0.1 0.7 0.3 1.4 0.1 0.7 0.3 1.4 0.4 2.5 0.5 5.5 0 0.2 0 0.4 0 0.2 0 0.4 0 0.3 0 0.5 0 0.2 0 0.4z"/>
		</g>
		<g id="f">
			<path id="f" fill-rule="evenodd" class="s0" d="m178.9 76.2h-10.6v-46-0.1h-8.2v-8.3h8.2v-0.1 0.1-6.5q0-4.9 2.2-8.3 0-0.1 0-0.1 0.1-0.1 0.1-0.1 0.5-0.8 1.2-1.6 0.6-0.7 1.4-1.3 0.8-0.7 1.6-1.2 0.8-0.6 1.7-1 1-0.4 1.9-0.7 1-0.3 2-0.5 1-0.2 2-0.3 1.1-0.2 2.1-0.1 2.5 0 4.4 0.3 0.2 0 0.3 0 0.1 0 0.3 0.1 0.1 0 0.3 0 0.1 0.1 0.2 0.1 1.9 0.4 2.9 0.8 0.1 0 0.1 0 0.1 0 0.2 0 0 0.1 0.1 0.1 0 0 0.1 0l-2.5 8.6q-0.8-0.2-1.9-0.5-0.1-0.1-0.2-0.1-0.2 0-0.3 0-0.1 0-0.2-0.1-0.1 0-0.2 0-0.9-0.1-2-0.1-3.8 0-5.5 1.9-0.2 0.3-0.4 0.5-0.2 0.3-0.4 0.6-0.1 0.3-0.3 0.6-0.1 0.3-0.2 0.6-0.3 0.9-0.4 2 0 0.2 0 0.4 0 0.1 0 0.3 0 0.1 0 0.3 0 0.1 0 0.3v4.9h11.8v8.5l-11.8-0.1v0.1zm0-54.5z"/>
		</g>
	</g>
</svg>