<svg version="1.2" xmlns="http://www.w3.org/2000/svg" viewBox="0 0 83 107" width="100%" height="100%" preserveAspectRatio="xMidYMid meet"><style></style><path  d="m46.1 62.2l-13.2-1.5q-13.9-1.6-20.2-8.6-6.2-6.9-4-18.9 2.4-13.4 13.6-21.2 11.2-7.8 28-7.8 16.1 0 24.7 8.1 8.5 8.1 7.3 22.4h-15.7q0.2-8.9-4.4-13.2-4.6-4.3-14.5-4.3-9.3 0-15.7 4.3-6.4 4.2-7.7 11.2-1 5.6 2.3 8.6 3.4 2.9 11.6 4l12.4 1.7q30.7 3.5 26.1 28.7-1.6 8.6-7.3 15.1-5.6 6.4-14.4 9.9-8.7 3.5-19.5 3.5-17.8 0-27-8.4-9.1-8.4-8-22.5h15.9q-0.3 17.8 21.6 17.8 9.1 0 15.4-4.2 6.4-4.2 7.7-11.1 2.1-11.7-15-13.6z"/></svg>