<svg version="1.2" xmlns="http://www.w3.org/2000/svg" viewBox="0 0 76 107" width="100%" height="100%" preserveAspectRatio="xMidYMid meet"><style></style><path  d="m1.6 65.2q2.1-11.9 8.3-20.6 6.2-8.9 15.3-13.7 9.1-4.9 20-4.9 10.8 0 18.1 4.9 7.3 4.8 10.2 13.7 3 8.8 0.8 20.6-2.1 11.9-8.3 20.8-6.1 8.8-15.2 13.8-9.1 4.9-20 4.9-10.8 0-18.2-4.9-7.3-5-10.2-13.8-3-9-0.8-20.8zm56.9 0q2.2-12.1-2-18.8-4.1-6.8-13.8-6.8-9.8 0-16.5 6.8-6.7 6.7-8.9 18.8-2.2 12.3 1.9 19.1 4.3 6.8 14.1 6.8 9.8 0 16.3-6.8 6.7-6.8 8.9-19.1z"/></svg>