<svg version="1.2" xmlns="http://www.w3.org/2000/svg" viewBox="0 0 75 107" width="100%" height="100%" preserveAspectRatio="xMidYMid meet"><style></style><path  d="m71.1 54.8l-8.8 48.2h-15.4l2-11q-10 12.7-27.2 12.7-7.4 0-12.6-2.8-5.2-2.9-7.5-8.1-2.3-5-1.1-11.6 1.8-9.8 9.2-15.4 7.6-5.7 19.9-6.6l21.5-1.7q3.9-0.2 4.5-3.6l0.3-1.7q1.3-6.8-2.5-10.9-3.6-4.3-11.3-4.3-14.5 0-18.5 14.3h-16q1.9-7.8 7.2-13.6 5.3-6 12.9-9.3 7.7-3.3 16.7-3.3 9.4 0 15.9 3.7 6.7 3.6 9.5 10.1 2.8 6.4 1.3 14.9zm-54.8 26.3q-0.9 5.1 2.4 8.2 3.4 3 10 3 9 0 15.5-5.6 6.6-5.5 8.3-14.5l0.5-2.6-22.8 1.4q-12.2 0.8-13.9 10.1z"/></svg>