<svg version="1.2" xmlns="http://www.w3.org/2000/svg" viewBox="0 0 145 145" width="145" height="145">
	<title>24-svg</title>
	<style>
		.s0 { fill: #ffffff } 
		.s1 { fill: #000000 } 
		.s2 { fill: #000000;stroke: #ffffff;stroke-miterlimit:10;stroke-width: 5 } 
	</style>
	<g id="svgGroup">
		<path id="0" fill-rule="evenodd" class="s0" d="m23.4 72.7v2.4h25.6v14h-41v-10.5q0-11.9 0.3-17.4 0-0.1 0-0.2 0-0.2 0.1-0.3 0-0.1 0-0.2 0-0.1 0-0.2 0-0.4 0.1-0.9 0-0.4 0-0.8 0.1-0.5 0.2-0.9 0-0.4 0.1-0.9 0.3-1.7 0.7-3.1 0.1-0.3 0.2-0.6 0.1-0.2 0.2-0.5 0.1-0.3 0.2-0.5 0.1-0.3 0.3-0.5 1.5-3.1 5-5.6 0.1 0 0.2 0 0-0.1 0.1-0.1 0-0.1 0.1-0.1 0.1-0.1 0.1-0.1l11.9-7.8q2.3-1.5 3.5-2.8 1-1 1.5-2.7 0-0.1 0.1-0.2 0-0.1 0-0.2 0 0 0.1-0.1 0-0.1 0-0.2 0.6-2.3 0.6-6.2 0-5.4-0.8-7.8 0-0.2-0.1-0.3-0.1-0.2-0.1-0.4-0.1-0.2-0.2-0.3-0.1-0.2-0.2-0.4-0.2-0.3-0.4-0.5-0.3-0.3-0.5-0.5-0.3-0.2-0.6-0.4-0.3-0.1-0.6-0.2-2-0.7-6.5-0.7-4 0-10.5 0.5-0.5 0-1 0.1-0.6 0-1.1 0.1-0.5 0-1.1 0-0.5 0.1-1 0.1v-12.9q3.3-0.9 8.6-1.4 5.3-0.5 10.2-0.5 0.6 0 1.1 0 0.6 0 1.1 0 0.6 0.1 1.2 0.1 0.5 0 1.1 0.1 3.9 0.3 6.8 1.3 0.6 0.2 1.2 0.5 0.6 0.3 1.2 0.7 0.6 0.3 1.1 0.8 0.5 0.4 0.9 0.9 1.3 1.3 2.3 3 0 0.1 0.1 0.2 0.1 0.1 0.1 0.2 0.1 0.1 0.1 0.2 0.1 0.2 0.1 0.3 0.3 0.4 0.5 0.9 0.2 0.5 0.4 0.9 0.2 0.5 0.3 1 0.2 0.5 0.3 1 1.4 4.8 1.4 12.2 0 7.7-1.2 12.3 0 0 0 0 0 0.1 0 0.1 0 0 0 0 0 0.1-0.1 0.1-0.7 3-1.8 5.1-0.2 0.2-0.3 0.5-0.1 0.2-0.3 0.5-0.2 0.2-0.3 0.5-0.2 0.2-0.4 0.4-1.9 2.4-5 4.5l-12.4 8.1q-1.3 0.8-2 1.5-0.1 0.1-0.2 0.2-0.1 0.2-0.2 0.3-0.1 0.1-0.1 0.2-0.1 0.2-0.2 0.3 0 0.1-0.1 0.2-0.1 0.1-0.1 0.2 0 0.1-0.1 0.2 0 0.2-0.1 0.3-0.5 1.4-0.6 4.7-0.1 3.3-0.1 8.2z"/>
		<path id="1" fill-rule="evenodd" class="s0" d="m76.6 106.3h-15.2l0.4-34.1h-25.1v-12.1l13.1-58.1h15.7l-14.2 56.2h10.6l3.9-24.3h11.4v24.3l68.4 0.5 0.1 13.1-68.5 0.4z"/>
		<path id="Shape 2" class="s1" d="m47.5 12.3l-7.9 36-1 0.9 7.7-36.3z"/>
	</g>
	<g id="svgGroup">
		<path id="Shape 1" class="s0" d="m49.6 88.2l-9.7 55.9-41.9-0.1 10-56.5z"/>
		<path id="Shape 1 copy 2" class="s0" d="m144.3 105.2l-2.1 22.3-17.8 0.1 2.1-23.2z"/>
		<path id="Shape 1 copy" class="s0" d="m127.5 104.5l-4.3 40.1-85.2-0.6 6.1-40.4z"/>
		<path id="3" fill-rule="evenodd" class="s1" d="m105.9 141.8l6-35.1h10.8l1 6.1h0.5q1.5-2.9 3.9-4.9 0.3-0.3 0.6-0.5 0.3-0.3 0.7-0.5 0.3-0.1 0.7-0.3 0.4-0.2 0.7-0.3 1.6-0.5 3.6-0.5 0.2 0 0.8 0.1 0.1 0 0.1 0 0.1 0 0.2 0 0 0 0.1 0 0.1 0 0.1 0 0.3 0.1 0.7 0.2 0 0 0 0 0 0 0 0 0 0 0 0 0 0 0 0 0.7 0.2 1.5 0.6 0.8 0.3 1.5 1l-2.9 16.8h-7.2q-0.2-5.1-0.8-7.1 0 0 0 0 0 0 0 0 0 0 0 0 0 0 0 0-0.3-1.1-0.9-1.6-0.1-0.1-0.2-0.2-0.1 0-0.3-0.1-0.1 0-0.2 0-0.2-0.1-0.3-0.1-0.6 0-1.4 0.4 0 0 0 0 0 0 0 0 0 0 0 0 0 0 0 0-0.1 0-0.2 0.1 0 0-0.1 0.1-0.1 0-0.2 0.1 0 0-0.1 0.1-0.5 0.4-1 1.2l-4.2 24.4z"/>
		<path id="2" fill-rule="evenodd" class="s1" d="m92.1 132.1l4.4-25.4h13.5l-6.1 35.1h-10.7l-1.2-5.2h-0.4q-0.3 0.3-0.5 0.7-0.3 0.3-0.6 0.7-0.3 0.3-0.6 0.6-0.4 0.3-0.7 0.6-0.3 0.2-0.5 0.4-0.3 0.2-0.6 0.4-0.3 0.2-0.6 0.4-0.3 0.2-0.6 0.4-0.4 0.2-0.9 0.4-0.5 0.3-1 0.5-0.5 0.1-1 0.3-0.4 0.1-1 0.2-0.2 0.1-0.5 0.1-0.2 0-0.5 0.1-0.2 0-0.5 0-0.2 0-0.5 0-0.3 0-0.6 0-0.3 0-0.7 0-0.3-0.1-0.6-0.1-0.3-0.1-0.6-0.2-2.2-0.5-3.7-2.2-0.5-0.5-1-1.2-0.4-0.7-0.7-1.5-0.2-0.7-0.4-1.6-0.2-0.8-0.2-1.7 0 0 0-0.1 0 0 0-0.1 0-0.1 0-0.1 0-0.1 0-0.1 0-0.2 0-0.4 0-0.2 0-0.4 0.1-0.2 0.1-0.4 0-0.2 0-0.4 0.1-0.8 0.2-1.7 0-0.2 0.1-0.5 0-0.2 0-0.4 0.1-0.2 0.1-0.5 0-0.2 0.1-0.4 0.6-3.1 1-5.8l2.8-15.9h13.4l-3.3 19.1q-0.1 0.6-0.2 1.5-0.2 0.9-0.3 1.8-0.1 0.8-0.2 1.6 0 0.1 0 0.1-0.1 0.1-0.1 0.2 0 0 0 0.1 0 0 0 0.1 0 0.4 0 0.8 0 0 0 0 0 0 0 0 0 0 0 0 0 0 0 0 0 0.1 0 0.2 0 0.2 0 0.3 0 0.1 0 0.2 0 0.1 0 0.3 0.1 0.1 0.1 0.3 0 0.1 0.1 0.2 0 0.2 0.1 0.3 0 0.1 0.1 0.3 0.4 0.7 1.3 0.8 0 0 0.1 0 0 0 0 0 0.1 0 0.1 0 0 0 0.1 0 1.1 0 2.2-1 0.8-0.7 1.4-1.4 0-0.1 0-0.1 0.1-0.1 0.1-0.1 0.1-0.1 0.1-0.1 0-0.1 0.1-0.1z"/>
		<path id="1" fill-rule="evenodd" class="s1" d="m70.3 108.6q0.1 0.1 0.2 0.2 0.1 0 0.2 0.1 0.1 0.1 0.2 0.2 0 0.1 0.1 0.1 3.8 3.6 3.8 11.9 0 0.7 0 1.3 0 0.7-0.1 1.3 0 0.7-0.1 1.3-0.1 0.7-0.2 1.3-0.1 0.5-0.2 1.1-0.1 0.5-0.2 1-0.1 0.5-0.3 1-0.1 0.5-0.3 1-0.2 0.6-0.4 1.3-0.3 0.6-0.6 1.2-0.3 0.6-0.6 1.2-0.3 0.5-0.7 1.1-0.2 0.3-0.4 0.5-0.2 0.3-0.4 0.5-0.2 0.3-0.4 0.5-0.2 0.3-0.4 0.5-0.6 0.6-1.2 1.2-0.7 0.5-1.4 1-0.7 0.4-1.4 0.8-0.7 0.4-1.5 0.7-3.8 1.5-9.1 1.5-0.5 0-1 0-0.5 0-1 0-0.5-0.1-1-0.1-0.5-0.1-1-0.1-4.3-0.7-6.8-2.8-0.1-0.1-0.2-0.2-0.1-0.1-0.2-0.2-0.1-0.1-0.2-0.2-0.1-0.1-0.2-0.2-3.5-3.7-3.8-10.8 0-0.2 0-0.3 0-0.2 0-0.3 0-0.2 0-0.3 0-0.2 0-0.3 0-0.8 0-1.6 0.1-0.8 0.2-1.5 0.1-0.8 0.2-1.6 0.1-0.8 0.3-1.5 0.1-0.5 0.2-0.9 0.1-0.4 0.3-0.9 0.1-0.4 0.2-0.8 0.2-0.4 0.4-0.8 1.7-4.3 5-7.2 3.8-3.1 9.9-3.8 0.4-0.1 0.8-0.1 0.5 0 0.9 0 0.4-0.1 0.8-0.1 0.5 0 0.9 0 0.5 0 1 0 0.5 0 1 0.1 0.5 0 1 0.1 0.5 0 1 0.1 4.2 0.6 6.7 2.5zm-15.2 28.3q0.2 0 0.5-0.1 0.2 0 0.5-0.1 0.2-0.2 0.4-0.3 0.3-0.2 0.5-0.4 0.5-0.5 1-1.4 1.2-2.3 1.9-5.6 0.7-3.3 1.1-6.8 0.3-2.8 0.3-4.9 0-0.2 0.1-0.3 0-0.2 0-0.4 0-0.1 0-0.3 0-0.1 0-0.3 0-2.3-0.4-3.5 0-0.1-0.1-0.2 0-0.1-0.1-0.2 0-0.1-0.1-0.2-0.1 0-0.1-0.1-0.4-0.4-1.2-0.4-1.7 0-2.9 2.1 0 0.1-0.1 0.1 0 0 0 0 0 0 0 0.1 0 0 0 0-0.2 0.4-0.4 0.7-0.2 0.4-0.3 0.8-0.2 0.3-0.3 0.7-0.2 0.4-0.3 0.8-0.1 0.3-0.3 0.6-0.1 0.4-0.2 0.7-0.1 0.3-0.1 0.7-0.1 0.3-0.2 0.7-0.8 3.2-1.2 6.6 0 0.3 0 0.5-0.1 0.3-0.1 0.5 0 0.3 0 0.5-0.1 0.3-0.1 0.5-0.1 2.1-0.1 3.6 0 3.2 0.8 4.5 0.2 0.2 0.3 0.3 0.2 0.2 0.4 0.3 0.2 0.1 0.4 0.1 0.2 0.1 0.4 0.1z"/>
		<path id="0" fill-rule="evenodd" class="s1" d="m46.8 90l-9 51.8h-14.3l3.9-23.1h-8.1l-4 23.1h-14.3l8.9-51.8h14.4l-3.9 22.5h8.1l3.9-22.5z"/>
	</g>
	<path id="&lt;Path&gt;" class="s2" d="m69.6 19.6c0 0 4.2-13.3 16.9-14.3 0 0 0.2 0 0.6 0q1.1 0 2.1 0.4c1 0.4 3.1 1.3 4 1.9q0.1 0.1 0.3 0.2c0.4 0.4 1.8 1.6 1.8 5l0.5 15.1c0 0 0.2 4.1-2.8 5.3q-0.1 0-0.3 0.1l-5.8 3c-0.7 0.4-1.3 0.9-1.7 1.6-0.3 0.5-0.5 1.2-0.3 1.9q0.1 0.4 0.1 0.7c0.3 2.6 2.5 17.4 16.7 31.9 0 0 1.5 1.7 4.2 0.4l4.5-2.3q0.3-0.1 0.6-0.3c0.8-0.5 3.6-2.2 6.8 0.3l12.8 9.4q0.1 0.1 0.2 0.2c0.5 0.3 2.7 2 2.2 5.1q-0.1 0.3-0.1 0.7c-0.2 1-0.6 3.6-1.7 5.1 0 0-6.9 9.8-22.2 5.5 0 0-9.9-3.1-18.2-13.7q-0.4-0.4-0.7-0.8c-2.5-2.9-17.4-20.6-21.1-43.4 0 0-2.1-10.5 0.6-19z"/>
</svg>