<svg width="93.312" height="89.088" viewBox="0 0 93.312 89.088" xmlns="http://www.w3.org/2000/svg"><g id="svgGroup" stroke-linecap="round" fill-rule="evenodd" font-size="9pt" stroke="#ffffff" stroke-width="0.25mm" fill="#000000" style="stroke:#ffffff;stroke-width:0.25mm;fill:#000000"><path d="M 15.36 72.704 L 15.36 75.136 L 40.96 75.136 L 40.96 89.088 L 0 89.088 L 0 78.592 Q 0 66.687 0.326 61.186 A 74.035 74.035 0 0 1 0.384 60.288 A 35.341 35.341 0 0 1 0.792 56.834 Q 1.088 55.11 1.55 53.664 A 16.112 16.112 0 0 1 2.368 51.584 Q 3.863 48.476 7.423 46.037 A 22.371 22.371 0 0 1 7.936 45.696 L 19.84 37.888 Q 22.144 36.352 23.296 35.136 Q 24.251 34.128 24.81 32.416 A 11.98 11.98 0 0 0 25.024 31.68 Q 25.6 29.44 25.6 25.472 Q 25.6 20.096 24.832 17.728 A 5.899 5.899 0 0 0 24.179 16.325 A 4.072 4.072 0 0 0 22.08 14.656 Q 20.096 13.952 15.616 13.952 Q 11.598 13.952 5.104 14.477 A 311.048 311.048 0 0 0 0.896 14.848 L 0.896 1.92 Q 4.224 1.024 9.536 0.512 Q 14.848 0 19.712 0 A 53.375 53.375 0 0 1 24.162 0.174 Q 28.12 0.506 30.976 1.472 A 10.968 10.968 0 0 1 35.44 4.4 Q 36.654 5.679 37.68 7.425 A 21.716 21.716 0 0 1 38.144 8.256 A 19.039 19.039 0 0 1 39.629 12.107 Q 40.96 16.928 40.96 24.32 Q 40.96 31.955 39.797 36.592 A 24.153 24.153 0 0 1 39.744 36.8 Q 38.959 39.816 37.881 41.872 A 11.876 11.876 0 0 1 36.608 43.84 Q 34.688 46.208 31.616 48.256 L 19.2 56.448 Q 17.92 57.216 17.216 57.92 A 4.106 4.106 0 0 0 16.509 58.884 A 5.63 5.63 0 0 0 16.128 59.776 Q 15.616 61.184 15.488 64.512 Q 15.36 67.84 15.36 72.704 Z" id="0" vector-effect="non-scaling-stroke"/><path d="M 87.168 89.088 L 71.808 89.088 L 71.808 71.168 L 46.72 71.168 L 46.72 59.136 L 59.776 1.024 L 75.52 1.024 L 61.312 57.216 L 71.936 57.216 L 75.776 32.896 L 87.168 32.896 L 87.168 57.216 L 93.312 57.216 L 93.312 71.168 L 87.168 71.168 L 87.168 89.088 Z" id="1" vector-effect="non-scaling-stroke"/></g></svg>