<svg width="593.8" height="89.3" viewBox="0 0 593.8 89.3" xmlns="http://www.w3.org/2000/svg"><g id="svgGroup" stroke-linecap="round" fill-rule="evenodd" font-size="9pt" stroke="#000000" stroke-width="1" fill="#000000" style="stroke:#000000;stroke-width:1;fill:#000000"><path d="M 402 74.3 L 385.2 74.3 L 379.2 24.1 L 378.6 24.1 L 372.7 74.3 L 355.9 74.3 L 348.1 5.5 L 360.3 5.5 L 364.7 61.2 L 365.4 61.2 L 371.8 5.5 L 386.5 5.5 L 393.1 61.2 L 393.8 61.2 L 398 5.5 L 409.8 5.5 L 402 74.3 Z M 269.7 74.3 L 257.6 74.3 L 257.6 45.3 L 246.8 45.3 L 246.8 74.3 L 234.7 74.3 L 234.7 5.5 L 246.8 5.5 L 246.8 33.9 L 257.6 33.9 L 257.6 5.5 L 269.7 5.5 L 269.7 74.3 Z M 534.7 74.3 L 522.1 74.3 L 514.1 45.2 L 510.7 45.2 L 510.7 74.3 L 498.6 74.3 L 498.6 5.5 L 510.7 5.5 L 510.7 33.7 L 514.1 33.7 L 522.3 5.5 L 534.6 5.5 L 523.5 38.7 L 534.7 74.3 Z M 492.7 74.3 L 480.3 74.3 L 474.5 49.8 L 474.3 49.8 L 468.8 49.8 L 468.8 74.3 L 456.7 74.3 L 456.7 5.5 L 475.6 5.5 A 28.984 28.984 0 0 1 479.104 5.698 Q 483.097 6.185 485.479 7.875 A 8.817 8.817 0 0 1 485.65 8 A 11.463 11.463 0 0 1 489.56 13.318 A 15.223 15.223 0 0 1 490.1 15.1 A 32.297 32.297 0 0 1 490.68 18.297 Q 491.165 21.912 491.198 26.886 A 110.254 110.254 0 0 1 491.2 27.6 A 90.96 90.96 0 0 1 491.093 32.167 Q 490.872 36.542 490.198 39.619 A 26.472 26.472 0 0 1 490.1 40.05 A 12.716 12.716 0 0 1 488.625 43.745 A 10.596 10.596 0 0 1 485.4 47.1 L 492.7 74.3 Z M 298.3 73.4 L 298.3 63.5 Q 305.6 64.2 309.6 64.2 Q 312.115 64.2 313.582 63.918 A 8.371 8.371 0 0 0 313.9 63.85 A 5.156 5.156 0 0 0 315.174 63.379 A 4.13 4.13 0 0 0 316.3 62.5 Q 317.7 60.8 317.7 55.1 Q 317.7 50.736 317.356 48.93 A 8.166 8.166 0 0 0 317.35 48.9 Q 317 47.1 315.9 46.25 A 4.361 4.361 0 0 0 315.139 45.792 Q 314.3 45.385 312.971 45.046 A 24.141 24.141 0 0 0 311.9 44.8 L 303.9 43.1 Q 300.1 42.3 298.7 37.9 A 23.305 23.305 0 0 1 297.965 34.781 Q 297.394 31.439 297.313 26.694 A 93.966 93.966 0 0 1 297.3 25.1 Q 297.3 17.283 299.163 12.865 A 14.731 14.731 0 0 1 299.3 12.55 A 14.315 14.315 0 0 1 301.13 9.493 A 10.503 10.503 0 0 1 305.05 6.4 Q 307.965 5.079 312.179 4.784 A 36.225 36.225 0 0 1 314.7 4.7 Q 319.2 4.7 322.85 5.3 A 92.012 92.012 0 0 1 324.32 5.553 Q 326.719 5.987 327.5 6.3 L 327.5 16.3 A 12.803 12.803 0 0 0 326.919 16.2 Q 325.858 16.039 323.85 15.85 A 56.347 56.347 0 0 0 320.401 15.635 A 67.399 67.399 0 0 0 318.2 15.6 A 36.918 36.918 0 0 0 316.428 15.64 Q 314.72 15.722 313.564 15.975 A 8.983 8.983 0 0 0 313.25 16.05 Q 311.5 16.5 310.7 17.5 Q 309.947 18.441 309.681 19.915 A 8.024 8.024 0 0 0 309.65 20.1 Q 309.4 21.7 309.4 24.7 Q 309.4 27.339 309.542 28.869 A 13.351 13.351 0 0 0 309.65 29.75 A 5.819 5.819 0 0 0 309.857 30.626 Q 310.002 31.071 310.213 31.414 A 2.526 2.526 0 0 0 310.7 32 A 3.374 3.374 0 0 0 311.35 32.436 Q 312.105 32.834 313.3 33.1 L 320.2 34.7 Q 323.3 35.3 325.35 36.8 Q 326.865 37.909 327.916 40.219 A 16.893 16.893 0 0 1 328.6 42 A 18.7 18.7 0 0 1 329.132 44.326 Q 329.567 46.895 329.669 50.615 A 87.177 87.177 0 0 1 329.7 53 A 72.013 72.013 0 0 1 329.537 58.024 Q 329.151 63.525 327.85 66.9 A 15.767 15.767 0 0 1 326.415 69.775 Q 325.335 71.452 323.916 72.512 A 8.783 8.783 0 0 1 322.45 73.4 A 14.972 14.972 0 0 1 319.443 74.436 Q 316.65 75.1 312.9 75.1 A 62.799 62.799 0 0 1 308.773 74.958 A 80.301 80.301 0 0 1 305.3 74.65 A 59.626 59.626 0 0 1 302.167 74.227 Q 300.692 73.985 299.417 73.685 A 30.386 30.386 0 0 1 298.3 73.4 Z M 538.6 73.4 L 538.6 63.5 Q 545.9 64.2 549.9 64.2 Q 552.415 64.2 553.882 63.918 A 8.371 8.371 0 0 0 554.2 63.85 A 5.156 5.156 0 0 0 555.474 63.379 A 4.13 4.13 0 0 0 556.6 62.5 Q 558 60.8 558 55.1 Q 558 50.736 557.656 48.93 A 8.166 8.166 0 0 0 557.65 48.9 Q 557.3 47.1 556.2 46.25 A 4.361 4.361 0 0 0 555.439 45.792 Q 554.6 45.385 553.271 45.046 A 24.141 24.141 0 0 0 552.2 44.8 L 544.2 43.1 Q 540.4 42.3 539 37.9 A 23.305 23.305 0 0 1 538.265 34.781 Q 537.694 31.439 537.613 26.694 A 93.966 93.966 0 0 1 537.6 25.1 Q 537.6 17.283 539.463 12.865 A 14.731 14.731 0 0 1 539.6 12.55 A 14.315 14.315 0 0 1 541.43 9.493 A 10.503 10.503 0 0 1 545.35 6.4 Q 548.265 5.079 552.479 4.784 A 36.225 36.225 0 0 1 555 4.7 Q 559.5 4.7 563.15 5.3 A 92.012 92.012 0 0 1 564.62 5.553 Q 567.019 5.987 567.8 6.3 L 567.8 16.3 A 12.803 12.803 0 0 0 567.219 16.2 Q 566.158 16.039 564.15 15.85 A 56.347 56.347 0 0 0 560.701 15.635 A 67.399 67.399 0 0 0 558.5 15.6 A 36.918 36.918 0 0 0 556.728 15.64 Q 555.02 15.722 553.864 15.975 A 8.983 8.983 0 0 0 553.55 16.05 Q 551.8 16.5 551 17.5 Q 550.247 18.441 549.981 19.915 A 8.024 8.024 0 0 0 549.95 20.1 Q 549.7 21.7 549.7 24.7 Q 549.7 27.339 549.842 28.869 A 13.351 13.351 0 0 0 549.95 29.75 A 5.819 5.819 0 0 0 550.157 30.626 Q 550.302 31.071 550.513 31.414 A 2.526 2.526 0 0 0 551 32 A 3.374 3.374 0 0 0 551.65 32.436 Q 552.405 32.834 553.6 33.1 L 560.5 34.7 Q 563.6 35.3 565.65 36.8 Q 567.165 37.909 568.216 40.219 A 16.893 16.893 0 0 1 568.9 42 A 18.7 18.7 0 0 1 569.432 44.326 Q 569.867 46.895 569.969 50.615 A 87.177 87.177 0 0 1 570 53 A 72.013 72.013 0 0 1 569.837 58.024 Q 569.451 63.525 568.15 66.9 A 15.767 15.767 0 0 1 566.715 69.775 Q 565.635 71.452 564.216 72.512 A 8.783 8.783 0 0 1 562.75 73.4 A 14.972 14.972 0 0 1 559.743 74.436 Q 556.95 75.1 553.2 75.1 A 62.799 62.799 0 0 1 549.073 74.958 A 80.301 80.301 0 0 1 545.6 74.65 A 59.626 59.626 0 0 1 542.467 74.227 Q 540.992 73.985 539.717 73.685 A 30.386 30.386 0 0 1 538.6 73.4 Z M 593.8 89.3 L 574.9 89.3 L 574.9 81.8 L 582.5 81.4 L 582.5 7.8 L 574.9 7.4 L 574.9 0 L 593.8 0 L 593.8 89.3 Z M 18.8 89.3 L 0 89.3 L 0 0 L 18.8 0 L 18.8 7.4 L 11.2 7.8 L 11.2 81.4 L 18.8 81.8 L 18.8 89.3 Z M 63 74.3 L 50.8 74.3 L 48.5 59.2 L 36.7 59.2 L 34.4 74.3 L 22.5 74.3 L 33.8 5.5 L 51.6 5.5 L 63 74.3 Z M 199.7 74.3 L 187.6 74.3 L 187.6 5.5 L 213.7 5.5 L 213.7 16.4 L 199.7 16.4 L 199.7 35.5 L 212.1 35.5 L 212.1 46.4 L 199.7 46.4 L 199.7 74.3 Z M 94 74.3 L 68.1 74.3 L 68.1 5.5 L 80.2 5.5 L 80.2 63.2 L 94 63.2 L 94 74.3 Z M 125.1 74.3 L 99.2 74.3 L 99.2 5.5 L 111.3 5.5 L 111.3 63.2 L 125.1 63.2 L 125.1 74.3 Z M 149.75 72.1 A 9.101 9.101 0 0 0 151.109 73.018 Q 154.852 75.1 162.1 75.1 A 46.081 46.081 0 0 0 163.858 75.067 Q 171.185 74.788 174.5 72.1 A 10.443 10.443 0 0 0 176.64 69.716 Q 178.513 66.876 179.15 62.35 A 65.701 65.701 0 0 0 179.56 58.486 Q 180.1 51.736 180.1 39.9 A 416.663 416.663 0 0 0 180.042 32.715 Q 179.866 22.539 179.15 17.45 Q 178.656 13.943 177.421 11.449 A 11.051 11.051 0 0 0 174.5 7.7 Q 171.783 5.497 166.369 4.912 A 39.876 39.876 0 0 0 162.1 4.7 A 46.011 46.011 0 0 0 160.332 4.733 Q 153.017 5.014 149.75 7.7 A 10.443 10.443 0 0 0 147.608 10.13 Q 145.782 12.961 145.15 17.45 A 65.701 65.701 0 0 0 144.74 21.314 Q 144.2 28.064 144.2 39.9 A 416.663 416.663 0 0 0 144.258 47.085 Q 144.434 57.261 145.15 62.35 A 25.117 25.117 0 0 0 145.636 64.891 Q 146.827 69.698 149.75 72.1 Z M 418.85 72.1 A 9.101 9.101 0 0 0 420.209 73.018 Q 423.952 75.1 431.2 75.1 A 46.081 46.081 0 0 0 432.958 75.067 Q 440.285 74.788 443.6 72.1 A 10.443 10.443 0 0 0 445.74 69.716 Q 447.613 66.876 448.25 62.35 A 65.701 65.701 0 0 0 448.66 58.486 Q 449.2 51.736 449.2 39.9 A 416.663 416.663 0 0 0 449.142 32.715 Q 448.966 22.539 448.25 17.45 Q 447.756 13.943 446.521 11.449 A 11.051 11.051 0 0 0 443.6 7.7 Q 440.883 5.497 435.469 4.912 A 39.876 39.876 0 0 0 431.2 4.7 A 46.011 46.011 0 0 0 429.432 4.733 Q 422.117 5.014 418.85 7.7 A 10.443 10.443 0 0 0 416.708 10.13 Q 414.882 12.961 414.25 17.45 A 65.701 65.701 0 0 0 413.84 21.314 Q 413.3 28.064 413.3 39.9 A 416.663 416.663 0 0 0 413.358 47.085 Q 413.534 57.261 414.25 62.35 A 25.117 25.117 0 0 0 414.736 64.891 Q 415.927 69.698 418.85 72.1 Z M 290.5 74.3 L 278.5 74.3 L 278.5 5.5 L 290.5 5.5 L 290.5 74.3 Z M 165.762 63.38 A 2.611 2.611 0 0 0 166.2 63 Q 167.207 61.902 167.585 57.872 A 40.116 40.116 0 0 0 167.65 57.1 A 82.012 82.012 0 0 0 167.799 54.366 Q 167.953 50.543 167.989 44.094 A 751.857 751.857 0 0 0 168 39.9 A 704.205 704.205 0 0 0 167.979 34.303 Q 167.915 26.262 167.65 22.7 Q 167.3 18 166.2 16.8 A 2.982 2.982 0 0 0 165.164 16.092 Q 164.223 15.687 162.752 15.615 A 13.46 13.46 0 0 0 162.1 15.6 A 11.697 11.697 0 0 0 160.732 15.674 Q 159.325 15.84 158.527 16.382 A 2.485 2.485 0 0 0 158.05 16.8 A 3.051 3.051 0 0 0 157.573 17.606 Q 156.902 19.169 156.6 22.75 A 73.694 73.694 0 0 0 156.43 25.499 Q 156.2 30.503 156.2 39.9 A 608.073 608.073 0 0 0 156.223 45.458 Q 156.286 52.28 156.516 55.901 A 56.225 56.225 0 0 0 156.6 57.05 A 38.82 38.82 0 0 0 156.773 58.706 Q 157.197 62.025 158.05 63 Q 159.1 64.2 162.1 64.2 Q 164.58 64.2 165.762 63.38 Z M 434.862 63.38 A 2.611 2.611 0 0 0 435.3 63 Q 436.307 61.902 436.685 57.872 A 40.116 40.116 0 0 0 436.75 57.1 A 82.012 82.012 0 0 0 436.899 54.366 Q 437.053 50.543 437.089 44.094 A 751.857 751.857 0 0 0 437.1 39.9 A 704.205 704.205 0 0 0 437.079 34.303 Q 437.015 26.262 436.75 22.7 Q 436.4 18 435.3 16.8 A 2.982 2.982 0 0 0 434.264 16.092 Q 433.323 15.687 431.852 15.615 A 13.46 13.46 0 0 0 431.2 15.6 A 11.697 11.697 0 0 0 429.832 15.674 Q 428.425 15.84 427.627 16.382 A 2.485 2.485 0 0 0 427.15 16.8 A 3.051 3.051 0 0 0 426.673 17.606 Q 426.002 19.169 425.7 22.75 A 73.694 73.694 0 0 0 425.53 25.499 Q 425.3 30.503 425.3 39.9 A 608.073 608.073 0 0 0 425.323 45.458 Q 425.386 52.28 425.616 55.901 A 56.225 56.225 0 0 0 425.7 57.05 A 38.82 38.82 0 0 0 425.873 58.706 Q 426.297 62.025 427.15 63 Q 428.2 64.2 431.2 64.2 Q 433.68 64.2 434.862 63.38 Z M 47.3 48.6 L 42.9 17.9 L 42.3 17.9 L 37.9 48.6 L 47.3 48.6 Z M 473.6 16.4 L 468.8 16.4 L 468.8 39.2 L 473.6 39.2 A 12.658 12.658 0 0 0 474.879 39.14 Q 476.18 39.007 476.981 38.582 A 2.954 2.954 0 0 0 477.35 38.35 A 2.971 2.971 0 0 0 478.152 37.42 Q 478.612 36.619 478.823 35.369 A 10.396 10.396 0 0 0 478.85 35.2 Q 479.114 33.466 479.179 30.141 A 120.355 120.355 0 0 0 479.2 27.8 Q 479.2 23.955 479.001 21.702 A 21.063 21.063 0 0 0 478.85 20.4 Q 478.512 18.176 477.426 17.308 A 2.512 2.512 0 0 0 477.35 17.25 A 3.466 3.466 0 0 0 476.414 16.775 Q 475.327 16.4 473.6 16.4 Z" vector-effect="non-scaling-stroke"/></g></svg>