<svg width="304.8" height="70.4" viewBox="0 0 304.8 70.4" xmlns="http://www.w3.org/2000/svg"><g id="svgGroup" stroke-linecap="round" fill-rule="evenodd" font-size="9pt" stroke="#000" stroke-width="0" fill="#ffffff" style="stroke:#000;stroke-width:0;fill:#ffffff"><path d="M 98 69.6 L 86.4 69.6 L 86.4 16.4 L 85.7 16.4 L 77.7 69.6 L 65.6 69.6 L 57.8 16.4 L 57 16.4 L 57 69.6 L 45.6 69.6 L 45.6 0.8 L 64.3 0.8 L 71.7 51.5 L 72.4 51.5 L 79.8 0.8 L 98 0.8 L 98 69.6 Z M 241.4 69.6 L 230.7 69.6 L 218 30.8 L 217.6 30.8 L 217.6 69.6 L 206.1 69.6 L 206.1 0.8 L 217.5 0.8 L 229.4 36.9 L 230 36.9 L 230 0.8 L 241.4 0.8 L 241.4 69.6 Z M 272.1 40.8 L 266.9 40.8 L 266.9 30.2 L 282.9 30.2 L 282.9 68.3 A 27.372 27.372 0 0 1 280.329 69.038 Q 278.294 69.523 275.8 69.85 Q 271.6 70.4 267.7 70.4 A 36.659 36.659 0 0 1 263.524 70.179 Q 259.048 69.664 256.324 67.952 A 10.242 10.242 0 0 1 255.8 67.6 Q 251.9 64.8 250.4 57.45 A 54.977 54.977 0 0 1 249.675 52.718 Q 248.9 45.909 248.9 35.2 A 222.096 222.096 0 0 1 249.027 27.416 Q 249.274 20.385 250.006 15.641 A 44.851 44.851 0 0 1 250.5 12.95 Q 251.518 8.275 253.587 5.441 A 10.742 10.742 0 0 1 256.3 2.8 A 13.894 13.894 0 0 1 259.861 1.149 Q 263.283 0.074 268.213 0.005 A 48.859 48.859 0 0 1 268.9 0 A 44.204 44.204 0 0 1 272.26 0.135 Q 274.06 0.273 276.05 0.55 A 66.731 66.731 0 0 1 278.851 0.998 Q 280.225 1.249 281.424 1.539 A 34.479 34.479 0 0 1 282.8 1.9 L 282.8 12 A 157.411 157.411 0 0 0 279.475 11.519 Q 276.112 11.071 273.809 10.947 A 30.17 30.17 0 0 0 272.2 10.9 A 41.265 41.265 0 0 0 269.693 10.97 Q 266.091 11.191 264.5 12.1 A 3.941 3.941 0 0 0 263.223 13.331 Q 262.128 14.931 261.6 18.1 A 38.944 38.944 0 0 0 261.251 20.956 Q 260.821 25.734 260.801 34.365 A 366.474 366.474 0 0 0 260.8 35.2 Q 260.8 45.975 261.182 50.897 A 50.098 50.098 0 0 0 261.25 51.7 Q 261.585 55.278 262.449 57.106 A 4.73 4.73 0 0 0 263.1 58.15 Q 264.5 59.8 268 59.8 Q 270.5 59.8 272.1 59.4 L 272.1 40.8 Z M 178.3 69.6 L 147 69.6 L 147 59.4 L 165.3 11.7 L 147.5 11.7 L 147.5 0.8 L 178.2 0.8 L 178.2 10.9 L 159.8 58.7 L 178.3 58.7 L 178.3 69.6 Z M 40.5 69.6 L 28.3 69.6 L 26 54.5 L 14.2 54.5 L 11.9 69.6 L 0 69.6 L 11.3 0.8 L 29.1 0.8 L 40.5 69.6 Z M 143.8 69.6 L 131.6 69.6 L 129.3 54.5 L 117.5 54.5 L 115.2 69.6 L 103.3 69.6 L 114.6 0.8 L 132.4 0.8 L 143.8 69.6 Z M 197.3 69.6 L 185.3 69.6 L 185.3 0.8 L 197.3 0.8 L 197.3 69.6 Z M 290.9 7.9 L 290.9 0.8 L 304.8 0.8 L 304.8 7.9 A 49.887 49.887 0 0 1 304.752 9.865 Q 304.621 13.085 304.133 19.22 A 746.938 746.938 0 0 1 303.8 23.25 Q 302.8 35 301.4 48.7 L 294.3 48.7 Q 291.268 18.202 290.94 9.652 A 46.89 46.89 0 0 1 290.9 7.9 Z M 24.8 43.9 L 20.4 13.2 L 19.8 13.2 L 15.4 43.9 L 24.8 43.9 Z M 128.1 43.9 L 123.7 13.2 L 123.1 13.2 L 118.7 43.9 L 128.1 43.9 Z M 304 69.6 L 291.7 69.6 L 291.7 57.5 L 304 57.5 L 304 69.6 Z" vector-effect="non-scaling-stroke"/></g></svg>