<svg width="10.396" height="11.91" viewBox="0 0 10.396 11.91" xmlns="http://www.w3.org/2000/svg"><g id="svgGroup" stroke-linecap="round" fill-rule="evenodd" font-size="9pt" stroke="#000" stroke-width="0" fill="#000" style="stroke:#000;stroke-width:0;fill:#000"><path d="M 0.299 11.736 L 0.055 11.316 A 0.427 0.427 0 0 1 0.018 11.241 Q -0.07 10.994 0.269 10.799 L 8.658 5.965 L 8.658 5.945 L 0.269 1.111 Q -0.12 0.888 0.053 0.596 A 0.525 0.525 0 0 1 0.055 0.594 L 0.299 0.174 Q 0.474 -0.128 0.854 0.095 A 1.015 1.015 0 0 1 0.855 0.096 L 10.152 5.467 Q 10.291 5.545 10.351 5.642 A 0.294 0.294 0 0 1 10.396 5.799 L 10.396 6.111 Q 10.396 6.278 10.218 6.402 A 0.795 0.795 0 0 1 10.152 6.443 L 0.855 11.814 A 0.916 0.916 0 0 1 0.76 11.864 Q 0.452 12 0.299 11.736 Z" vector-effect="non-scaling-stroke"/></g></svg>