<?xml version="1.0" standalone="no"?><!DOCTYPE svg PUBLIC "-//W3C//DTD SVG 1.1//EN" "http://www.w3.org/Graphics/SVG/1.1/DTD/svg11.dtd">
<svg x="0.0000mm" y="0.0000mm" width="100%" height="100%" viewBox="0.0000 0.0000 47.6250 26.4580" version="1.1" xmlns="http://www.w3.org/2000/svg" shape-rendering="crispEdges">
<title>TBarCode - 11.17.1.16949</title>
<desc>BarCode licensed to MEM:TEC-IT Datenverarbeitung GmbH Internal License</desc>
<g fill="rgb(0%,0%,0%)">
</g>
<g fill="rgb(100%,100%,100%)">
<rect x="0.0000" y="0.0000" width="47.6250" height="26.4580" />
</g>
<g fill="rgb(0%,0%,0%)">
</g>
<g fill="rgb(0%,0%,0%)">
<rect x="0.0000" y="0.0000" width="1.0583" height="26.4580" />
<rect x="1.5875" y="0.0000" width="0.5292" height="26.4580" />
<rect x="3.1750" y="0.0000" width="0.5292" height="26.4580" />
<rect x="5.8208" y="0.0000" width="1.5875" height="26.4580" />
<rect x="7.9375" y="0.0000" width="0.5292" height="26.4580" />
<rect x="10.0542" y="0.0000" width="1.0583" height="26.4580" />
<rect x="11.6417" y="0.0000" width="0.5292" height="26.4580" />
<rect x="13.7583" y="0.0000" width="1.5875" height="26.4580" />
<rect x="15.8750" y="0.0000" width="1.0583" height="26.4580" />
<rect x="17.4625" y="0.0000" width="1.0583" height="26.4580" />
<rect x="20.1083" y="0.0000" width="0.5292" height="26.4580" />
<rect x="21.1667" y="0.0000" width="1.5875" height="26.4580" />
<rect x="23.2833" y="0.0000" width="0.5292" height="26.4580" />
<rect x="24.3417" y="0.0000" width="1.0583" height="26.4580" />
<rect x="26.9875" y="0.0000" width="1.5875" height="26.4580" />
<rect x="29.1042" y="0.0000" width="1.0583" height="26.4580" />
<rect x="30.6917" y="0.0000" width="1.5875" height="26.4580" />
<rect x="32.8083" y="0.0000" width="0.5292" height="26.4580" />
<rect x="34.9250" y="0.0000" width="0.5292" height="26.4580" />
<rect x="36.5125" y="0.0000" width="1.0583" height="26.4580" />
<rect x="38.6292" y="0.0000" width="0.5292" height="26.4580" />
<rect x="40.7458" y="0.0000" width="1.0583" height="26.4580" />
<rect x="43.3917" y="0.0000" width="1.5875" height="26.4580" />
<rect x="45.5083" y="0.0000" width="0.5292" height="26.4580" />
<rect x="46.5667" y="0.0000" width="1.0583" height="26.4580" />
</g>
</svg>
