<svg version="1.2" xmlns="http://www.w3.org/2000/svg" viewBox="0 0 315 327" width="100%" height="100%">
	<title>boy-svg</title>
	<style>
		.s0 { fill: #ffffff;stroke: #000000;stroke-linecap: round;stroke-linejoin: round;stroke-width: 6 } 
		.s1 { fill: #e0e0e0;stroke: #292b2e;stroke-linecap: round;stroke-linejoin: round;stroke-width: 6 } 
		.s2 { fill: #646669;stroke: #292b2e;stroke-linecap: round;stroke-linejoin: round;stroke-width: 6 } 
		.s3 { fill: #292b2e } 
		.s4 { fill: #ffffff;stroke: #000000;stroke-miterlimit:10;stroke-width: 6 } 
		.s5 { fill: #000000 } 
		.s6 { fill: #ffffff } 
		.s7 { fill: #e0e0e0 } 
		.s8 { fill: none;stroke: #000000;stroke-miterlimit:10;stroke-width: 6 } 
		.s9 { opacity: .1;mix-blend-mode: multiply;fill: #292b2e } 
		.s10 { opacity: .5;mix-blend-mode: multiply;fill: #000000 } 
		.s11 { opacity: .5;mix-blend-mode: multiply;fill: #292b2e } 
		.s12 { fill: #ffffff;stroke: #ffffff;stroke-linecap: round;stroke-linejoin: round;stroke-width: 4 } 
		.s13 { fill: #000000;stroke: #151515;stroke-miterlimit:100;stroke-width: 5 } 
		.s14 { opacity: .6;mix-blend-mode: multiply;fill: #292b2e } 
		.s15 { fill: none;stroke: #000000;stroke-linecap: round;stroke-linejoin: round;stroke-width: 6 } 
		.s16 { opacity: .4;fill: #ffffff } 
		.s17 { fill: none;stroke: #292b2e;stroke-miterlimit:10;stroke-width: 6 } 
	</style>
	<rect width="315" height="327" id="Color Fill 1" style="fill: #000000"/>
	<g id="OBJECTS">
		<g id="&lt;Clip Group&gt;">
			<g id="&lt;Group&gt;">
				<g id="&lt;Group&gt;">
					<path id="&lt;Path&gt;" class="s0" d="m123.2 343.9c0 0-73.4 67.6-96.2 88.6-48.4 37.2-82.7 73.3-84.1 77.6-1.4 4.3 17.6 48.5 37.1 71.7 19.5 23.3 60.8 43.6 86.5 48.2h117.3v-218.3z"/>
					<path id="&lt;Path&gt;" class="s1" d="m-57.1 510.1c0 0 12.2 51.9 37.9 74.5 19.6 17.2 55.5 34.1 74 37.1v-43.2c0 0-76.2-57-111.9-68.4z"/>
				</g>
				<g id="&lt;Group&gt;">
					<path id="&lt;Path&gt;" class="s2" d="m63.1 726.1c0 0-3.1 2.5-3.5 5.6-0.5 3.1 0.4 27.4 0 32.8-0.5 5.5 1.7 7.9 1.7 7.9 0 0-8.4 7.6-10 10.4-1.7 2.9 0 10.2 0 10.2 0 0-18.3 23.7-20 26.2h354.9c0 0-33.2-33.9-33.9-36-0.7-2.2-0.9-5.7-2.8-8.4-1.9-2.6-6-5.4-6-5.4 0 0 1.2-3.3 1-7.4-0.3-4-10.3-38.6-10.3-38.6z"/>
					<path id="&lt;Path&gt;" class="s3" d="m60.4 773.2l0.6 0.1c15.9 6.1 74.8 11.4 137.8 11.4 53.5 0 109.8-3.8 145.1-14.4l0.5-0.2c-0.5-0.5-0.9-0.7-0.9-0.7 0 0 0.2-0.4 0.4-1.2l-0.6 0.3c-76.5 22.9-252.8 14.2-281.7 3l-1-0.2c0.4 0.7 0.7 1.1 0.7 1.1 0 0-0.4 0.3-0.9 0.8z"/>
				</g>
				<g id="&lt;Group&gt;">
					<path id="&lt;Path&gt;" class="s4" d="m322.1 264.9c0 0-12.3 25.7-19.7 49.8-7.4 24-11.8 46.8 5.4 68.7v50.7h-133v-76.1c0 0 24.5-5.3 28-21.5 3.5-16.1 9.2-71.6 9.2-71.6z"/>
					<path id="&lt;Path&gt;" class="s5" d="m212 264.9c0 0-5.7 55.5-9.2 71.6-0.7 3.4-2.4 6.3-4.6 8.9 4 6.1 10.1 13.1 16.7 12 10-1.7 61.7-30.3 91.7-55.3 7.1-19.6 15.5-37.2 15.5-37.2z"/>
				</g>
				<path id="&lt;Path&gt;" class="s5" d="m78.1 152.1c0 0-1.6 58.2 40.8 67.1h21.9v-67.9z"/>
				<path id="&lt;Path&gt;" class="s6" d="m111.4 217.4c-0.5 7.9-7.8 27.7-1.9 40.4 14.7 31.8 54.8 74.6 91.9 74.6 21.4 0 102.4-16.2 125.7-69.4 0 0 22.8-13.5 32.7-42.3 10-28.7 48.7-108.8-4.5-181.5-53.2-72.7-172.9-75.5-236.1-19.9-63.2 55.6-32.8 159.1-7.8 198.1z"/>
				<g id="&lt;Group&gt;">
					<path id="&lt;Path&gt;" class="s6" d="m111.4 217.4c-0.5 7.9-7.8 27.7-1.9 40.4 14.7 31.8 54.8 74.6 91.9 74.6 21.4 0 102.4-16.2 125.7-69.4 0 0 22.8-13.5 32.7-42.3 10-28.7 48.7-108.8-4.5-181.5-53.2-72.7-172.9-75.5-236.1-19.9-63.2 55.6-32.8 159.1-7.8 198.1z"/>
					<path id="&lt;Path&gt;" class="s7" d="m381 148.4c4.7-33.1 1.5-72.1-25.7-109.2-53.2-72.7-172.9-75.5-236.1-19.9-58.7 51.6-36.6 144.7-13.2 188.9 2.8 1.6 5.9 3.1 9.3 4.1 0 0 13.2-14.9 24.4-14.6 11.1 0.4 22.6 12.2 41.2 11.9 18.6-0.3 37.5-7.8 54.1-9.7 16.6-1.9 71.9 0 71.9 0l28-13.4z"/>
					<path id="&lt;Path&gt;" fill-rule="evenodd" class="s8" d="m111.4 217.4c-0.5 7.9-7.8 27.7-1.9 40.4 14.7 31.8 54.8 74.6 91.9 74.6 21.4 0 102.4-16.2 125.7-69.4 0 0 22.8-13.5 32.7-42.3 10-28.7 48.7-108.8-4.5-181.5-53.2-72.7-172.9-75.5-236.1-19.9-63.2 55.6-32.8 159.1-7.8 198.1z"/>
				</g>
				<g id="&lt;Group&gt;">
					<path id="&lt;Path&gt;" class="s6" d="m265.8 164.3c-15.3 1.6-25.9 15.3-29.1 23.4-3.2 8.2-3.2 19.5 2.1 25.8 5.4 6.4 19.5 11.9 37.8 11 18.3-1 30.5-15.9 31.2-32.6-5.4-20.6-20.4-29.5-42-27.6z"/>
					<path id="&lt;Path&gt;" class="s9" d="m265.8 164.3c-15.3 1.6-25.9 15.3-29.1 23.4-2 5-2.7 11.1-1.8 16.5 7.2-14.9 21.9-26.7 47.9-19.9 11.9 3.1 18.8 12 22.6 19.1 1.4-3.6 2.3-7.5 2.4-11.5-5.4-20.6-20.4-29.5-42-27.6z"/>
					<g id="&lt;Group&gt;">
						<path id="&lt;Path&gt;" class="s3" d="m279.3 164.3c-11.5 0-21.1 8.2-24.2 19.4-0.6 2.5-1 5.1-1 7.7 0 15.1 11.3 27.2 25.2 27.2 10.3 0 19.3-6.8 23.1-16.5 1.3-3.3 2-6.9 2-10.7 0-15-11.3-27.1-25.1-27.1z"/>
						<path id="&lt;Path&gt;" class="s10" d="m304.4 191.4c0-15-11.3-27.1-25.1-27.1-11.5 0-21.1 8.2-24.2 19.4 2.6-0.8 5.6-1.4 8.8-1.7-1.2 2.8-1.9 6-1.9 9.4 0 11.5 7.7 20.8 17.3 20.8 8.9 0 16.3-8.3 17.1-18.8q0 0-0.1-0.1c2.3 2.5 4.4 5.4 6.1 8.8 1.3-3.3 2-6.9 2-10.7z"/>
						<path id="&lt;Path&gt;" class="s11" d="m304.4 191.4c0-10.5-5.5-19.6-13.6-24.1q-2.2-1.1-4.6-2c-2.2-0.6-4.6-1-6.9-1-6 0-11.5 2.2-15.8 6q2.7-0.5 5.7-0.5c27.1-0.2 33.5 22.9 33.6 29.2q0 1 0 2c1-3 1.6-6.2 1.6-9.6z"/>
						<path id="&lt;Path&gt;" class="s12" d="m287.8 191.4c-4.9 2.5-6.5 4.4-8.5 10.3-2.1-5.9-3.7-7.8-8.5-10.3 4.8-2.4 6.4-4.4 8.5-10.2 2 5.8 3.6 7.8 8.5 10.2z"/>
						<path id="&lt;Path&gt;" class="s6" d="m270.7 177.5c0 2.7-1.9 4.9-4.1 4.9-2.3 0-4.1-2.2-4.1-4.9 0-2.8 1.8-5 4.1-5 2.2 0 4.1 2.2 4.1 5z"/>
						<path id="&lt;Path&gt;" class="s6" d="m291.1 212.8c0 3.3-2.2 5.9-4.9 5.9-2.8 0-5-2.6-5-5.9 0-3.4 2.2-6 5-6 2.7 0 4.9 2.6 4.9 6z"/>
						<path id="&lt;Path&gt;" class="s6" d="m252.3 213.5c6.5-3.4 14.8-15.3 13.4-17.1-1.5-1.7-13.2-1.6-19.5 2.7 0 0-1.9 8.3 6.1 14.4z"/>
					</g>
					<path id="&lt;Path&gt;" class="s5" d="m315.7 176c-0.2-0.3-0.7-0.5-1.2-0.3q0 0-0.7 0.3-0.3 0.1-0.7 0.3-0.4 0.1-0.9 0.3c-0.4 0.1-0.8 0.1-1.2 0.2-0.4 0-0.8 0-1.3 0-0.4 0.1-0.9 0-1.3-0.1-0.5 0-0.9-0.2-1.4-0.3q-0.1 0-0.3-0.1-0.7-1-1.6-2 0.7-0.3 1.3-0.6c0.6-0.4 1.1-0.7 1.6-1.1 0.5-0.4 0.9-0.7 1.3-1.2 0.3-0.4 0.7-0.7 0.9-1.1q0.4-0.6 0.7-1 0.2-0.5 0.4-0.9c0.1-0.4 0.3-0.7 0.3-0.7 0.1-0.2 0-0.5-0.2-0.8-0.4-0.2-0.9-0.2-1.2 0l-0.1 0.1q0 0-0.5 0.4-0.2 0.2-0.5 0.5-0.4 0.3-0.9 0.6c-0.2 0.2-0.6 0.3-1 0.5-0.3 0.2-0.8 0.3-1.2 0.4-0.4 0.1-0.9 0.2-1.3 0.3-0.4 0.1-0.9 0.1-1.4 0.1-0.9 0-1.9 0-2.8-0.2q-1.7-1.4-3.6-2.7 0.6-0.4 1.1-0.8c0.5-0.4 1-0.8 1.4-1.3 0.4-0.5 0.8-0.9 1.1-1.4 0.3-0.4 0.5-0.8 0.7-1.2q0.2-0.6 0.5-1.1 0.1-0.6 0.1-0.9c0.2-0.5 0.2-0.8 0.2-0.8 0.1-0.2-0.1-0.5-0.3-0.7-0.4-0.2-0.9-0.2-1.2 0.2q0 0-0.4 0.5-0.2 0.3-0.5 0.6-0.3 0.3-0.7 0.7-0.4 0.3-0.9 0.6c-0.3 0.2-0.7 0.4-1.1 0.6-0.4 0.2-0.9 0.3-1.3 0.5-0.4 0.1-0.9 0.2-1.3 0.3-1 0.2-1.9 0.3-2.8 0.3-0.9 0-1.7-0.1-2.5-0.2q-0.3 0-0.5 0c-4.9-1.8-10.6-2.7-17-2.5-25.2 0.5-45.9 21.4-37.8 46.5-0.3-10.9 10.8-39.3 37.9-39.5 27.1-0.2 33.5 22.8 33.6 29.1 0.1 6.3-1.5 10.4-1.5 10.4 0 0 7.2-5.1 10.5-14.7-1.1-4-2.7-7.8-4.7-11.3q0.5-0.2 0.9-0.4c0.6-0.2 1.2-0.4 1.7-0.7 0.5-0.3 0.9-0.5 1.3-0.8q0.5-0.5 1-0.8 0.4-0.4 0.6-0.7 0.6-0.6 0.6-0.6c0.2-0.2 0.2-0.5 0.1-0.8z"/>
					<path id="&lt;Path&gt;" class="s3" d="m254.2 221.8c0 0 0.7 0.2 2 0.4q1 0.2 2.3 0.4c0.9 0.2 1.9 0.3 3 0.5 1.1 0.1 2.3 0.3 3.5 0.4 1.3 0 2.6 0.2 4 0.2q2.1 0.1 4.2 0c1.5 0.1 2.9-0.2 4.4-0.2 1.4-0.2 2.9-0.4 4.3-0.7q1-0.2 2-0.5 1-0.2 2-0.6c1.2-0.4 2.5-0.7 3.6-1.3q0.8-0.4 1.6-0.8 0.4-0.2 0.7-0.4 0.4-0.2 0.7-0.4 1.3-0.9 2.4-1.6c0.6-0.6 1.2-1.1 1.6-1.5q1.5-1.2 1.5-1.2v-0.1c0.2-0.1 0.4-0.1 0.5 0 0.1 0.1 0.1 0.3 0 0.4 0 0-0.5 0.6-1.3 1.5-0.4 0.4-0.9 1-1.6 1.6q-1 0.8-2.3 1.8-0.3 0.3-0.7 0.5-0.4 0.2-0.8 0.5-0.8 0.4-1.6 0.9c-1.1 0.6-2.4 1.1-3.7 1.6q-1 0.4-2.1 0.6-1 0.3-2.1 0.6c-1.5 0.3-3 0.5-4.5 0.7-1.5 0.1-3 0.3-4.5 0.3-1.5 0-3 0-4.4-0.1-1.4-0.1-2.8-0.2-4.1-0.4q-1.9-0.3-3.6-0.6c-4.4-0.8-7.2-1.8-7.2-1.8-0.2-0.1-0.3-0.3-0.2-0.5 0-0.2 0.2-0.3 0.4-0.2z"/>
					<path id="&lt;Path&gt;" class="s5" d="m223.6 160.3c0 0 38.6-22.3 82-11.6-13.3-6.5-40.5-9.1-61.6-3.8-21.1 5.4-20.6 9.7-20.4 15.4z"/>
					<path id="&lt;Path&gt;" class="s3" d="m235.8 169.1c0 0 0.5-0.7 1.4-1.9 0.5-0.6 1.2-1.3 2-2.1 0.8-0.8 1.7-1.7 2.9-2.5q0.9-0.6 1.8-1.2 1-0.6 2-1.2c1.4-0.9 3-1.6 4.6-2.3q1.3-0.5 2.6-1c0.8-0.3 1.8-0.5 2.7-0.8q1.3-0.5 2.7-0.8c1-0.2 1.9-0.4 2.9-0.5 1.9-0.3 3.8-0.6 5.7-0.7 2-0.1 3.8 0 5.7 0 1.8 0.1 3.5 0.4 5.2 0.6q2.4 0.5 4.5 1c1.4 0.4 2.7 0.8 3.8 1.2 1.1 0.3 1.9 0.8 2.7 1.1 1.5 0.7 2.4 1.1 2.4 1.1 0.2 0.1 0.3 0.4 0.2 0.6-0.1 0.2-0.4 0.3-0.6 0.2h-0.1c0 0-0.9-0.3-2.4-0.8-0.8-0.2-1.7-0.6-2.8-0.8-1.1-0.3-2.3-0.5-3.7-0.9q-2-0.3-4.4-0.7c-1.6-0.1-3.2-0.3-4.9-0.3-1.8 0-3.5 0-5.4 0.2-1.8 0-3.6 0.4-5.4 0.6q-1.3 0.3-2.7 0.6-1.3 0.2-2.6 0.7c-0.8 0.2-1.7 0.4-2.5 0.7q-1.3 0.5-2.5 0.9c-0.8 0.3-1.5 0.6-2.2 1-0.8 0.3-1.5 0.6-2.2 1q-1 0.5-2 1-0.9 0.5-1.8 1.1-0.8 0.5-1.5 1-0.8 0.6-1.4 1c-0.9 0.7-1.5 1.3-2.1 1.8-1.1 1.1-1.7 1.8-1.7 1.8-0.2 0.2-0.6 0.2-0.8 0-0.2-0.2-0.3-0.4-0.1-0.7z"/>
				</g>
				<g id="&lt;Group&gt;">
					<path id="&lt;Path&gt;" class="s6" d="m108.1 188l5.7 18.8c3.4 6.1 11.5 19.4 25.2 20.5 13.7 1.1 21.3-6.5 22.6-10.9 1.3-4.5 1.7-30.2-8.2-41.2-9.9-11-34.7-16.8-45.3 12.8z"/>
					<path id="&lt;Path&gt;" class="s9" d="m135.5 193c12.4-0.7 20.5 10.2 24.7 26.1 0.7-0.9 1.2-1.9 1.4-2.7 1.3-4.5 1.7-30.2-8.2-41.2-9.9-11-34.7-16.8-45.3 12.8l5.7 18.8c0 0 6.6-13 21.7-13.8z"/>
					<g id="&lt;Group&gt;">
						<path id="&lt;Path&gt;" class="s3" d="m142.1 172.1c-8.6 0-15.8 7.8-18.1 18.5-0.5 2.3-0.8 4.8-0.8 7.3 0 14.3 8.5 25.8 18.9 25.8 7.8 0 14.5-6.4 17.4-15.7 0.9-3.1 1.5-6.5 1.5-10.1 0-14.2-8.5-25.8-18.9-25.8z"/>
						<path id="&lt;Path&gt;" class="s10" d="m162 197.9c0-14.2-8.5-25.8-18.9-25.8-8.6 0-15.8 7.8-18.1 18.5 2-0.8 4.2-1.4 6.6-1.6-0.9 2.7-1.4 5.7-1.4 8.9 0 10.9 5.8 19.7 12.9 19.7 6.7 0 12.3-7.8 12.9-17.8 1.7 2.3 3.2 5 4.5 8.2 0.9-3.1 1.5-6.5 1.5-10.1z"/>
						<path id="&lt;Path&gt;" class="s11" d="m161 197.9c0-9.9-4.2-18.6-10.2-22.9q-1.7-1-3.5-1.9c-1.7-0.6-3.4-1-5.2-1-4.5 0-8.6 2.2-11.8 5.8q2-0.5 4.2-0.5c20.4-0.2 25.2 21.7 25.3 27.7q0 1 0 1.9c0.7-2.8 1.2-5.9 1.2-9.1z"/>
						<path id="&lt;Path&gt;" class="s12" d="m149 196.7c-3.7 2.4-5 4.3-6.5 9.9-1.5-5.6-2.8-7.5-6.5-9.9 3.7-2.3 5-4.2 6.5-9.9 1.5 5.7 2.8 7.6 6.5 9.9z"/>
						<path id="&lt;Path&gt;" class="s6" d="m135.7 184.7c0 2.5-1.4 4.6-3.1 4.6-1.7 0-3.1-2.1-3.1-4.6 0-2.6 1.4-4.7 3.1-4.7 1.7 0 3.1 2.1 3.1 4.7z"/>
						<path id="&lt;Path&gt;" class="s6" d="m151 218.2c0 3.1-1.6 5.6-3.7 5.6-2 0-3.7-2.5-3.7-5.6 0-3.2 1.7-5.7 3.7-5.7 2.1 0 3.7 2.5 3.7 5.7z"/>
						<path id="&lt;Path&gt;" class="s6" d="m123.7 215.6c4.8-3.3 11-14.6 9.9-16.2-1-1.7-9.8-1.6-14.6 2.6 0 0-1.4 7.8 4.7 13.6z"/>
					</g>
					<path id="&lt;Path&gt;" class="s5" d="m139.7 163.1c-5.9-0.9-11.4-0.1-16.4 2q-0.9 0.1-1.9 0.1c-1 0-1.9-0.1-2.8-0.3-0.5-0.1-0.9-0.2-1.4-0.3-0.4-0.2-0.9-0.3-1.2-0.5-0.4-0.2-0.8-0.4-1.1-0.6-0.3-0.2-0.7-0.4-0.9-0.6q-0.4-0.4-0.7-0.7-0.3-0.3-0.5-0.6-0.4-0.5-0.4-0.5h-0.1c-0.2-0.4-0.8-0.4-1.1-0.2-0.3 0.2-0.4 0.5-0.4 0.7 0 0 0.1 0.3 0.2 0.8q0.1 0.3 0.2 0.9 0.2 0.5 0.5 1.1c0.1 0.4 0.4 0.8 0.7 1.2 0.3 0.5 0.6 0.9 1 1.4 0.4 0.5 0.9 0.8 1.4 1.3 0.4 0.3 0.8 0.6 1.3 0.9q-1.5 1.2-2.9 2.5-0.4 0.1-0.9 0.1c-0.9 0.2-1.8 0.2-2.8 0.2-0.4-0.1-0.9 0-1.4-0.1-0.4-0.1-0.9-0.2-1.3-0.3-0.4-0.1-0.8-0.2-1.2-0.4-0.3-0.2-0.7-0.3-1-0.5q-0.4-0.3-0.8-0.6-0.3-0.3-0.6-0.5-0.5-0.4-0.5-0.4v-0.1c-0.4-0.2-0.9-0.2-1.2 0-0.3 0.3-0.3 0.6-0.2 0.8 0 0 0.1 0.3 0.3 0.7q0.1 0.4 0.4 0.9 0.3 0.4 0.6 1c0.3 0.4 0.6 0.7 1 1.1 0.3 0.5 0.8 0.8 1.3 1.2 0.4 0.4 1 0.7 1.6 1.1q0.8 0.4 1.8 0.9 0.1 0 0.2 0.1-0.4 0.5-0.8 1.1-0.9 0.4-1.9 0.6c-0.4 0.1-0.9 0.3-1.3 0.3-0.5 0.1-0.9 0.2-1.4 0.1-0.4 0-0.9 0-1.3 0-0.4-0.1-0.8-0.1-1.1-0.2q-0.5-0.2-1-0.3-0.4-0.2-0.7-0.3-0.6-0.3-0.6-0.3h-0.1c-0.4-0.2-0.9 0-1.1 0.3-0.2 0.3-0.1 0.6 0.1 0.8 0 0 0.2 0.2 0.5 0.6q0.3 0.3 0.7 0.7 0.4 0.3 1 0.8c0.3 0.3 0.8 0.5 1.3 0.8 0.5 0.3 1 0.5 1.6 0.7 0.6 0.3 1.2 0.4 1.9 0.6q0.1 0 0.2 0c-1.5 2.8-2.7 5.8-3.6 8.9 3.3 9.6 12.9 14.7 12.9 14.7 0 0-0.9-3.5-2.2-10.3 0.1-6.3 5.6-28.5 27.4-25.7 10 1.2 23.6 18.8 22.5 45.9 11.1-32.9-11-51.9-21.8-53.6z"/>
					<path id="&lt;Path&gt;" class="s5" d="m159 163.1c0 0-26.2-22.2-55.7-11.5 9-6.5 27.5-9.2 41.8-3.8 14.3 5.4 14 9.6 13.9 15.3z"/>
					<path id="&lt;Path&gt;" class="s3" d="m121.9 217.8c0 0 0.4 0.3 1 1 0.3 0.3 0.7 0.6 1.2 1 0.4 0.4 1 0.8 1.5 1.3 0.6 0.5 1.3 0.9 2 1.3 0.8 0.4 1.6 1 2.4 1.3q1.3 0.8 2.7 1.2c0.9 0.4 1.9 0.7 2.9 0.9 1 0.3 2 0.5 3 0.7q1.5 0.1 3 0.3 0.7 0 1.4 0 0.7 0 1.4-0.1c0.8 0 1.7-0.2 2.4-0.3 0.8 0 1.5-0.3 2.1-0.4 0.6-0.1 1.2-0.3 1.6-0.4 0.9-0.3 1.4-0.5 1.4-0.5 0.2 0 0.4 0 0.4 0.2 0.1 0.1 0 0.3-0.1 0.4 0 0-0.5 0.2-1.4 0.6q-0.6 0.3-1.5 0.6c-0.7 0.2-1.3 0.6-2.2 0.7-0.8 0.2-1.6 0.4-2.6 0.5q-1.4 0.2-3 0.2c-1 0-2.1-0.1-3.2-0.2-1.1-0.2-2.2-0.4-3.2-0.6-1.1-0.3-2.1-0.7-3.1-1.1-1-0.4-2-0.8-2.9-1.3-0.9-0.4-1.7-1-2.4-1.5-0.8-0.5-1.5-1-2-1.6-0.6-0.5-1.2-1-1.6-1.5-0.4-0.4-0.8-0.8-1-1.2-0.5-0.7-0.8-1.1-0.8-1.1-0.1-0.2-0.1-0.4 0.1-0.5 0.2-0.1 0.4-0.1 0.5 0.1z"/>
					<path id="&lt;Path&gt;" class="s3" d="m131.1 158q0 0 0.5 0 0.6-0.1 1.6 0 1 0 2.5 0.1c0.9 0.1 2 0.2 3.1 0.4 1.2 0.2 2.4 0.5 3.7 0.8 1.3 0.5 2.7 0.8 4 1.5q1 0.4 2 0.9c0.7 0.3 1.3 0.7 1.9 1.1 1.4 0.7 2.6 1.6 3.8 2.5 1.2 0.9 2.2 2 3.3 3q1.4 1.7 2.7 3.3c0.8 1.1 1.4 2.2 2.1 3.3 0.6 1 1 2.1 1.5 3 0.4 1 0.8 1.9 1 2.7q0.4 1.2 0.6 2.1c0.3 1.2 0.5 1.8 0.5 1.8 0.1 0.3-0.1 0.5-0.3 0.6q-0.4 0-0.6-0.3h-0.1c0 0-0.2-0.6-0.8-1.7q-0.3-0.8-0.9-2c-0.3-0.7-0.8-1.5-1.3-2.4-0.5-0.9-1-1.9-1.6-2.9-0.7-0.9-1.5-1.9-2.2-2.9q-1.3-1.5-2.7-3c-1-0.9-2-1.9-3.1-2.7-1.1-0.8-2.2-1.7-3.4-2.4-0.6-0.3-1.2-0.7-1.8-1q-0.9-0.5-1.8-0.9c-0.6-0.3-1.2-0.6-1.8-0.8-0.6-0.2-1.2-0.5-1.8-0.7-1.2-0.4-2.3-0.8-3.4-1-2.1-0.6-3.9-0.9-5.2-1.1q-1-0.1-1.5-0.2c-0.3 0-0.5 0-0.5 0-0.3 0-0.6-0.3-0.6-0.6 0-0.2 0.2-0.4 0.5-0.5z"/>
				</g>
				<path id="&lt;Path&gt;" class="s3" d="m172.6 251.3c0 0 0.3 0.3 0.7 0.8 0.5 0.5 1.1 1.2 1.7 1.7q0.5 0.5 0.9 0.9 0.5 0.3 0.8 0.6c0.5 0.3 0.8 0.5 0.8 0.5l0.2 0.2c1.1 0.8 1.4 2.3 0.6 3.4-0.8 1.1-2.3 1.3-3.4 0.5q-0.4-0.3-0.6-0.6c0 0-0.3-0.5-0.7-1.2q-0.3-0.5-0.7-1.1-0.3-0.6-0.6-1.3c-0.4-0.9-0.8-1.8-1-2.5-0.2-0.6-0.4-1.1-0.4-1.1-0.1-0.5 0.2-1.1 0.7-1.2 0.4-0.1 0.8 0 1 0.4z"/>
				<path id="&lt;Path&gt;" class="s3" d="m221.7 279.9c-0.2-0.5-0.7-0.8-1.2-0.6h-0.1c0 0-2.5 0.9-5.9 2.3q-0.7 0.3-1.3 0.6c-0.5 0.2-1 0.3-1.5 0.5q-1.6 0.5-3.3 1.1c-1.1 0.3-2.2 0.8-3.4 1-1.2 0.3-2.4 0.6-3.6 1l-1.8 0.5q-0.9 0.1-1.8 0.3c-1.2 0.2-2.4 0.5-3.6 0.7q-1.7 0.4-3.3 0.6c-1 0.2-2 0.5-3 0.6-3.7 0.7-6.2 1.1-6.2 1.1-0.4 0.1-0.7 0.4-0.8 0.8-0.1 0.5 0.2 1 0.7 1.1q0.1 0 0.5 0.1 0.5 0.1 1.3 0.3c1.2 0.2 2.9 0.3 4.8 0.3 1 0 2.1 0 3.2-0.1 1.1-0.1 2.4-0.2 3.6-0.4 1.2-0.2 2.4-0.4 3.7-0.7q1-0.2 1.9-0.4l1.9-0.5c1.3-0.4 2.5-0.8 3.8-1.2 1.2-0.3 2.4-0.9 3.5-1.4q1.7-0.7 3.3-1.4c0.5-0.3 1-0.5 1.5-0.8q0.6-0.4 1.3-0.8c3.4-2 5.5-3.6 5.5-3.6 0.3-0.2 0.4-0.6 0.3-1z"/>
				<path id="&lt;Path&gt;" class="s13" d="m410.9 58c-4-14.7-36.8-40.9-54.4-47.3-19.5-38-39.7-68.2-80.3-73.1-40.6-5-98.6 13-149.9 45.1-29.7 7.6-62.8 43-76.6 112.2-2.1 23.7-5.8 87.2 57.1 97.4l4.1-0.2c0 0-8.6-11-11.2-18.2 4.3 7.4 19.2 14.1 19.2 14.1-9.9-24.2-9.5-78.6 20.7-110.5-15.9 40.4-7.1 92.6 36.8 106.4 5 6.9 16.7 8.9 23.8 8.2-8.1-9.1-31.8-41.4-22.3-95.8 5.2 45.8 24.4 80.3 70.3 87.6-10.2-15.4-22.9-40.6-15.9-79.8 6.2 40.6 15.2 59.7 28.7 70.8h3.6c0 0-16.4-30.4-13.1-77.2 15.5 37 28.5 81.3 87.2 94.6h41.1c0 0 22.8-26 31.1-63.5 8.3-37.5 4.1-56.1 0-70.8z"/>
				<g id="&lt;Group&gt;">
					<path id="&lt;Path&gt;" class="s3" d="m181.9 83.3q0 0-0.3 1.2c-0.1 0.8-0.3 2-0.5 3.5-0.5 3.1-0.9 7.6-1 13-0.1 5.3 0.1 11.6 1 18.3 0.5 3.4 1 6.8 1.8 10.3 0.7 3.4 1.7 6.9 2.7 10.4 1.2 3.4 2.4 6.8 3.8 10 0.8 1.6 1.5 3.3 2.3 4.8 0.7 1.6 1.5 3.1 2.4 4.6 0.8 1.4 1.6 2.9 2.5 4.3 0.9 1.3 1.7 2.7 2.6 4 1.7 2.6 3.6 4.9 5.2 7 1.8 2.1 3.4 4 4.9 5.6 1.6 1.6 2.9 3 4.1 4.1 2.3 2.1 3.6 3.4 3.6 3.4l-1.3 1.5c0 0-1.4-1.2-3.8-3.3-1.3-1.1-2.6-2.5-4.3-4-1.6-1.6-3.3-3.5-5.2-5.6-1.8-2.1-3.8-4.4-5.7-7-0.9-1.2-1.8-2.6-2.8-4-1-1.4-1.9-2.8-2.8-4.3-0.9-1.5-1.8-3.1-2.6-4.7-0.9-1.5-1.7-3.2-2.5-4.8-1.6-3.3-3-6.8-4.3-10.3-1.3-3.5-2.4-7.1-3.3-10.7-1-3.5-1.6-7.1-2.3-10.5-1.1-7-1.6-13.5-1.7-19.1-0.1-5.7 0.2-10.4 0.5-13.7 0.2-1.6 0.4-2.9 0.5-3.8q0.2-1.4 0.2-1.4z"/>
				</g>
				<g id="&lt;Group&gt;">
					<path id="&lt;Path&gt;" class="s3" d="m145.2 73.2c0 0-0.3 0.3-0.7 0.8-0.4 0.4-1.1 1.3-1.9 2.4q-0.6 0.8-1.4 1.9-0.6 1-1.4 2.3-0.7 1.2-1.5 2.7-0.8 1.4-1.6 3c-0.4 1.1-1 2.3-1.5 3.5q-0.7 1.8-1.4 3.7c-0.6 1.3-0.9 2.7-1.4 4.1-0.4 1.4-0.9 2.8-1.2 4.3-0.7 3-1.5 6-2 9.2q-0.3 2.4-0.7 4.8c-0.3 1.6-0.4 3.2-0.5 4.9q-0.3 2.4-0.5 4.8-0.1 2.5-0.2 4.9 0 2.4-0.1 4.8c-0.1 1.6 0.1 3.1 0.1 4.7 0.1 3 0.1 6 0.3 8.8q0.4 4.2 0.7 7.9c0.2 2.5 0.5 4.7 0.8 6.7q0.5 3 0.8 5.2c0.4 2.8 0.6 4.4 0.6 4.4l-1.9 0.4c0 0-0.3-1.6-0.8-4.5q-0.4-2.2-0.9-5.2c-0.3-1.9-0.7-4.2-1-6.7q-0.4-3.7-0.9-8c-0.3-2.8-0.4-5.8-0.6-9 0-1.5-0.2-3.1-0.2-4.7q0-2.4 0-4.9 0.1-2.4 0.1-4.9 0.2-2.5 0.3-5c0.2-1.7 0.2-3.4 0.4-5q0.4-2.5 0.7-5c0.3-3.3 1.2-6.4 1.8-9.5 0.3-1.6 0.8-3 1.1-4.5 0.5-1.5 0.8-2.9 1.3-4.3q0.8-2 1.4-4c0.5-1.2 1.1-2.5 1.6-3.6q0.7-1.8 1.5-3.3c0.6-1.1 1-2.1 1.6-3q0.8-1.3 1.5-2.5 0.7-1.1 1.4-2.1c0.8-1.2 1.6-2.2 2.2-2.8 0.6-0.7 0.8-1 0.8-1z"/>
				</g>
				<path id="&lt;Path&gt;" class="s14" d="m359 143.5c0.4-16.2-11.9-43.4-19.3-61.5q0 0 0 0.3c-0.4-1.6-0.8-3.1-1.2-4.6-1.1-3.7-2.2-7.1-3.2-10.2-1-3.2-2-6.1-2.9-8.6-1-2.5-1.8-4.7-2.5-6.5-0.7-1.8-1.3-3.2-1.7-4.2-0.4-0.9-0.6-1.4-0.6-1.4-0.2-0.4-0.6-0.6-1-0.4-0.4 0.1-0.6 0.6-0.5 1 0 0 0.7 2 1.9 5.7q0.9 2.7 2.1 6.6c0.7 2.6 1.6 5.4 2.5 8.6q1.3 4.8 2.7 10.2 0.7 2.8 1.4 5.7 0.7 2.8 1.4 5.8c0.9 4 1.8 8.2 2.7 12.4 0.7 4.2 1.6 8.5 2.3 12.8q0.5 3.3 1 6.5c0.4 2.2 0.6 4.3 0.9 6.5q0.4 3.2 0.8 6.3 0.3 3.1 0.6 6.2 0.3 3.1 0.6 6 0.1 3 0.3 5.8c0.2 3.7 0.4 7.3 0.4 10.6 0 3.3 0.1 6.3 0.1 8.9-0.1 2.7-0.2 5-0.2 6.9-0.1 3.9-0.2 6.1-0.2 6.1 0 0.4 0.3 0.7 0.6 0.7 0.4 0 0.7-0.2 0.8-0.6q0 0 0-0.1h3.7c3.8-6.1 6.2-25.2 6.5-41.5z"/>
				<g id="&lt;Group&gt;">
					<path id="&lt;Path&gt;" class="s14" d="m96.7 167.6c0 0-0.8-1.2-2.3-3.1-0.7-0.9-1.4-2.2-2.3-3.7q-0.6-1-1.3-2.2-0.6-1.3-1.3-2.7c-0.4-0.9-1-1.8-1.4-2.9q-0.6-1.5-1.2-3.2c-1-2.1-1.5-4.6-2.4-7q-0.4-1.8-0.9-3.8-0.6-1.9-0.9-3.9-0.4-2-0.8-4-0.3-2-0.6-4c-0.4-2.7-0.6-5.5-0.8-8.2-0.1-2.7-0.3-5.3-0.2-7.9 0-2.6 0.1-5 0.3-7.4 0.1-2.3 0.4-4.5 0.6-6.6q0.3-1.5 0.6-2.9c0.1-0.9 0.2-1.8 0.5-2.6 0.4-1.6 0.6-3 1-4.1 0.8-2.4 1.2-3.7 1.2-3.7 0.1-0.4 0-0.8-0.4-0.9-0.4-0.2-0.8-0.1-1 0.3 0 0-0.6 1.3-1.7 3.5-0.5 1.1-0.9 2.6-1.5 4.3-0.6 1.6-1 3.5-1.5 5.6-0.4 2.1-0.8 4.4-1.1 6.8q-0.2 1.8-0.4 3.7c-0.1 1.3-0.1 2.6-0.2 3.9-0.1 2.7 0 5.5 0.1 8.2 0 1.4 0.2 2.8 0.3 4.3 0.1 1.4 0.2 2.8 0.5 4.2q0.3 2.1 0.6 4.2 0.5 2.1 0.9 4.1c0.3 1.4 0.6 2.7 1 4q0.6 2 1.1 3.9 0.7 1.9 1.4 3.7 0.3 0.9 0.7 1.8 0.4 0.9 0.7 1.7 0.8 1.7 1.5 3.2c0.5 1.1 1.1 2 1.6 3q0.8 1.3 1.6 2.6 0.8 1.2 1.6 2.3c1 1.4 1.8 2.6 2.7 3.5 1.7 1.8 2.6 2.9 2.6 2.9 0.3 0.2 0.7 0.3 0.9 0.1 0.3-0.2 0.4-0.7 0.2-1z"/>
					<path id="&lt;Path&gt;" class="s14" d="m345.6 184.6c0 0-1.1-1.7-3.1-4.7-0.9-1.5-2.2-3.3-3.3-5.6-1.2-2.2-2.6-4.6-4-7.3-1.3-2.8-2.8-5.8-4.3-9q-2.1-4.9-4.3-10.2c-1.4-3.6-3-7.2-4.3-11.1-1.4-3.8-2.8-7.6-4.1-11.5q-0.9-3-1.9-5.9-1-2.9-1.9-5.8c-1.2-3.8-2.4-7.7-3.4-11.4-1.1-3.7-2.2-7.3-3.1-10.7q-1.5-5.1-2.7-9.6c-0.8-3-1.5-5.7-2.2-8.1q-0.9-3.7-1.6-6.3c-0.9-3.5-1.4-5.5-1.4-5.5-0.1-0.4-0.4-0.6-0.8-0.6-0.5 0.1-0.8 0.5-0.7 0.9 0 0 0.3 2 0.9 5.6 0.7 3.6 1.6 8.7 3 14.7q1.1 4.6 2.3 9.8c0.9 3.4 1.7 7.1 2.8 10.8 1.1 3.7 2.2 7.6 3.4 11.5 1.2 3.9 2.4 7.9 3.8 11.8 1.3 3.9 2.8 7.8 4.2 11.6 1.4 3.8 3.1 7.5 4.5 11.1 1.5 3.6 3.3 7 4.8 10.2 1.6 3.2 3.2 6.2 4.7 8.9 1.4 2.8 3.1 5.1 4.4 7.3 1.3 2.2 2.7 3.9 3.7 5.4 2.2 2.9 3.5 4.5 3.5 4.5 0.2 0.3 0.6 0.4 0.9 0.2 0.3-0.2 0.4-0.6 0.2-0.9z"/>
				</g>
				<g id="&lt;Group&gt;">
					<path id="&lt;Path&gt;" class="s6" d="m326.8 263.5c5.6-1.9 16.7 1.4 23-5.4 6.3-6.8 6.3-8.1 11.6-11.4 5.2-3.3 22.6-16 23.1-30.2 0.4-14.3-8.7-40.9-17.4-41.5-8.8-0.7-20.5 5-27.6 12.3z"/>
					<path id="&lt;Path&gt;" fill-rule="evenodd" class="s15" d="m336.2 190.5c7.1-7.3 22.1-16.2 30.9-15.5 8.7 0.6 17.8 27.2 17.4 41.5-0.5 14.2-17.9 26.9-23.1 30.2-5.3 3.3-5.3 4.6-11.6 11.4-6.3 6.8-17 2.6-22.5 4.5l-2 4.2"/>
				</g>
				<g id="&lt;Group&gt;">
					<path id="&lt;Path&gt;" class="s3" d="m367 224.4q0 0-0.7 0.9c-0.4 0.6-1 1.4-1.7 2.4-0.8 1-1.8 2.3-3 3.5-0.5 0.7-1.2 1.2-1.9 1.9q-0.5 0.3-1 0.7l-0.3 0.2-0.2 0.1-0.8 0.3c-0.6 0.3-0.8 0.2-1.1 0.3-0.4 0-0.8 0-1.3 0q-0.9-0.2-2.1-0.6c2.5-1.2 4.8-2.8 5.7-4.2 1.3-1.7 3.6-3.4 2.9-9-0.7-5.6-5.4-10.4-7-11.7-1.6-1.3-2.2-2.1-1.3-3.1 0.5-0.6 1-0.9 1.3-1 0 0 0 0 0.1 0h0.1l0.8 0.1c0.3 0 0.4 0.1 0.5 0.1q0.2 0.1 0.5 0.1c0.3 0.2 0.7 0.4 1 0.6q0.5 0.3 1 0.7c1.2 1 2.2 2.1 3 3.1q1.2 1.5 1.8 2.4 0.7 0.8 0.7 0.8v0.1c0.3 0.3 0.7 0.4 1.1 0.3 0.5-0.2 0.8-0.8 0.6-1.3q0 0-0.4-1c-0.3-0.7-0.7-1.7-1.4-2.9-0.7-1.2-1.6-2.7-3-4.2q-0.7-0.5-1.3-1.1-0.8-0.5-1.6-0.9c-0.6-0.3-1.5-0.6-2.1-0.7l-0.8-0.1h-0.2c-0.4-0.1-0.2 0-0.3 0h-0.2c-0.3 0-0.6 0-0.8 0.1-1.9 0.5-2.9 1.6-3.9 2.6q-1.4 1.6-2.4 3.4c-0.4 0.6-0.7 1.2-1 1.9l-0.5 1-0.4 1.2c-0.4 1.7-0.4 3.6 0 5.2 0.3 1.7 1 3.1 1.8 4.5l0.6 1.1 0.6 0.9 0.3 0.5c0 0.1 0 0.1 0.1 0.2 0 0.1 0 0.1 0 0.1 0 0 0.1 0.1 0 0.1 0.2 0-0.6 1-1.7 1.6-1.1 0.8-2.4 1.4-3.7 2.1l-1.1 0.6-0.5 0.3-0.3 0.1c-0.1 0.1-0.2 0.2-0.3 0.2q-1.3 1.1-2.1 2.1c-1.1 1.4-1.9 2.9-2.4 4.6-0.3 0.9-0.5 1.8-0.5 2.9 0 0.3 0.1 0.6 0.1 0.9 0 0.4 0.4 1.1 0.6 1.4l0.2 0.2v0.1c-0.2-0.2 0.4 0.3 0.3 0.3h0.1q0.2 0.2 0.4 0.3c0.6 0.3 1 0.3 1.4 0.4 1.5 0 2.2-0.4 3-0.6 0.8-0.3 1.5-0.7 2.1-1q1.9-1 3.7-1.9l0.9-0.4c0.3-0.2 0.4-0.2 0.7-0.3 0.4-0.2 0.4-0.1 0.6-0.2 0.1 0 0.3 0 0.5 0 0.9 0.1 2.1 0.6 3.7 0.8 0.7 0.1 1.5 0.1 2.3 0 0.8-0.1 1.8-0.3 2.2-0.6l0.7-0.3 0.2-0.1h0.1l0.2-0.1 0.1-0.1 0.4-0.3q0.8-0.6 1.5-1.1c0.8-0.8 1.6-1.6 2.1-2.4q0.9-1.2 1.6-2.3 0.6-1 1.1-2c0.6-1.2 1-2.2 1.3-2.9 0.3-0.7 0.4-1 0.4-1 0.1-0.4 0-0.8-0.4-1.1-0.4-0.3-1-0.2-1.3 0.2z"/>
					<path id="&lt;Path&gt;" class="s3" d="m374.4 200.9c-0.2-1-0.4-2-0.8-3.1q-0.3-0.8-0.6-1.7c-0.2-0.5-0.5-1.1-0.8-1.6-0.3-0.6-0.6-1.2-1-1.7-0.4-0.6-0.8-1.2-1.2-1.7-0.6-0.5-1-1-1.6-1.5-0.6-0.4-1.3-1-1.8-1.3l-0.8-0.4c-0.6-0.3-0.9-0.4-1.3-0.5-0.4-0.2-0.9-0.2-1.3-0.2-0.5-0.1-0.9-0.1-1.4 0-1.9 0.3-3.5 1.5-4.3 3.1-0.2 0.4-0.4 1-0.5 1.3l-0.2 0.9v0.4 0.3 0.5c0 0.4 0 0.8 0.1 1.1 0.3 1.4 0.8 2.5 1.3 3.4 0.6 0.9 1.2 1.6 1.7 2.2 0.6 0.7 1.1 1.1 1.5 1.5 0.9 0.8 1.4 1.1 1.4 1.1l0.1 0.1c0.3 0.2 0.7 0.2 1 0 0.5-0.3 0.6-0.9 0.3-1.3 0 0-0.3-0.6-0.8-1.5q-0.4-0.7-1-1.7-0.1-0.2-0.2-0.4c-0.8-1.7 0.1-3.5 2.1-3.4 2 0 5.3 2 6.4 4.5q0.6 1.2 0.9 2.4c0.3 0.8 0.6 1.6 0.8 2.3q0.2 1.1 0.4 1.9c0.3 1 0.4 1.6 0.4 1.6l0.1 0.1c0.1 0.5 0.5 0.8 0.9 0.7 0.6 0 1-0.4 0.9-1 0 0 0-0.6-0.1-1.7q-0.1-0.9-0.2-2.1c0-0.7-0.2-1.6-0.4-2.6z"/>
				</g>
				<path id="&lt;Path&gt;" class="s5" d="m338.7 192.1c-9.3 6-14.3 32.6-4.1 44.8-14.9-4.8-24.1-22.2-18.9-38.2 5.3-16 17-16.6 23.8-11.4z"/>
				<path id="&lt;Path&gt;" class="s16" d="m97.8 18.7c5.2-3.6 20.1 2.7 20.4 4.4 0.2 1.6-29 48.4-30.4 51.5-1.3 3.2-17.6 4.1-18.6 1.2-1-3 5.9-41.2 28.6-57.1z"/>
				<path id="&lt;Path&gt;" class="s16" d="m120.6 38.1c-3.5 1.4-16.5 32-16.6 35.3-0.2 3.3 5.6 3.9 9.8 2.9 4.1-1 22.3-25 24.5-28.6 2.3-3.7 3.1-6.6 1.2-8.2-2-1.8-14.1-3.1-18.9-1.4z"/>
				<path id="&lt;Path&gt;" class="s16" d="m206.1 30.4c0 0-6.1 39.7-6.1 52.3 0 1.6-0.4 3.2 1.5 3.3 1.9 0.2 9.3 0.2 11.9 0 2.6-0.1 3.8-1.4 3.9-3.9 0.1-2.5 4.9-47.4 5-49.5 0.1-2.2 1.3-3.8-1.4-4.4-2.8-0.6-8.6-0.5-10.6-0.6-2-0.1-3.9 0.9-4.2 2.8z"/>
				<path id="&lt;Path&gt;" class="s16" d="m233.1 38.9c-2.3 0.2-2.8 1-2.8 2.7 0 1.7-0.3 22 0 24.2 0.2 2.3 1.1 4.2 4.2 3.8 3.1-0.3 9.1-0.7 11.3-1 2.3-0.4 3.9-2.2 3.5-5.6-0.5-3.5-3.4-20.3-3.7-22.1-0.4-1.8-1.7-2.7-3.3-2.7-1.7 0-9.2 0.7-9.2 0.7z"/>
				<path id="&lt;Path&gt;" class="s16" d="m293.4 32.7c-1.5 0.8-1.9 3.1-1 4.3 0.8 1.2 9.2 19.8 10.1 21.6 0.8 1.8 2.9 2.1 5.3 1.5 2.4-0.6 7.6-1.7 9.4-2.6 1.8-0.8 3.3-3.1 2.1-5.4-1.1-2.4-8.7-18-10.3-19.4-1.5-1.4-2.7-1.9-5.3-1.9-2.6 0-10.3 1.9-10.3 1.9z"/>
				<g id="&lt;Group&gt;">
					<g id="&lt;Group&gt;">
						<path id="&lt;Path&gt;" class="s0" d="m395.7 729c21.9 1.5 52.3-12.1 93.5-40.9 41.1-28.8 64-62.4 59.8-65.9-4.2-3.4-31.3-2.2-31.3-2.2h-122z"/>
						<path id="&lt;Path&gt;" class="s7" d="m517.7 620h-122v104.9c21.6 0 51-13.6 90-40.9 35.7-25 57.7-53.7 60.1-63-8.4-1.9-28.1-1-28.1-1z"/>
						<g id="&lt;Group&gt;">
							<path id="&lt;Path&gt;" class="s6" d="m390 684.1c15.2 20.2 38.4 39 43.4 49.3 7 14.3 17.1 36.1 29.2 53.2 12 17.1 25.6 32.5 25.6 32.5h100.1c0 0-45.3-85.7-53.2-99-7.9-13.3-18.4-26.3-25.3-37.7-7-11.4-28.2-55.1-28.2-55.1h-91.6z"/>
							<path id="&lt;Path&gt;" class="s7" d="m504.6 673.1c-9-16.9-23-45.8-23-45.8h-91.6v56.8c12.2 16.2 29.6 31.6 38.6 42.3 21-19 48.7-40.2 76-53.3z"/>
							<path id="&lt;Path&gt;" fill-rule="evenodd" class="s17" d="m390 684.1c15.2 20.2 38.4 39 43.4 49.3 7 14.3 17.1 36.1 29.2 53.2 12 17.1 25.6 32.5 25.6 32.5h100.1c0 0-45.3-85.7-53.2-99-7.9-13.3-18.4-26.3-25.3-37.7-7-11.4-28.2-55.1-28.2-55.1h-91.6z"/>
						</g>
					</g>
					<g id="&lt;Group&gt;">
						<path id="&lt;Path&gt;" class="s6" d="m297.6 387.7l16.6 2.8c0 0 77.5 34.1 81 36.2 3.6 2.1 45.2 64.1 69.9 115.4 35.1 36.1 73.8 72.2 83.9 80.1-11.7 1.9-70.6 21.6-106.7 54.2-36.1 32.6-46.6 52.6-46.6 52.6l-19.6-24.1c-18.7-18.4-33.9-34.5-33.9-34.5l-2.2 21.5c10.4 14.9 11.4 20 9.8 24.4-1.6 4.4-18.4 12.7-18.4 12.7-49.1 5.7-174.8 7.9-268.3-2.9-9.2-6-10.7-13-11.1-14.9-0.3-1.9 8.9-22.5 8.9-22.5 0 0-23.1-73.5-23.1-115.9 25.3-71.9 59.9-132.1 59.9-132.1 6.3-29.1 22.6-97.3 25.5-96.8 3 0.5 51.6 9.1 51.6 9.1l28.7 40.2z"/>
						<path id="&lt;Path&gt;" class="s7" d="m52 711.2c0.4 1.9 1.9 8.9 11.1 14.9 93.5 10.8 219.2 8.6 268.3 2.9 0 0 16.8-8.3 18.4-12.7 1.6-4.4 0.6-9.5-9.8-24.4l1.6-15.7q-1.5-3.4-2.8-6.8c-18.9-48.7-41-56.7-60.9-55.1-19.9 1.5-88.8 16.1-123.4 16.1-34.5-0.1-50.9-22.8-77.8-26.7-26.8-3.9-29.2 17.7-28.6 31.7l-0.9 2.3c6.4 27.8 13.7 51 13.7 51 0 0-9.2 20.6-8.9 22.5z"/>
						<path id="&lt;Path&gt;" fill-rule="evenodd" class="s15" d="m297.6 387.7l16.6 2.8c0 0 77.5 34.1 81 36.2 3.6 2.1 45.2 64.1 69.9 115.4 35.1 36.1 73.8 72.2 83.9 80.1-11.7 1.9-70.6 21.6-106.7 54.2-36.1 32.6-46.6 52.6-46.6 52.6l-19.6-24.1c-18.7-18.4-33.9-34.5-33.9-34.5l-2.2 21.5c10.4 14.9 11.4 20 9.8 24.4-1.6 4.4-18.4 12.7-18.4 12.7-49.1 5.7-174.8 7.9-268.3-2.9-9.2-6-10.7-13-11.1-14.9-0.3-1.9 8.9-22.5 8.9-22.5 0 0-23.1-73.5-23.1-115.9 25.3-71.9 59.9-132.1 59.9-132.1 6.3-29.1 22.6-97.3 25.5-96.8 3 0.5 51.6 9.1 51.6 9.1l28.7 40.2z"/>
					</g>
					<path id="&lt;Path&gt;" class="s3" d="m176.4 510.1c-0.5 5.8-5.4 10.4-10.8 10.4-5.3 0-9.2-4.6-8.6-10.4 0.6-5.8 5.4-10.5 10.8-10.5 5.4 0 9.2 4.7 8.6 10.5z"/>
					<path id="&lt;Path&gt;" class="s3" d="m167.3 640.5c0.2 5.7-4 10.4-9.4 10.4-5.4 0-9.9-4.7-10.1-10.4-0.2-5.8 4-10.5 9.4-10.5 5.4 0 9.9 4.7 10.1 10.5z"/>
					<path id="&lt;Compound Path&gt;" fill-rule="evenodd" class="s3" d="m221.9 720.9c-1.3 0.4-2.7 0.8-4.1 1.1q-4.2 0.9-8.4 2.1c-5.7 1.4-11.3 3.1-16.4 5.1-2.6 0.9-5 1.9-7.3 2.9q-1.4 0.6-2.8 1.3-2.8-0.1-5.6-0.1 0.4-0.2 0.8-0.5c3.9-2 8.5-4.2 13.5-6.6 5-2.3 10.3-4.8 15.7-7.1 2.7-1.1 5.4-2.3 8.1-3.3 2.7-1.1 5.3-2.1 7.9-3 2.6-1 5.2-1.8 7.6-2.6 2.4-0.8 4.7-1.4 6.8-2 2.2-0.6 4.2-1 6-1.4 1.7-0.3 3.3-0.7 4.6-0.8 2.6-0.3 4.1-0.5 4.1-0.5 0.9-0.1 1.7 0.6 1.8 1.4 0.1 0.6-0.1 1.1-0.5 1.4l-1 1c0 0-0.4 0.3-1 0.9q-0.4 0.3-1.1 0.8-0.6 0.5-1.5 1c-1.1 0.6-2.4 1.5-4 2.2-1.5 0.8-3.3 1.4-5.2 2.1-2 0.6-4.2 1-6.6 1.7-2.3 0.7-4.8 1.2-7.4 2-1.3 0.3-2.6 0.6-4 0.9zm114.4-178c-16.5 64.8 7.4 126.1 7.7 126.8l2.2 4.9c-2.6-2.7-4-4.2-4-4.2l-0.4 3.7-1.3-2.9q-0.2-0.2-0.7-1.2c-0.5-0.8-1.2-2.1-2.2-3.7-1-1.6-2.2-3.5-3.5-5.7-1.2-2.3-2.7-4.8-4.3-7.6-1.6-2.8-3.2-5.9-4.9-9.1-1.7-3.3-3.5-6.7-5.3-10.2-1.9-3.6-3.6-7.4-5.5-11.2-0.9-1.8-1.7-3.8-2.7-5.7-0.9-2-2-3.8-3.1-5.7-2.3-3.8-4.9-7.4-6.9-11.3-2-3.7-3.3-7.7-4-11.7-0.9-3.9-1.5-7.8-2-11.5-0.4-3.7-0.7-7.2-0.8-10.4-0.2-3.3 0-6.3 0-9 0.2-2.7 0.4-5.1 0.6-7 0.3-2 0.5-3.5 0.7-4.6 0.2-1 0.4-1.6 0.4-1.6l0.3-0.9c0.3-0.9 1.2-1.5 2.2-1.2 0.7 0.2 1.1 0.8 1.2 1.4 0 0 1.5 8.2 4.5 20.5 1.4 6.1 3.2 13.2 5.4 20.8 1 3.8 2.2 7.7 3.4 11.6 1.2 4 2.4 8 3.8 12 1.3 3.9 2.6 7.9 4.1 11.8 1.4 3.8 2.8 7.7 4.3 11.3 1.5 3.6 2.8 7.2 4.4 10.4 1.5 3.3 2.8 6.4 4.2 9.2q0.2 0.5 0.4 1c-6-23.7-13.1-66-1.9-110 17.7-69.4 34.4-105.1 54.2-115.9 1.2-0.6 2.4-1.2 3.6-1.6 2.6 1.2 4.4 2 4.8 2.3 0.1 0 0.2 0.1 0.2 0.1q-3.4 0.7-6.8 2.6c-24.1 13-40.6 67.5-52.3 113.5zm-164.8 190.2q-3.9-0.1-7.8-0.2 1.2-1 2.5-2.1c2.3-1.8 4.8-3.9 7.6-6.2 2.8-2.3 5.8-4.7 9.1-7.3 3.3-2.5 6.7-5.2 10.2-7.9 3.6-2.8 7.4-5.5 11.2-8.3 3.8-2.8 7.6-5.8 11.5-8.5 4-2.7 7.9-5.4 11.8-8.1 3.9-2.7 7.7-5.3 11.6-7.7 3.8-2.4 7.5-4.7 11-6.9 3.5-2.1 6.7-4.4 9.9-6 12.6-7 21-11.7 21-11.7 0.9-0.5 2.1-0.2 2.5 0.7 0.5 0.8 0.3 1.6-0.3 2.2l-0.4 0.5c0 0-0.5 0.4-1.3 1.3-0.8 0.8-2.1 1.9-3.7 3.2q-1.3 1-2.8 2.2-1.5 1-3.3 2.3-1.9 1.2-3.9 2.5-2.1 1.2-4.4 2.5c-3.2 1.5-6.4 3.7-10.1 5.6-3.6 1.9-7.5 3.8-11.5 5.8-4.1 1.9-8.2 4-12.3 6.4-2.1 1.1-4.2 2.3-6.2 3.6-2 1.2-4.1 2.4-6 3.8-4.1 2.6-7.8 5.6-11.5 8.5-3.8 2.8-7.5 5.6-10.9 8.5-3.4 2.9-6.7 5.7-9.8 8.4q-2.3 2.1-4.5 4c-1.4 1.3-2.7 2.7-4 3.9-1.9 1.8-3.6 3.4-5.2 5zm206.6-25.7l-2-2.5q-0.3-0.3-0.6-0.6c14.5-23.1 37.7-47.7 63.7-67.3 19.7-14.9 48.4-32.5 81.3-40.4q1.7 1.6 3.4 3.1c-61.9 14.1-120.3 66.6-145.8 107.7zm-5.2-177.9c0.3-0.5 0.9-0.7 1.4-0.5 0 0 1.3 0.4 3.6 1 1.1 0.3 2.4 0.7 4 1.1q2.4 0.6 5.3 1.5c1.9 0.5 4.1 1 6.3 1.6q1.6 0.4 3.4 0.8 1.7 0.5 3.6 0.9c2.4 0.5 4.9 1.1 7.5 1.7 2.5 0.7 5.2 1 7.8 1.6q3.9 0.7 7.8 1.5c2.6 0.5 5.1 0.8 7.6 1.2 2.5 0.4 4.9 0.8 7.1 1.2 2.3 0.4 4.4 0.6 6.4 0.8 8 0.9 13.4 1.8 13.4 1.8 0.6 0.1 1 0.6 0.9 1.1-0.1 0.5-0.5 0.9-1 0.9 0 0-5.4 0.3-13.6 0.2-2 0-4.2 0.1-6.6-0.2-2.3-0.2-4.7-0.4-7.3-0.7-2.5-0.3-5.2-0.4-7.8-0.9q-4-0.7-8-1.4c-2.7-0.4-5.4-0.9-8-1.6-2.6-0.7-5.1-1.4-7.6-2-2.5-0.6-4.8-1.5-7-2.2-2.2-0.8-4.4-1.4-6.2-2.2q-2.9-1.1-5.2-2.1c-1.6-0.6-2.9-1.3-4-1.8-1-0.5-1.9-0.9-2.4-1.2q-0.9-0.5-0.9-0.5c-0.6-0.3-0.8-1-0.5-1.6zm-220.9 203q-1.9-0.1-3.9-0.1c-8.3-53.8-15-142.9-9.3-195.9v-0.2c11.5-53.6 47.3-118.1 63.3-145.1l1.4 2 1.9-0.1c-15.8 26.7-51.4 90.8-62.9 143.9-5.7 53 1.2 142.1 9.5 195.5zm306.9-175.3c0 0.4-0.3 0.8-0.7 0.9 0 0-3.2 1.1-8.1 2.3-1.3 0.4-2.6 0.6-4.1 0.8-1.4 0.3-2.9 0.5-4.5 0.7-3.1 0.6-6.5 0.7-9.9 1-1.7 0.1-3.4 0.1-5 0.1q-2.5 0.1-4.9 0-2.4 0-4.6-0.2-2.1-0.1-4-0.3c-2.6-0.3-4.7-0.6-6.1-0.9-1.5-0.2-2.3-0.5-2.3-0.5h-0.1c-0.6-0.1-1-0.8-0.8-1.4 0.1-0.5 0.5-0.8 1-0.9 0 0 0.9-0.1 2.3-0.2 1.5-0.2 3.5-0.3 6-0.5 2.5-0.1 5.4-0.4 8.5-0.5 1.6 0 3.2-0.2 4.8-0.2q2.5-0.1 4.9-0.2 2.5-0.1 5-0.2c1.6 0 3.2-0.1 4.7-0.2 1.6-0.1 3.1-0.1 4.5-0.2 1.4-0.1 2.8 0 4-0.2 5-0.3 8.3-0.3 8.3-0.3h0.1c0.6 0 1 0.5 1 1.1zm-319.5 174.8q-5.6-0.3-11.2-0.6-1.2-1.6-2.5-3.4-2.3-3.5-4.9-7.5c-1.8-2.6-3.5-5.5-5.2-8.5-1.8-3-3.6-6.1-5.4-9.2q-2.5-4.9-5-9.8-1.3-2.5-2.5-4.9c-0.9-1.6-1.7-3.3-2.4-4.9q-2.2-5-4.3-9.8-2.1-4.8-4-9.1c-1.2-3-2.1-5.8-3.1-8.4-3.8-10.3-6.3-17.2-6.3-17.2-0.4-1 0.1-2.1 1.1-2.5 0.9-0.3 2 0.1 2.4 1.1l0.1 0.2c0 0 2.8 6.7 6.9 16.8 1.1 2.5 2.2 5.3 3.5 8.1q2 4.3 4.3 8.9c1.5 3.1 3 6.2 4.7 9.4 0.8 1.6 1.7 3.1 2.6 4.7q1.4 2.3 2.8 4.6c1.8 3.2 3.8 6.2 5.6 9.3q3 4.4 5.9 8.6c1.9 2.7 3.6 5.5 5.5 7.9 1.8 2.5 3.4 4.9 4.9 7.1q2.4 3.2 4.3 5.9c0.8 1.2 1.6 2.2 2.2 3.2zm-20.9-1.1q-2.3-0.2-4.5-0.3-0.2-0.1-0.3-0.2-1.9-1.4-3.7-2.7-1.9-1.4-3.7-2.8c-1.1-1-2.3-2-3.3-3q-1.6-1.5-2.9-3c-0.9-0.9-1.6-2-2.3-2.9-0.5-1-1.1-1.9-1.4-2.8q-0.6-1.4-0.9-2.4c-0.2-0.7-0.2-1.3-0.3-1.7q-0.1-0.6-0.1-0.6v-0.9c-0.1-1 0.6-1.8 1.6-1.9 0.6-0.1 1.2 0.2 1.6 0.6 0 0 0.4 0.6 1.2 1.6 0.8 1 1.9 2.5 3.2 4.3 1.3 1.8 2.9 3.8 4.6 6 0.8 1.1 1.7 2.3 2.6 3.4q1.4 1.6 2.9 3.3c1 1.1 1.9 2.3 3 3.3q1.4 1.4 2.7 2.7zm205.2-336.2l-75.2 55.6 1.5-10.5 64.2-49.3z"/>
					<path id="&lt;Path&gt;" class="s0" d="m203.1 389.4c0 0 53-19.7 92.9-36.8l-0.1-4.8c0 0 3.1 1.7 3.8 3.1 0.8 1.4 15.6 36.1 15.7 36.8 0.2 0.6-1.2 2.8-1.2 2.8 0 0-67.8 61.9-71.3 64.8-3.5 2.8-7 4.3-9.2 0.8-2.2-3.5-34.7-58.5-34.7-58.5 0 0-41.6 9.7-46.4 11.1-4.7 1.5-8.1-0.6-6-5 2.1-4.5 22.6-48 23.4-49.6 0.8-1.6 1.4-3 4.8-4.6 3.5-1.6 24.7-11.1 25.8-11.7 1.1-0.7 2.2-1.3 2.2-1.3z"/>
				</g>
				<g id="&lt;Group&gt;">
				</g>
				<g id="&lt;Group&gt;">
				</g>
			</g>
		</g>
	</g>
</svg>