<svg width="1247.05" height="246.402" viewBox="0 0 1247.05 246.402" xmlns="http://www.w3.org/2000/svg"><g id="svgGroup" stroke-linecap="round" fill-rule="evenodd" font-size="9pt" stroke="#000" stroke-width="5" fill="none" style="stroke:#000;stroke-width:5;fill:none"><path d="M 239.4 243.601 L 197.05 243.601 L 197.05 142.101 L 159.25 142.101 L 159.25 243.601 L 116.9 243.601 L 116.9 2.801 L 159.25 2.801 L 159.25 102.201 L 197.05 102.201 L 197.05 2.801 L 239.4 2.801 L 239.4 243.601 Z M 629.65 243.601 L 585.55 243.601 L 557.55 141.751 L 545.65 141.751 L 545.65 243.601 L 503.3 243.601 L 503.3 2.801 L 545.65 2.801 L 545.65 101.501 L 557.55 101.501 L 586.25 2.801 L 629.3 2.801 L 590.45 119.001 L 629.65 243.601 Z M 925.75 2.801 L 967.75 2.801 L 967.75 137.551 Q 967.75 173.701 965.96 194.434 A 189.654 189.654 0 0 1 964.6 206.326 Q 961.45 227.151 948.85 236.776 Q 936.25 246.401 906.85 246.401 A 142.076 142.076 0 0 1 892.417 245.722 Q 874.103 243.845 864.85 236.776 A 37.006 37.006 0 0 1 853.78 222.652 Q 851.322 217.363 849.919 210.824 A 74.612 74.612 0 0 1 849.1 206.326 Q 846.725 190.626 846.141 159.509 A 1174.216 1174.216 0 0 1 845.95 137.551 L 845.95 2.801 L 887.95 2.801 L 887.95 154.001 A 1094.251 1094.251 0 0 0 888.012 166.08 Q 888.176 180.907 888.78 188.779 A 101.585 101.585 0 0 0 889 191.276 A 50.906 50.906 0 0 0 889.663 195.867 Q 890.538 200.347 892.121 202.94 A 8.913 8.913 0 0 0 893.725 204.926 A 10.115 10.115 0 0 0 896.846 206.785 Q 899.814 207.952 904.395 208.19 A 47.345 47.345 0 0 0 906.85 208.251 A 42.426 42.426 0 0 0 911.214 208.043 Q 915.618 207.586 918.275 206.123 A 8.973 8.973 0 0 0 919.975 204.926 A 9.738 9.738 0 0 0 922.016 202.182 Q 923.442 199.455 924.213 195.026 A 52.243 52.243 0 0 0 924.7 191.451 A 127.73 127.73 0 0 0 925.147 185.529 Q 925.609 177.23 925.717 163.158 A 1193.996 1193.996 0 0 0 925.75 154.001 L 925.75 2.801 Z M 365.4 243.601 L 269.5 243.601 L 269.5 2.801 L 365.4 2.801 L 365.4 40.951 L 311.85 40.951 L 311.85 102.901 L 358.75 102.901 L 358.75 141.051 L 311.85 141.051 L 311.85 205.451 L 365.4 205.451 L 365.4 243.601 Z M 1063.65 243.601 L 1021.3 243.601 L 1021.3 41.651 L 983.85 41.651 L 983.85 2.801 L 1101.1 2.801 L 1101.1 41.651 L 1063.65 41.651 L 1063.65 243.601 Z M 93.8 5.251 L 93.8 40.601 A 175.286 175.286 0 0 0 82.651 38.948 Q 77.392 38.35 72.708 38.201 A 95.932 95.932 0 0 0 69.65 38.151 A 58.227 58.227 0 0 0 63.339 38.468 Q 54.644 39.42 50.575 43.226 A 14.246 14.246 0 0 0 47.698 47.234 Q 45.589 51.392 44.413 58.308 A 89.4 89.4 0 0 0 43.575 64.751 Q 42.279 78.294 42.049 109.156 A 1896.416 1896.416 0 0 0 42 123.201 A 1770.878 1770.878 0 0 0 42.096 142.326 Q 42.345 165.305 43.247 177.706 A 173.804 173.804 0 0 0 43.575 181.651 A 87.227 87.227 0 0 0 44.525 188.737 Q 45.76 195.606 47.95 199.65 A 13.731 13.731 0 0 0 50.575 203.176 A 15.027 15.027 0 0 0 55.277 206.066 Q 60.692 208.251 69.65 208.251 A 128.074 128.074 0 0 0 85.592 207.294 A 107.262 107.262 0 0 0 94.5 205.801 L 94.5 240.801 A 50.45 50.45 0 0 1 89.57 242.516 Q 86.9 243.303 83.771 243.97 A 109.59 109.59 0 0 1 79.275 244.826 A 115.069 115.069 0 0 1 69.229 246.1 A 91.027 91.027 0 0 1 61.95 246.401 A 113.983 113.983 0 0 1 47.56 245.557 Q 30.658 243.399 21.35 235.726 Q 8.4 225.051 4.2 200.026 Q 0 175.001 0 123.201 A 981.354 981.354 0 0 1 0.274 99.259 Q 1.094 65.757 4.375 46.726 A 96.49 96.49 0 0 1 7.729 32.955 Q 10.01 26.03 13.222 20.702 A 38.762 38.762 0 0 1 21.7 10.676 Q 34.65 0.001 61.95 0.001 Q 71.4 0.001 80.325 1.401 Q 89.25 2.801 93.8 5.251 Z M 480.2 5.251 L 480.2 40.601 A 175.286 175.286 0 0 0 469.051 38.948 Q 463.792 38.35 459.108 38.201 A 95.932 95.932 0 0 0 456.05 38.151 A 58.227 58.227 0 0 0 449.739 38.468 Q 441.044 39.42 436.975 43.226 A 14.246 14.246 0 0 0 434.098 47.234 Q 431.989 51.392 430.813 58.308 A 89.4 89.4 0 0 0 429.975 64.751 Q 428.679 78.294 428.449 109.156 A 1896.416 1896.416 0 0 0 428.4 123.201 A 1770.878 1770.878 0 0 0 428.496 142.326 Q 428.745 165.305 429.647 177.706 A 173.804 173.804 0 0 0 429.975 181.651 A 87.227 87.227 0 0 0 430.925 188.737 Q 432.16 195.606 434.35 199.65 A 13.731 13.731 0 0 0 436.975 203.176 A 15.027 15.027 0 0 0 441.677 206.066 Q 447.092 208.251 456.05 208.251 A 128.074 128.074 0 0 0 471.992 207.294 A 107.262 107.262 0 0 0 480.9 205.801 L 480.9 240.801 A 50.45 50.45 0 0 1 475.97 242.516 Q 473.3 243.303 470.171 243.97 A 109.59 109.59 0 0 1 465.675 244.826 A 115.069 115.069 0 0 1 455.629 246.1 A 91.027 91.027 0 0 1 448.35 246.401 A 113.983 113.983 0 0 1 433.96 245.557 Q 417.058 243.399 407.75 235.726 Q 394.8 225.051 390.6 200.026 Q 386.4 175.001 386.4 123.201 A 981.354 981.354 0 0 1 386.674 99.259 Q 387.494 65.757 390.775 46.726 A 96.49 96.49 0 0 1 394.129 32.955 Q 396.41 26.03 399.622 20.702 A 38.762 38.762 0 0 1 408.1 10.676 Q 421.05 0.001 448.35 0.001 Q 457.8 0.001 466.725 1.401 Q 475.65 2.801 480.2 5.251 Z M 758.1 246.401 Q 727.65 246.401 714.875 235.901 A 38.519 38.519 0 0 1 704.975 223.173 Q 702.204 217.644 700.475 210.668 A 87.911 87.911 0 0 1 698.775 201.776 A 231.428 231.428 0 0 1 697.321 188.006 Q 696.064 172.155 695.652 148.35 A 1458.319 1458.319 0 0 1 695.45 123.201 A 1453.023 1453.023 0 0 1 695.658 97.684 Q 696.077 73.941 697.34 58.151 A 229.952 229.952 0 0 1 698.775 44.626 A 81.168 81.168 0 0 1 701.727 31.295 Q 706.043 17.761 714.875 10.501 A 36.807 36.807 0 0 1 725.6 4.577 Q 736.03 0.728 751.912 0.116 A 161.039 161.039 0 0 1 758.1 0.001 A 139.567 139.567 0 0 1 773.042 0.742 Q 791.99 2.79 801.5 10.501 A 38.677 38.677 0 0 1 811.723 23.621 Q 816.048 32.352 817.775 44.626 A 231.428 231.428 0 0 1 819.23 58.396 Q 820.487 74.247 820.899 98.053 A 1458.319 1458.319 0 0 1 821.1 123.201 A 1453.023 1453.023 0 0 1 820.892 148.718 Q 820.474 172.462 819.21 188.251 A 229.952 229.952 0 0 1 817.775 201.776 A 79.998 79.998 0 0 1 814.807 215.107 Q 812.528 222.192 808.989 227.557 A 36.552 36.552 0 0 1 801.5 235.901 A 37.651 37.651 0 0 1 790.603 241.852 Q 780.114 245.682 764.252 246.287 A 161.286 161.286 0 0 1 758.1 246.401 Z M 1118.95 27.651 L 1118.95 2.801 L 1167.6 2.801 L 1167.6 27.651 A 174.604 174.604 0 0 1 1167.433 34.529 Q 1166.835 49.247 1164.1 81.376 A 4719.676 4719.676 0 0 1 1160.25 124.207 A 5954.528 5954.528 0 0 1 1155.7 170.451 L 1130.85 170.451 A 9978.821 9978.821 0 0 1 1126.806 128.96 Q 1119.997 57.415 1119.09 33.783 A 164.115 164.115 0 0 1 1118.95 27.651 Z M 1198.4 27.651 L 1198.4 2.801 L 1247.05 2.801 L 1247.05 27.651 A 174.604 174.604 0 0 1 1246.883 34.529 Q 1246.285 49.247 1243.55 81.376 A 4719.676 4719.676 0 0 1 1239.7 124.207 A 5954.528 5954.528 0 0 1 1235.15 170.451 L 1210.3 170.451 A 9978.821 9978.821 0 0 1 1206.256 128.96 Q 1199.447 57.415 1198.54 33.783 A 164.115 164.115 0 0 1 1198.4 27.651 Z M 758.1 208.251 Q 768.6 208.251 772.45 204.051 A 10.457 10.457 0 0 0 774.211 201.186 Q 776.607 195.739 777.525 183.401 A 287.044 287.044 0 0 0 778.047 173.832 Q 778.75 156.355 778.75 123.201 A 2464.723 2464.723 0 0 0 778.678 103.611 Q 778.493 80.414 777.83 67.868 A 228.301 228.301 0 0 0 777.525 63.001 A 120.165 120.165 0 0 0 776.864 56.39 Q 775.458 45.632 772.45 42.351 A 10.435 10.435 0 0 0 768.824 39.875 Q 765.53 38.454 760.381 38.204 A 47.111 47.111 0 0 0 758.1 38.151 Q 749.624 38.151 745.596 40.888 A 8.699 8.699 0 0 0 743.925 42.351 Q 740.612 46.138 739.148 60.026 A 150.694 150.694 0 0 0 738.85 63.176 A 257.928 257.928 0 0 0 738.254 72.799 Q 737.45 90.312 737.45 123.201 A 2128.259 2128.259 0 0 0 737.532 142.653 Q 737.789 170.628 738.85 183.226 A 135.87 135.87 0 0 0 739.455 189.024 Q 740.684 198.64 742.942 202.633 A 8.503 8.503 0 0 0 743.925 204.051 Q 747.163 207.751 755.698 208.192 A 46.674 46.674 0 0 0 758.1 208.251 Z M 1164.8 243.601 L 1121.75 243.601 L 1121.75 201.251 L 1164.8 201.251 L 1164.8 243.601 Z M 1244.25 243.601 L 1201.2 243.601 L 1201.2 201.251 L 1244.25 201.251 L 1244.25 243.601 Z" vector-effect="non-scaling-stroke"/></g></svg>