<svg version="1.2" xmlns="http://www.w3.org/2000/svg" viewBox="0 0 180 24" width="180" height="24">
	<title>DESIGNER-svg</title>
	<style>
		.s0 { fill: none;stroke: #ffffff;stroke-linecap: round } 
	</style>
	<path id="Layer" fill-rule="evenodd" class="s0" d="m135.4-0.6l-5.5 25.4h-9.3l-4.5-18.4-3.9 18.4h-3.6l5.4-25.4h9.6l4.2 18.6 3.9-18.6zm-38.9 16.5l0.6-2.7h10.4l-2.3 11.6h-4.7l-0.8-2.6h-0.2q-1 1.2-2.4 2.1-1.2 0.7-3 0.8-0.1 0-0.2 0 0 0-0.1 0-0.1 0-0.2 0-0.1 0-0.2 0-1.8 0-3.4-0.6-1.6-0.5-2.9-1.8-0.2-0.2-0.3-0.4-0.2-0.2-0.4-0.4-0.1-0.2-0.3-0.4-0.1-0.2-0.2-0.5-0.2-0.2-0.3-0.4-0.1-0.2-0.2-0.4 0-0.2-0.1-0.4-0.1-0.2-0.2-0.4-0.1-0.3-0.2-0.5-0.1-0.3-0.1-0.5-0.1-0.3-0.1-0.5-0.1-0.3-0.1-0.6-0.2-0.9-0.2-2.1 0-0.1-0.1-0.1 0-0.1 0-0.2 0-0.1 0-0.2 0-0.1 0-0.2 0-0.8 0.1-1.5 0-0.7 0.2-1.5 0.1-0.7 0.3-1.4 0.1-0.7 0.4-1.5 1-2.8 2.9-5 0.4-0.4 0.9-0.9 0.4-0.4 0.9-0.7 0.5-0.4 1-0.7 0.5-0.4 1.1-0.6 0.1-0.1 0.2-0.2 0.1 0 0.2-0.1 0.1 0 0.3-0.1 0.1 0 0.2-0.1 0.4-0.1 0.8-0.3 0.5-0.1 0.9-0.3 0.4-0.1 0.9-0.2 0.4-0.1 0.9-0.2 0.4 0 0.8-0.1 0.4 0 0.8 0 0.4-0.1 0.8-0.1 0.4 0 0.8 0 0.3 0 0.6 0 0.3 0 0.6 0 0.3 0 0.6 0.1 0.3 0 0.6 0 1.2 0.2 2.3 0.4 0 0.1 0.1 0.1 0.1 0 0.1 0 0.1 0 0.1 0 0.1 0.1 0.2 0.1 0.4 0.1 0.8 0.3 0.5 0.1 0.9 0.2 0.4 0.2 0.8 0.4 0.5 0.1 0.9 0.3 0.1 0 0.2 0.1 0.1 0 0.1 0 0.1 0.1 0.2 0.1 0.1 0.1 0.2 0.1l-1.5 7.8h-6.8q0.1-0.3 0.1-0.7 0-0.1 0-0.1 0-0.1 0-0.1 0 0 0-0.1 0.1 0 0.1-0.1 0-0.6 0.1-1.2 0-0.7 0.1-1.3 0-0.6 0-1 0 0 0-0.1 0 0 0-0.1 0-0.1 0-0.1 0 0 0-0.1 0 0 0-0.1 0-0.2 0-0.4-0.1-0.4-0.2-0.8-0.2-0.4-0.5-0.7-0.1 0-0.1 0 0-0.1-0.1-0.1 0 0-0.1 0 0 0-0.1-0.1-0.1 0-0.3 0 0 0-0.1 0-0.1 0-0.1 0-0.2 0-0.4 0-0.2 0-0.4 0.1-0.2 0-0.4 0.1-0.1 0.1-0.3 0.2-0.1 0.1-0.1 0.1-0.1 0.1-0.1 0.1-0.1 0.1-0.1 0.1-0.1 0.1-0.1 0.1-0.1 0.1-0.2 0.2-0.1 0.2-0.2 0.3-0.1 0.1-0.2 0.2-0.1 0.1-0.2 0.2-0.3 0.5-0.6 1.1-0.1 0.1-0.1 0.1 0 0 0 0.1-0.1 0.1-0.1 0.1-0.1 0.2-0.2 0.4-0.1 0.2-0.2 0.4 0 0.3-0.1 0.5-0.1 0.2-0.2 0.4-0.1 0.2-0.1 0.4-0.1 0.2-0.1 0.4-0.1 0.2-0.2 0.3 0 0.2-0.1 0.4-0.5 1.8-0.8 3.7-0.1 0.4-0.2 0.9 0 0.4-0.1 0.8-0.1 0.5-0.1 0.9-0.1 0.5-0.1 0.9 0 0.1 0 0.1 0 0.2-0.1 0.3 0 0.2 0 0.4 0 0.1 0 0.3 0 0.1 0 0.3-0.1 0.6-0.1 1.2 0 0.1 0 0.1 0 0.1 0 0.2 0 0.1 0 0.2 0 0 0 0.1 0 0.1 0 0.1 0 0 0 0.1 0 0 0 0.1 0 0.2 0 0.4 0 0.1 0 0.1 0 0.1 0 0.1 0 0.1 0 0.1 0.1 0.6 0.3 1.2 0.2 0.6 0.6 1 0.1 0.1 0.2 0.1 0 0.1 0.1 0.1 0.1 0 0.2 0.1 0 0 0.1 0 0.2 0.1 0.5 0.1 0 0 0.1 0 0 0 0.1 0 0.1 0 0.3 0 0.2 0 0.3-0.1 0.2 0 0.4-0.1 0.1-0.1 0.3-0.2 0.4-0.2 0.8-0.6 0 0 0.1-0.1 0.1 0 0.1-0.1 0.1 0 0.1-0.1 0.1-0.1 0.1-0.1 0.1-0.2 0.2-0.3 0.1-0.1 0.2-0.3 0.1-0.1 0.2-0.3 0.1-0.1 0.2-0.3 0.6-1.2 1-3 0-0.1 0-0.2 0 0 0-0.1 0.1-0.1 0.1-0.2 0 0 0-0.1zm-27.7-9.1h-6.7q0.1-0.1 0.1-0.1 0-0.1 0-0.1 0-0.1 0-0.2 0 0 0-0.1 0.1-0.4 0.1-1 0-0.1 0-0.1 0-0.1 0-0.1 0-0.6-0.1-1.2-0.1-0.5-0.3-1 0-0.1-0.1-0.2 0 0-0.1-0.1 0-0.1-0.1-0.1 0-0.1-0.1-0.2-0.1 0-0.1 0 0-0.1 0-0.1-0.1 0-0.1 0-0.1-0.1-0.1-0.1-0.1 0-0.1 0-0.1-0.1-0.1-0.1-0.1 0-0.2 0-0.1-0.1-0.4-0.1 0 0-0.1 0-0.2 0-0.3 0-0.1 0-0.3 0.1-0.1 0-0.2 0-0.2 0.1-0.3 0.1 0 0-0.1 0 0 0.1 0 0.1-0.1 0-0.1 0 0 0-0.1 0-0.6 0.4-1 0.9-0.5 0.5-0.7 1.1-0.3 0.7-0.3 1.4 0 0.1 0 0.2 0 0 0 0.1 0 0.1 0 0.2 0 0.1 0.1 0.1 0 0.4 0.2 0.7 0 0 0.1 0.1 0 0 0 0.1 0 0 0.1 0 0 0.1 0 0.1 0.1 0.1 0.2 0.2 0.1 0 0.2 0.1 0.1 0.1 0.2 0.1 0.1 0.1 0.2 0.2 0 0 0.1 0.1 0.1 0 0.2 0.1 0.1 0 0.2 0 0.1 0.1 0.2 0.1 0.8 0.4 2 0.6 1.1 0.3 2.3 0.6 1 0.3 2 0.7 1 0.4 1.8 1.2 0.1 0.1 0.2 0.2 0.1 0.2 0.2 0.3 0.1 0.1 0.2 0.3 0.1 0.1 0.2 0.3 0.1 0.1 0.1 0.2 0.1 0.1 0.1 0.2 0.1 0.1 0.1 0.2 0.1 0.1 0.1 0.2 0.1 0.1 0.1 0.3 0.1 0.1 0.1 0.3 0.1 0.1 0.1 0.2 0 0.2 0 0.3 0.2 0.6 0.2 1.2 0 0.1 0 0.2 0 0.1 0 0.1 0 0.1 0 0.2 0 0.1 0 0.1 0 2.4-0.8 4-0.1 0-0.1 0.1 0 0.1-0.1 0.1 0 0 0 0.1-1 1.7-2.8 2.8-0.2 0.1-0.5 0.3-0.3 0.1-0.6 0.3-0.3 0.1-0.6 0.2-0.2 0.1-0.5 0.2-0.3 0.1-0.5 0.2-0.2 0.1-0.5 0.1-0.2 0.1-0.5 0.1-0.2 0.1-0.4 0.1-2.5 0.5-5.3 0.5-0.2 0-0.5 0-0.2 0-0.4 0-0.3 0-0.5 0-0.2 0-0.5 0-0.8-0.1-1.6-0.2-0.1 0-0.3 0-0.1 0-0.3 0-0.1-0.1-0.3-0.1-0.1 0-0.3-0.1-0.1 0-0.3 0-0.1 0-0.2-0.1-0.2 0-0.3 0-0.1-0.1-0.3-0.1-1-0.3-1.7-0.5 0-0.1 0-0.1 0 0-0.1 0-0.1 0-0.2-0.1-0.1 0-0.1-0.1-0.1 0-0.2-0.1-0.1 0-0.2-0.1-0.7-0.3-1.1-0.8l1.4-5.5h7q0 0.4-0.1 1 0 0.5 0 0.9 0 0 0 0.1 0 0.5 0.1 1 0.1 0.5 0.4 1 0.2 0.4 0.7 0.7 0.5 0.3 1.2 0.3 0.1 0 0.2 0 0.1-0.1 0.2-0.1 0.1 0 0.2 0 0.1 0 0.2 0 0.1-0.1 0.2-0.1 0.1 0 0.1-0.1 0.1 0 0.2 0 0.1-0.1 0.1-0.1 0.7-0.4 1.1-0.9 0.4-0.5 0.6-1.2 0.1-0.1 0.1-0.2 0-0.2 0-0.3 0.1-0.1 0.1-0.2 0-0.1 0-0.3 0-0.1 0-0.1 0-0.1 0-0.1 0-0.1 0-0.1 0-0.1 0-0.2 0-0.1 0-0.1 0-0.1 0-0.2 0-0.1 0-0.2-0.1-0.1-0.1-0.2 0-0.1-0.1-0.2 0-0.1-0.1-0.2 0-0.1-0.1-0.2-0.1-0.1-0.1-0.2-0.1-0.1-0.2-0.2-0.1-0.1-0.2-0.2-0.1-0.1-0.2-0.1-0.1-0.1-0.1-0.1-0.1 0-0.1-0.1-0.1 0-0.1 0-0.1-0.1-0.1-0.1-0.1-0.1-0.2-0.1-0.1-0.1-0.3-0.1-0.1-0.1-0.2-0.1-0.1-0.1-0.2-0.1-0.1-0.1-0.2-0.1-0.1 0-0.2-0.1-0.1 0-0.2-0.1-0.1 0-0.2 0-0.2-0.1-0.4-0.2-0.2 0-0.4-0.1-0.2-0.1-0.4-0.1-0.3-0.1-0.5-0.2-0.1 0-0.1 0 0 0-0.1 0-1-0.3-2-0.7-1.1-0.4-2-1.1-0.2-0.2-0.3-0.4-0.2-0.1-0.4-0.3-0.1-0.2-0.2-0.4-0.2-0.2-0.3-0.4 0 0-0.1-0.1 0 0 0-0.1-0.1 0-0.1-0.1 0 0 0-0.1-0.1-0.1-0.2-0.2 0-0.2-0.1-0.3 0-0.1-0.1-0.3 0-0.1 0-0.2-0.2-0.8-0.2-1.8 0-0.2 0-0.5 0-0.2 0-0.5 0.1-0.2 0.1-0.5 0.1-0.2 0.1-0.5 0.1-0.3 0.2-0.6 0.1-0.3 0.2-0.6 0.2-0.3 0.3-0.6 0.2-0.2 0.4-0.5 1.3-1.7 3.3-2.8 0.4-0.3 0.9-0.5 0.5-0.2 1-0.4 0.5-0.2 1-0.3 0.5-0.2 1-0.3 0.1 0 0.1 0 0.1 0 0.1 0 0.1 0 0.1 0 0.1 0 0.1 0 0.4-0.1 0.7-0.2 0.4 0 0.7-0.1 0.4 0 0.7-0.1 0.4 0 0.8 0 0.2-0.1 0.4-0.1 0.2 0 0.4 0 0.2 0 0.4 0 0.2 0 0.4 0 2.4 0 4.2 0.5 0.1 0 0.1 0 0.1 0 0.2 0.1 0.1 0 0.1 0 0.1 0 0.2 0.1 0.2 0 0.3 0.1 0.2 0 0.3 0.1 0.2 0 0.3 0.1 0.2 0.1 0.3 0.1 1.2 0.5 1.9 1.1zm-42.4 18l5.4-25.4h16.9l-0.7 3.1h-8.1l-1.7 7.7h6.8l-0.6 3h-6.8l-1.9 8.6h8.2l-0.6 3zm107.9 0l5.4-25.4h16.8l-0.6 3.1h-8.2l-1.7 7.7h6.9l-0.7 3h-6.8l-1.9 8.6h8.2l-0.6 3zm39.4-11.9l4.6 11.9h-8.9l-3.5-11h-0.5l-2.3 11h-8.7l5.4-25.4c0.2 0 10.9 0 11.1 0q0.4 0.1 0.7 0.1 0.3 0 0.6 0 0.3 0 0.6 0 0.1 0.1 0.2 0.1 0.2 0 0.3 0 0.1 0 0.3 0 0.1 0 0.2 0.1 1.7 0.2 2.9 0.8 1.2 0.7 1.9 1.9 0.1 0.1 0.2 0.3 0.1 0.1 0.1 0.3 0.1 0.1 0.1 0.3 0.1 0.1 0.1 0.3 0.2 0.6 0.2 1.2 0 0.1 0 0.2 0 0.1 0 0.2 0 0 0 0.1 0 0.1 0 0.2 0 2.3-1.3 4.3-0.2 0.3-0.4 0.6-0.2 0.2-0.4 0.4-0.2 0.3-0.5 0.5-0.2 0.2-0.5 0.3-1.1 0.8-2.5 1.3zm-173.8 11.9l5.4-25.4c0.2 0 11.2 0 11.3 0q0.3 0.1 0.5 0.1 0.3 0 0.5 0 0.3 0 0.6 0 1 0.1 1.8 0.3 0.1 0.1 0.1 0.1 0.1 0 0.1 0 0.1 0 0.1 0 0.1 0 0.1 0 0.3 0.1 0.5 0.2 0.2 0 0.4 0.1 0.3 0.1 0.5 0.2 0.2 0.1 0.4 0.2 0.2 0.1 0.3 0.2 0.2 0.2 0.4 0.3 0.2 0.1 0.3 0.2 0.2 0.2 0.3 0.3 0.2 0.2 0.4 0.4 0.2 0.2 0.4 0.4 0.1 0.3 0.3 0.5 0.1 0.3 0.2 0.5 0.1 0.2 0.2 0.3 0.1 0.2 0.1 0.3 0.1 0.2 0.2 0.3 0 0.2 0.1 0.3 0 0.3 0.1 0.5 0 0.2 0.1 0.4 0.1 0.2 0.1 0.4 0 0.3 0.1 0.5 0.1 0.9 0.2 1.9 0 0.1 0 0.2 0 0.1 0 0.3 0 0.1 0 0.2 0 0.1 0 0.2 0 3-0.8 5.8-0.7 2.8-2.4 5-0.4 0.4-0.8 0.8-0.4 0.4-0.8 0.8-0.4 0.4-0.9 0.7-0.4 0.3-0.9 0.6-0.2 0.1-0.3 0.2-0.1 0-0.3 0.1-0.1 0.1-0.2 0.2-0.2 0-0.3 0.1-2.4 1.2-5.8 1.3-0.2 0-0.3 0-0.1 0-0.2 0-0.2 0-0.3 0c-0.1 0-11.7 0-11.8 0zm84-25.4l-5.4 25.4h-8.7l5.4-25.4zm-74.7 22.6c0.2 0 2.1 0 2.2 0q0.3-0.1 0.6-0.1 0.2-0.1 0.4-0.3 0.3-0.1 0.5-0.3 0 0 0.1-0.1 0 0 0.1-0.1 0 0 0.1-0.1 0 0 0.1-0.1 1-1.1 1.7-2.8 0.1-0.2 0.3-0.5 0.1-0.3 0.2-0.6 0.1-0.3 0.2-0.6 0.1-0.2 0.2-0.5 0-0.2 0.1-0.4 0-0.2 0.1-0.4 0-0.2 0.1-0.3 0-0.2 0.1-0.4 0.5-2.1 0.8-4 0-0.2 0-0.4 0.1-0.2 0.1-0.5 0-0.2 0-0.4 0.1-0.2 0.1-0.4 0.1-0.8 0.2-1.5 0-0.1 0-0.1 0-0.1 0-0.1 0.1-1.6 0.1-2.2 0-0.9-0.2-1.5 0 0-0.1-0.1 0-0.1 0-0.1 0-0.1-0.1-0.1 0-0.1-0.1-0.1-0.4-0.6-1.3-0.7-0.1 0-0.1 0-0.1 0-0.1 0-0.1 0-0.1 0-0.1 0-0.1 0h-1.9zm156.7-10.9h1.9q1.1 0 1.8-0.7 0.2-0.1 0.3-0.3 0.2-0.2 0.3-0.4 0.1-0.1 0.3-0.3 0.1-0.2 0.2-0.4 0-0.1 0-0.1 0 0 0-0.1 0.1 0 0.1 0 0 0 0-0.1 0.5-1 0.7-2.1 0.1-0.9 0.1-1.6 0.1 0 0.1-0.1 0 0 0-0.1 0 0 0-0.1 0 0 0-0.1 0-1-0.4-1.8-0.1-0.1-0.1-0.2-0.1-0.1-0.2-0.2-0.1 0-0.2-0.1-0.1-0.1-0.2-0.1-0.4-0.1-0.9-0.1h-1.8z"/>
	<g id="svgGroup">
	</g>
</svg>