<svg version="1.2" xmlns="http://www.w3.org/2000/svg" viewBox="0 0 205 24" width="205" height="24">
	<title>DEVELOPER-svg</title>
	<style>
		.s0 { fill: none;stroke: #ffffff;stroke-linecap: round } 
	</style>
	<g id="svgGroup">
		<path id="Layer" fill-rule="evenodd" class="s0" d="m26.5 24.8l5.4-25.4h16.8l-0.6 3h-8.2l-1.7 7.8h6.9l-0.7 3h-6.8l-1.8 8.5h8.1l-0.6 3.1zm43.4 0l5.4-25.4h16.8l-0.6 3h-8.2l-1.7 7.8h6.9l-0.7 3h-6.8l-1.8 8.5h8.1l-0.6 3.1zm89.2 0l5.4-25.4h16.9l-0.7 3h-8.1l-1.7 7.8h6.8l-0.6 3h-6.9l-1.8 8.5h8.2l-0.6 3.1zm39.3-12l4.7 12h-9l-3.5-11.1h-0.4l-2.4 11.1h-8.6l5.4-25.4c0.2 0 10.9 0 11.1 0q0.3 0 0.6 0 0.3 0 0.6 0.1 0.3 0 0.6 0 0.2 0 0.3 0 0.1 0 0.3 0.1 0.1 0 0.2 0 0.1 0 0.3 0 1.6 0.2 2.8 0.9 1.3 0.7 2 1.8 0.1 0.2 0.1 0.3 0.1 0.2 0.2 0.3 0 0.2 0.1 0.3 0 0.2 0.1 0.4 0.1 0.5 0.2 1.2 0 0.1 0 0.2 0 0 0 0.1 0 0.1 0 0.2 0 0.1 0 0.1 0 2.4-1.3 4.4-0.2 0.3-0.4 0.5-0.2 0.3-0.4 0.5-0.3 0.2-0.5 0.4-0.3 0.2-0.5 0.4-1.1 0.7-2.6 1.2zm-147 12l-1.5-25.4h9.1l1.4 17.2 8.3-17.2h4l-11.9 25.4zm-51.3 0l5.4-25.4c0.2 0 11.1 0 11.2 0q0.3 0 0.5 0 0.3 0 0.6 0.1 0.2 0 0.5 0 1 0.1 1.9 0.3 0 0 0.1 0 0 0 0.1 0 0 0.1 0.1 0.1 0 0 0.1 0 0.2 0.1 0.4 0.1 0.2 0.1 0.5 0.2 0.2 0.1 0.4 0.2 0.2 0.1 0.4 0.2 0.2 0.1 0.4 0.2 0.1 0.1 0.3 0.2 0.2 0.2 0.3 0.3 0.2 0.1 0.3 0.3 0.2 0.2 0.4 0.4 0.2 0.2 0.4 0.4 0.1 0.2 0.3 0.5 0.1 0.2 0.3 0.5 0 0.1 0.1 0.3 0.1 0.1 0.1 0.3 0.1 0.1 0.2 0.3 0 0.1 0.1 0.3 0 0.2 0.1 0.4 0.1 0.2 0.1 0.5 0.1 0.2 0.1 0.4 0.1 0.2 0.1 0.4 0.1 0.9 0.2 1.9 0 0.2 0 0.3 0 0.1 0 0.2 0 0.1 0 0.3 0 0.1 0 0.2 0 2.9-0.7 5.7-0.8 2.8-2.5 5-0.4 0.5-0.7 0.9-0.4 0.4-0.9 0.8-0.4 0.3-0.9 0.7-0.4 0.3-0.9 0.6-0.1 0.1-0.3 0.1-0.1 0.1-0.3 0.2-0.1 0.1-0.2 0.1-0.2 0.1-0.3 0.2-2.4 1.1-5.8 1.3-0.1 0-0.3 0-0.1 0-0.2 0-0.2 0-0.3 0c-0.1 0-11.6 0-11.7 0zm145.4-8.4l-1.8 8.4h-8.6l5.4-25.4h9.2q2.3 0 4.2 0.2 1.9 0.3 3.2 1 1.4 0.7 2.2 2.1 0.5 1 0.7 2.5 0 0.1 0 0.3 0 0.1 0 0.2 0 0.2 0 0.3 0 0.1 0 0.2 0 0.5 0 1-0.1 0.5-0.1 1-0.1 0.5-0.2 1-0.2 0.5-0.3 0.9 0 0 0 0.1-0.7 1.8-2.2 3.2-0.2 0.2-0.4 0.4-0.2 0.2-0.5 0.4-0.2 0.1-0.5 0.3-0.2 0.2-0.5 0.3-0.2 0.1-0.4 0.2-0.3 0.1-0.5 0.2-0.2 0.1-0.5 0.2-0.2 0.1-0.4 0.2-0.3 0.1-0.6 0.2-0.3 0.1-0.5 0.1-0.3 0.1-0.6 0.1-0.3 0.1-0.6 0.1-1.1 0.2-2.4 0.3-0.1 0-0.2 0-0.1 0-0.3 0-0.1 0-0.2 0c-0.1 0-2.5 0-2.6 0zm-55.5 8.4l5.4-25.4h8.7l-4.7 22h8.1l-0.7 3.4zm38.4-25.4q0.1 0.1 0.3 0.1 0.2 0.1 0.3 0.1 0.2 0.1 0.4 0.2 0.2 0 0.3 0.1 2.2 0.9 3.4 2.7 0.2 0.3 0.3 0.5 0.1 0.3 0.3 0.5 0.1 0.3 0.2 0.6 0.1 0.3 0.2 0.5 0.1 0.1 0.1 0.2 0 0.1 0 0.2 0.1 0 0.1 0.1 0 0.1 0 0.2 0.5 1.5 0.5 3.3 0 0.1 0 0.1 0 0 0 0.1 0 0.1 0 0.1 0 1.8-0.3 3.5-0.4 1.8-0.9 3.4-0.6 1.6-1.4 3-0.2 0.3-0.3 0.5-0.2 0.2-0.3 0.4-0.1 0.3-0.3 0.5-0.2 0.2-0.3 0.4-0.1 0.1-0.2 0.2-0.1 0.1-0.1 0.2-0.1 0.1-0.2 0.2-0.1 0.1-0.2 0.1-1.8 2.1-4.3 2.9-0.3 0.1-0.6 0.2-0.2 0.1-0.5 0.1-0.3 0.1-0.6 0.1-0.3 0.1-0.6 0.1-1.1 0.2-2.5 0.3-0.1 0-0.3 0-0.2 0-0.3 0-0.2 0-0.3 0-0.2 0-0.4 0-0.2 0-0.5 0-0.2 0-0.5 0-0.2 0-0.5 0-0.2 0-0.5-0.1-1.1 0-1.9-0.2-0.2 0-0.5-0.1-0.2 0-0.4-0.1-0.2 0-0.4-0.1-0.2 0-0.4-0.1-2.1-0.7-3.3-2.3-0.1-0.2-0.2-0.3-0.2-0.2-0.3-0.4-0.1-0.1-0.2-0.3 0-0.2-0.1-0.3-0.3-0.7-0.6-1.4 0 0 0-0.1 0 0 0-0.1-0.1-0.1-0.1-0.3 0-0.2-0.1-0.4 0-0.2-0.1-0.4 0-0.2 0-0.3-0.1-0.8-0.2-1.7 0-0.1 0-0.3 0-0.1 0-0.3 0-0.1 0-0.3 0-0.1 0-0.3 0-0.5 0-1.1 0-0.5 0.1-1.1 0.1-0.6 0.1-1.1 0.1-0.6 0.2-1.1 0.1-0.5 0.3-0.9 0.1-0.5 0.2-0.9 0.2-0.4 0.3-0.9 0.2-0.4 0.4-0.8 0.2-0.5 0.5-1.1 0.3-0.5 0.6-0.9 0.3-0.5 0.7-1 0.3-0.4 0.7-0.9 0.2-0.2 0.5-0.4 0.2-0.3 0.5-0.5 0.2-0.2 0.5-0.4 0.2-0.2 0.5-0.4 1.7-1.2 3.9-1.8 0.3-0.1 0.5-0.1 0.3-0.1 0.6-0.2 0.3 0 0.5-0.1 0.3 0 0.6 0 1.1-0.2 2.3-0.2 0 0 0.1 0 0.1 0 0.2 0 0 0 0.1 0 0.1 0 0.1 0 0.3 0 0.6 0 0.3 0 0.5 0 0.3 0 0.6 0.1 0.3 0 0.6 0 1 0.1 2 0.3zm-119.1 22.6c0.2 0 2.1 0 2.2 0q0.3-0.1 0.6-0.2 0.2-0.1 0.4-0.2 0.3-0.2 0.5-0.3 0-0.1 0.1-0.1 0-0.1 0.1-0.1 0-0.1 0.1-0.1 0-0.1 0.1-0.1 1-1.1 1.7-2.8 0.1-0.3 0.3-0.6 0.1-0.2 0.2-0.5 0.1-0.3 0.2-0.6 0.1-0.3 0.2-0.6 0-0.2 0.1-0.3 0-0.2 0.1-0.4 0-0.2 0.1-0.4 0-0.2 0.1-0.4 0.5-2 0.8-3.9 0-0.3 0-0.5 0.1-0.2 0.1-0.4 0-0.2 0-0.4 0.1-0.2 0.1-0.5 0.1-0.8 0.2-1.5 0-0.1 0-0.1 0-0.1 0-0.1 0.1-1.5 0.1-2.1 0-0.9-0.2-1.5 0-0.1-0.1-0.1 0-0.1 0-0.1 0-0.1-0.1-0.2 0 0-0.1-0.1-0.4-0.6-1.3-0.7-0.1 0-0.1 0-0.1 0-0.1 0-0.1 0-0.1 0-0.1 0-0.1 0h-1.9zm110.3 0.3q0.1 0 0.3 0 0.1 0 0.3 0 0.1-0.1 0.3-0.1 0.1-0.1 0.2-0.2 0.3-0.2 0.6-0.4 0 0 0-0.1 0.7-0.7 1.4-1.8 0 0 0-0.1 0 0 0.1-0.1 0 0 0-0.1 0 0 0.1-0.1 0.1-0.2 0.2-0.4 0.1-0.2 0.1-0.4 0.1-0.2 0.2-0.4 0.1-0.2 0.2-0.4 0.1-0.2 0.1-0.4 0.1-0.2 0.2-0.4 0-0.1 0.1-0.3 0.1-0.2 0.1-0.4 0.6-1.8 1-3.7 0.4-1.8 0.6-3.7 0.3-1.9 0.3-3.4 0-2.1-0.5-2.8 0-0.1 0-0.2-0.1 0-0.1-0.1 0 0-0.1-0.1 0 0-0.1-0.1-0.1 0-0.2-0.1-0.1-0.1-0.2-0.1-0.1-0.1-0.2-0.1-0.2 0-0.3 0-0.1 0-0.3 0-0.1 0-0.3 0.1-0.1 0-0.2 0.1-0.2 0-0.3 0.1-0.3 0.2-0.6 0.4 0 0 0 0.1-0.1 0.1-0.2 0.2-0.1 0.1-0.2 0.2-0.1 0.1-0.2 0.2-0.1 0.1-0.2 0.2-0.4 0.6-0.8 1.3-0.1 0.2-0.2 0.4-0.1 0.2-0.2 0.4-0.1 0.2-0.2 0.4-0.1 0.2-0.2 0.4-0.1 0.2-0.1 0.4-0.1 0.2-0.2 0.3 0 0.2-0.1 0.4-0.1 0.2-0.1 0.4-0.6 1.7-1 3.6-0.5 1.8-0.7 3.6-0.2 1.8-0.2 3.3 0 1.7 0.3 2.7 0 0 0 0.1 0 0.1 0.1 0.1 0 0.1 0 0.2 0.1 0 0.1 0.1 0 0 0.1 0.1 0 0 0 0.1 0.1 0.1 0.1 0.1 0.1 0.1 0.1 0.1 0.1 0.1 0.2 0.2 0.1 0.1 0.3 0.1 0.1 0.1 0.2 0.1 0.2 0 0.3 0zm26.5-8.4h1.8q1.2 0 2-1 0.2-0.2 0.3-0.4 0.1-0.1 0.2-0.3 0.1-0.1 0.2-0.3 0.1-0.2 0.2-0.4 0.1-0.1 0.1-0.2 0.1-0.2 0.2-0.3 0-0.2 0.1-0.3 0-0.1 0.1-0.3 0.5-1.4 0.8-3 0.2-1.5 0.2-2.7 0-0.1 0-0.2 0-0.1 0-0.2 0-0.1 0-0.2 0-0.1 0-0.2-0.1-0.6-0.3-1-0.1-0.1-0.2-0.2 0-0.1-0.1-0.2-0.1-0.1-0.2-0.1-0.1-0.1-0.2-0.1-0.4-0.2-0.9-0.2h-1.8zm44.6-2.6h1.9q1.1 0 1.8-0.7 0.2-0.2 0.3-0.4 0.2-0.1 0.3-0.3 0.1-0.2 0.3-0.4 0.1-0.2 0.2-0.4 0-0.1 0-0.1 0.1 0 0.1-0.1 0.5-1 0.7-2.2 0.1-0.9 0.1-1.6 0.1 0 0.1-0.1 0 0 0-0.1 0 0 0-0.1 0 0 0-0.1 0-1-0.4-1.7-0.1-0.1-0.1-0.2-0.1-0.1-0.2-0.2-0.1-0.1-0.2-0.2-0.1 0-0.2 0-0.4-0.2-0.9-0.2h-1.8z"/>
	</g>
</svg>