<svg width="957.4" height="70.401" viewBox="0 0 957.4 70.401" xmlns="http://www.w3.org/2000/svg"><g id="svgGroup" stroke-linecap="round" fill-rule="evenodd" font-size="9pt" stroke="#000" stroke-width="0" fill="#ffffff" style="stroke:#000;stroke-width:0;fill:#ffffff"><path d="M 208.8 69.6 L 198.1 69.6 L 185.4 30.8 L 185 30.8 L 185 69.6 L 173.5 69.6 L 173.5 0.8 L 184.9 0.8 L 196.8 36.9 L 197.4 36.9 L 197.4 0.8 L 208.8 0.8 L 208.8 69.6 Z M 957.4 69.6 L 946.7 69.6 L 934 30.8 L 933.6 30.8 L 933.6 69.6 L 922.1 69.6 L 922.1 0.8 L 933.5 0.8 L 945.4 36.9 L 946 36.9 L 946 0.8 L 957.4 0.8 L 957.4 69.6 Z M 344.1 69.6 L 332 69.6 L 332 40.6 L 321.2 40.6 L 321.2 69.6 L 309.1 69.6 L 309.1 0.8 L 321.2 0.8 L 321.2 29.2 L 332 29.2 L 332 0.8 L 344.1 0.8 L 344.1 69.6 Z M 87.4 69.6 L 69.6 69.6 L 59.1 0.8 L 71.3 0.8 L 78.3 56.6 L 79.2 56.6 L 86 0.8 L 97.9 0.8 L 87.4 69.6 Z M 450.3 69.6 L 432.5 69.6 L 422 0.8 L 434.2 0.8 L 441.2 56.6 L 442.1 56.6 L 448.9 0.8 L 460.8 0.8 L 450.3 69.6 Z M 130.4 69.6 L 103 69.6 L 103 0.8 L 130.4 0.8 L 130.4 11.7 L 115.1 11.7 L 115.1 29.4 L 128.5 29.4 L 128.5 40.3 L 115.1 40.3 L 115.1 58.7 L 130.4 58.7 L 130.4 69.6 Z M 555.9 69.6 L 528.5 69.6 L 528.5 0.8 L 555.9 0.8 L 555.9 11.7 L 540.6 11.7 L 540.6 29.4 L 554 29.4 L 554 40.3 L 540.6 40.3 L 540.6 58.7 L 555.9 58.7 L 555.9 69.6 Z M 784.5 69.6 L 757.1 69.6 L 757.1 0.8 L 784.5 0.8 L 784.5 11.7 L 769.2 11.7 L 769.2 29.4 L 782.6 29.4 L 782.6 40.3 L 769.2 40.3 L 769.2 58.7 L 784.5 58.7 L 784.5 69.6 Z M 372.7 68.7 L 372.7 58.8 Q 380 59.5 384 59.5 Q 386.515 59.5 387.982 59.218 A 8.371 8.371 0 0 0 388.3 59.15 A 5.156 5.156 0 0 0 389.574 58.679 A 4.13 4.13 0 0 0 390.7 57.8 Q 392.1 56.1 392.1 50.4 Q 392.1 46.036 391.756 44.23 A 8.166 8.166 0 0 0 391.75 44.2 Q 391.4 42.4 390.3 41.55 A 4.361 4.361 0 0 0 389.539 41.092 Q 388.7 40.685 387.371 40.346 A 24.141 24.141 0 0 0 386.3 40.1 L 378.3 38.4 Q 374.5 37.6 373.1 33.2 A 23.305 23.305 0 0 1 372.365 30.082 Q 371.794 26.74 371.713 21.994 A 93.966 93.966 0 0 1 371.7 20.4 Q 371.7 12.583 373.563 8.166 A 14.731 14.731 0 0 1 373.7 7.85 A 14.315 14.315 0 0 1 375.53 4.793 A 10.503 10.503 0 0 1 379.45 1.7 Q 382.365 0.379 386.579 0.085 A 36.225 36.225 0 0 1 389.1 0 Q 393.6 0 397.25 0.6 A 92.012 92.012 0 0 1 398.72 0.853 Q 401.119 1.288 401.9 1.6 L 401.9 11.6 A 12.803 12.803 0 0 0 401.319 11.501 Q 400.258 11.34 398.25 11.15 A 56.347 56.347 0 0 0 394.801 10.935 A 67.399 67.399 0 0 0 392.6 10.9 A 36.918 36.918 0 0 0 390.828 10.94 Q 389.12 11.022 387.964 11.276 A 8.983 8.983 0 0 0 387.65 11.35 Q 385.9 11.8 385.1 12.8 Q 384.347 13.742 384.081 15.215 A 8.024 8.024 0 0 0 384.05 15.4 Q 383.8 17 383.8 20 Q 383.8 22.639 383.942 24.169 A 13.351 13.351 0 0 0 384.05 25.05 A 5.819 5.819 0 0 0 384.257 25.926 Q 384.402 26.371 384.613 26.715 A 2.526 2.526 0 0 0 385.1 27.3 A 3.374 3.374 0 0 0 385.75 27.737 Q 386.505 28.135 387.7 28.4 L 394.6 30 Q 397.7 30.6 399.75 32.1 Q 401.265 33.209 402.316 35.519 A 16.893 16.893 0 0 1 403 37.3 A 18.7 18.7 0 0 1 403.532 39.626 Q 403.967 42.195 404.069 45.915 A 87.177 87.177 0 0 1 404.1 48.3 A 72.013 72.013 0 0 1 403.937 53.324 Q 403.551 58.825 402.25 62.2 A 15.767 15.767 0 0 1 400.815 65.075 Q 399.735 66.752 398.316 67.812 A 8.783 8.783 0 0 1 396.85 68.7 A 14.972 14.972 0 0 1 393.843 69.736 Q 391.05 70.4 387.3 70.4 A 62.799 62.799 0 0 1 383.173 70.258 A 80.301 80.301 0 0 1 379.7 69.95 A 59.626 59.626 0 0 1 376.567 69.527 Q 375.092 69.285 373.817 68.985 A 30.386 30.386 0 0 1 372.7 68.7 Z M 236.6 69.6 L 224.5 69.6 L 224.5 11.9 L 213.8 11.9 L 213.8 0.8 L 247.3 0.8 L 247.3 11.9 L 236.6 11.9 L 236.6 69.6 Z M 843.1 69.6 L 831 69.6 L 831 11.9 L 820.3 11.9 L 820.3 0.8 L 853.8 0.8 L 853.8 11.9 L 843.1 11.9 L 843.1 69.6 Z M 646 1.5 L 646 11.6 A 50.082 50.082 0 0 0 642.815 11.128 Q 641.312 10.957 639.974 10.915 A 27.409 27.409 0 0 0 639.1 10.9 Q 635.873 10.9 634.255 11.893 A 3.76 3.76 0 0 0 633.65 12.35 Q 632.1 13.8 631.65 18.5 Q 631.2 23.2 631.2 35.2 Q 631.2 45.875 631.556 50.773 A 49.658 49.658 0 0 0 631.65 51.9 A 24.922 24.922 0 0 0 631.921 53.925 Q 632.463 56.94 633.65 58.05 A 4.293 4.293 0 0 0 634.993 58.876 Q 636.268 59.39 638.229 59.481 A 18.871 18.871 0 0 0 639.1 59.5 A 36.593 36.593 0 0 0 643.655 59.227 A 30.646 30.646 0 0 0 646.2 58.8 L 646.2 68.8 Q 644.932 69.323 643.134 69.706 A 31.311 31.311 0 0 1 641.85 69.95 A 32.877 32.877 0 0 1 638.979 70.314 A 26.008 26.008 0 0 1 636.9 70.4 Q 629.41 70.4 625.696 67.659 A 9.358 9.358 0 0 1 625.3 67.35 A 11.382 11.382 0 0 1 622.561 63.935 Q 621.08 61.2 620.4 57.15 Q 619.483 51.687 619.267 41.756 A 302.037 302.037 0 0 1 619.2 35.2 Q 619.2 23.381 620.019 16.378 A 56.65 56.65 0 0 1 620.45 13.35 Q 621.233 8.808 622.978 5.915 A 11.075 11.075 0 0 1 625.4 3.05 Q 629.029 0.059 636.603 0.001 A 39.296 39.296 0 0 1 636.9 0 Q 639.6 0 642.15 0.4 A 21.994 21.994 0 0 1 643.554 0.664 Q 644.918 0.97 645.792 1.394 A 5.485 5.485 0 0 1 646 1.5 Z M 817.3 1.5 L 817.3 11.6 A 50.082 50.082 0 0 0 814.115 11.128 Q 812.612 10.957 811.274 10.915 A 27.409 27.409 0 0 0 810.4 10.9 Q 807.173 10.9 805.555 11.893 A 3.76 3.76 0 0 0 804.95 12.35 Q 803.4 13.8 802.95 18.5 Q 802.5 23.2 802.5 35.2 Q 802.5 45.875 802.856 50.773 A 49.658 49.658 0 0 0 802.95 51.9 A 24.922 24.922 0 0 0 803.221 53.925 Q 803.763 56.94 804.95 58.05 A 4.293 4.293 0 0 0 806.293 58.876 Q 807.568 59.39 809.529 59.481 A 18.871 18.871 0 0 0 810.4 59.5 A 36.593 36.593 0 0 0 814.955 59.227 A 30.646 30.646 0 0 0 817.5 58.8 L 817.5 68.8 Q 816.232 69.323 814.434 69.706 A 31.311 31.311 0 0 1 813.15 69.95 A 32.877 32.877 0 0 1 810.279 70.314 A 26.008 26.008 0 0 1 808.2 70.4 Q 800.71 70.4 796.996 67.659 A 9.358 9.358 0 0 1 796.6 67.35 A 11.382 11.382 0 0 1 793.861 63.935 Q 792.38 61.2 791.7 57.15 Q 790.783 51.687 790.567 41.756 A 302.037 302.037 0 0 1 790.5 35.2 Q 790.5 23.381 791.319 16.378 A 56.65 56.65 0 0 1 791.75 13.35 Q 792.533 8.808 794.278 5.915 A 11.075 11.075 0 0 1 796.7 3.05 Q 800.329 0.059 807.903 0.001 A 39.296 39.296 0 0 1 808.2 0 Q 810.9 0 813.45 0.4 A 21.994 21.994 0 0 1 814.854 0.664 Q 816.218 0.97 817.092 1.394 A 5.485 5.485 0 0 1 817.3 1.5 Z M 0 69.6 L 0 0.8 L 16.1 0.8 A 40.546 40.546 0 0 1 20.369 1.008 Q 25.783 1.584 28.5 3.75 Q 32.2 6.7 33.15 13.25 Q 33.866 18.188 34.042 28.157 A 400.15 400.15 0 0 1 34.1 35.2 Q 34.1 46.735 33.56 53.325 A 62.922 62.922 0 0 1 33.15 57.1 A 21.908 21.908 0 0 1 32.288 60.869 Q 31.044 64.622 28.5 66.65 A 10.757 10.757 0 0 1 25.45 68.299 Q 21.877 69.6 16.1 69.6 L 0 69.6 Z M 486.9 69.6 L 486.9 0.8 L 503 0.8 A 40.546 40.546 0 0 1 507.269 1.008 Q 512.683 1.584 515.4 3.75 Q 519.1 6.7 520.05 13.25 Q 520.766 18.188 520.942 28.157 A 400.15 400.15 0 0 1 521 35.2 Q 521 46.735 520.46 53.325 A 62.922 62.922 0 0 1 520.05 57.1 A 21.908 21.908 0 0 1 519.188 60.869 Q 517.944 64.622 515.4 66.65 A 10.757 10.757 0 0 1 512.35 68.299 Q 508.777 69.6 503 69.6 L 486.9 69.6 Z M 720.8 69.6 L 694.9 69.6 L 694.9 0.8 L 707 0.8 L 707 58.5 L 720.8 58.5 L 720.8 69.6 Z M 751.9 69.6 L 726 69.6 L 726 0.8 L 738.1 0.8 L 738.1 58.5 L 751.9 58.5 L 751.9 69.6 Z M 256.25 67.4 A 9.101 9.101 0 0 0 257.609 68.318 Q 261.352 70.4 268.6 70.4 A 46.081 46.081 0 0 0 270.358 70.368 Q 277.685 70.088 281 67.4 A 10.443 10.443 0 0 0 283.14 65.016 Q 285.013 62.176 285.65 57.65 A 65.701 65.701 0 0 0 286.06 53.786 Q 286.6 47.037 286.6 35.2 A 416.663 416.663 0 0 0 286.542 28.015 Q 286.366 17.839 285.65 12.75 Q 285.156 9.243 283.921 6.749 A 11.051 11.051 0 0 0 281 3 Q 278.283 0.797 272.869 0.212 A 39.876 39.876 0 0 0 268.6 0 A 46.011 46.011 0 0 0 266.832 0.033 Q 259.517 0.315 256.25 3 A 10.443 10.443 0 0 0 254.108 5.43 Q 252.282 8.261 251.65 12.75 A 65.701 65.701 0 0 0 251.24 16.615 Q 250.7 23.364 250.7 35.2 A 416.663 416.663 0 0 0 250.758 42.386 Q 250.934 52.561 251.65 57.65 A 25.117 25.117 0 0 0 252.136 60.191 Q 253.327 64.998 256.25 67.4 Z M 567.45 67.4 A 9.101 9.101 0 0 0 568.809 68.318 Q 572.552 70.4 579.8 70.4 A 46.081 46.081 0 0 0 581.558 70.368 Q 588.885 70.088 592.2 67.4 A 10.443 10.443 0 0 0 594.34 65.016 Q 596.213 62.176 596.85 57.65 A 65.701 65.701 0 0 0 597.26 53.786 Q 597.8 47.037 597.8 35.2 A 416.663 416.663 0 0 0 597.742 28.015 Q 597.566 17.839 596.85 12.75 Q 596.356 9.243 595.121 6.749 A 11.051 11.051 0 0 0 592.2 3 Q 589.483 0.797 584.069 0.212 A 39.876 39.876 0 0 0 579.8 0 A 46.011 46.011 0 0 0 578.032 0.033 Q 570.717 0.315 567.45 3 A 10.443 10.443 0 0 0 565.308 5.43 Q 563.482 8.261 562.85 12.75 A 65.701 65.701 0 0 0 562.44 16.615 Q 561.9 23.364 561.9 35.2 A 416.663 416.663 0 0 0 561.958 42.386 Q 562.134 52.561 562.85 57.65 A 25.117 25.117 0 0 0 563.336 60.191 Q 564.527 64.998 567.45 67.4 Z M 657.05 67.4 A 9.101 9.101 0 0 0 658.409 68.318 Q 662.152 70.4 669.4 70.4 A 46.081 46.081 0 0 0 671.158 70.368 Q 678.485 70.088 681.8 67.4 A 10.443 10.443 0 0 0 683.94 65.016 Q 685.813 62.176 686.45 57.65 A 65.701 65.701 0 0 0 686.86 53.786 Q 687.4 47.037 687.4 35.2 A 416.663 416.663 0 0 0 687.342 28.015 Q 687.166 17.839 686.45 12.75 Q 685.956 9.243 684.721 6.749 A 11.051 11.051 0 0 0 681.8 3 Q 679.083 0.797 673.669 0.212 A 39.876 39.876 0 0 0 669.4 0 A 46.011 46.011 0 0 0 667.632 0.033 Q 660.317 0.315 657.05 3 A 10.443 10.443 0 0 0 654.908 5.43 Q 653.082 8.261 652.45 12.75 A 65.701 65.701 0 0 0 652.04 16.615 Q 651.5 23.364 651.5 35.2 A 416.663 416.663 0 0 0 651.558 42.386 Q 651.734 52.561 652.45 57.65 A 25.117 25.117 0 0 0 652.936 60.191 Q 654.127 64.998 657.05 67.4 Z M 884.25 67.4 A 9.101 9.101 0 0 0 885.609 68.318 Q 889.352 70.4 896.6 70.4 A 46.081 46.081 0 0 0 898.358 70.368 Q 905.685 70.088 909 67.4 A 10.443 10.443 0 0 0 911.14 65.016 Q 913.013 62.176 913.65 57.65 A 65.701 65.701 0 0 0 914.06 53.786 Q 914.6 47.037 914.6 35.2 A 416.663 416.663 0 0 0 914.542 28.015 Q 914.366 17.839 913.65 12.75 Q 913.156 9.243 911.921 6.749 A 11.051 11.051 0 0 0 909 3 Q 906.283 0.797 900.869 0.212 A 39.876 39.876 0 0 0 896.6 0 A 46.011 46.011 0 0 0 894.832 0.033 Q 887.517 0.315 884.25 3 A 10.443 10.443 0 0 0 882.108 5.43 Q 880.282 8.261 879.65 12.75 A 65.701 65.701 0 0 0 879.24 16.615 Q 878.7 23.364 878.7 35.2 A 416.663 416.663 0 0 0 878.758 42.386 Q 878.934 52.561 879.65 57.65 A 25.117 25.117 0 0 0 880.136 60.191 Q 881.327 64.998 884.25 67.4 Z M 53.8 69.6 L 41.8 69.6 L 41.8 0.8 L 53.8 0.8 L 53.8 69.6 Z M 164.7 69.6 L 152.7 69.6 L 152.7 0.8 L 164.7 0.8 L 164.7 69.6 Z M 364.9 69.6 L 352.9 69.6 L 352.9 0.8 L 364.9 0.8 L 364.9 69.6 Z M 478.1 69.6 L 466.1 69.6 L 466.1 0.8 L 478.1 0.8 L 478.1 69.6 Z M 871 69.6 L 859 69.6 L 859 0.8 L 871 0.8 L 871 69.6 Z M 272.262 58.68 A 2.611 2.611 0 0 0 272.7 58.3 Q 273.707 57.202 274.085 53.172 A 40.116 40.116 0 0 0 274.15 52.4 A 82.012 82.012 0 0 0 274.299 49.666 Q 274.453 45.843 274.489 39.395 A 751.857 751.857 0 0 0 274.5 35.2 A 704.205 704.205 0 0 0 274.479 29.603 Q 274.415 21.562 274.15 18 Q 273.8 13.3 272.7 12.1 A 2.982 2.982 0 0 0 271.664 11.393 Q 270.723 10.987 269.252 10.916 A 13.46 13.46 0 0 0 268.6 10.9 A 11.697 11.697 0 0 0 267.232 10.974 Q 265.825 11.141 265.027 11.682 A 2.485 2.485 0 0 0 264.55 12.1 A 3.051 3.051 0 0 0 264.073 12.906 Q 263.402 14.469 263.1 18.05 A 73.694 73.694 0 0 0 262.93 20.8 Q 262.7 25.803 262.7 35.2 A 608.073 608.073 0 0 0 262.723 40.758 Q 262.786 47.58 263.016 51.201 A 56.225 56.225 0 0 0 263.1 52.35 A 38.82 38.82 0 0 0 263.273 54.007 Q 263.697 57.325 264.55 58.3 Q 265.6 59.5 268.6 59.5 Q 271.08 59.5 272.262 58.68 Z M 583.462 58.68 A 2.611 2.611 0 0 0 583.9 58.3 Q 584.907 57.202 585.285 53.172 A 40.116 40.116 0 0 0 585.35 52.4 A 82.012 82.012 0 0 0 585.499 49.666 Q 585.653 45.843 585.689 39.395 A 751.857 751.857 0 0 0 585.7 35.2 A 704.205 704.205 0 0 0 585.679 29.603 Q 585.615 21.562 585.35 18 Q 585 13.3 583.9 12.1 A 2.982 2.982 0 0 0 582.864 11.393 Q 581.923 10.987 580.452 10.916 A 13.46 13.46 0 0 0 579.8 10.9 A 11.697 11.697 0 0 0 578.432 10.974 Q 577.025 11.141 576.227 11.682 A 2.485 2.485 0 0 0 575.75 12.1 A 3.051 3.051 0 0 0 575.273 12.906 Q 574.602 14.469 574.3 18.05 A 73.694 73.694 0 0 0 574.13 20.8 Q 573.9 25.803 573.9 35.2 A 608.073 608.073 0 0 0 573.923 40.758 Q 573.986 47.58 574.216 51.201 A 56.225 56.225 0 0 0 574.3 52.35 A 38.82 38.82 0 0 0 574.473 54.007 Q 574.897 57.325 575.75 58.3 Q 576.8 59.5 579.8 59.5 Q 582.28 59.5 583.462 58.68 Z M 673.062 58.68 A 2.611 2.611 0 0 0 673.5 58.3 Q 674.507 57.202 674.885 53.172 A 40.116 40.116 0 0 0 674.95 52.4 A 82.012 82.012 0 0 0 675.099 49.666 Q 675.253 45.843 675.289 39.395 A 751.857 751.857 0 0 0 675.3 35.2 A 704.205 704.205 0 0 0 675.279 29.603 Q 675.215 21.562 674.95 18 Q 674.6 13.3 673.5 12.1 A 2.982 2.982 0 0 0 672.464 11.393 Q 671.523 10.987 670.052 10.916 A 13.46 13.46 0 0 0 669.4 10.9 A 11.697 11.697 0 0 0 668.032 10.974 Q 666.625 11.141 665.827 11.682 A 2.485 2.485 0 0 0 665.35 12.1 A 3.051 3.051 0 0 0 664.873 12.906 Q 664.202 14.469 663.9 18.05 A 73.694 73.694 0 0 0 663.73 20.8 Q 663.5 25.803 663.5 35.2 A 608.073 608.073 0 0 0 663.523 40.758 Q 663.586 47.58 663.816 51.201 A 56.225 56.225 0 0 0 663.9 52.35 A 38.82 38.82 0 0 0 664.073 54.007 Q 664.497 57.325 665.35 58.3 Q 666.4 59.5 669.4 59.5 Q 671.88 59.5 673.062 58.68 Z M 900.262 58.68 A 2.611 2.611 0 0 0 900.7 58.3 Q 901.707 57.202 902.085 53.172 A 40.116 40.116 0 0 0 902.15 52.4 A 82.012 82.012 0 0 0 902.299 49.666 Q 902.453 45.843 902.489 39.395 A 751.857 751.857 0 0 0 902.5 35.2 A 704.205 704.205 0 0 0 902.479 29.603 Q 902.415 21.562 902.15 18 Q 901.8 13.3 900.7 12.1 A 2.982 2.982 0 0 0 899.664 11.393 Q 898.723 10.987 897.252 10.916 A 13.46 13.46 0 0 0 896.6 10.9 A 11.697 11.697 0 0 0 895.232 10.974 Q 893.825 11.141 893.027 11.682 A 2.485 2.485 0 0 0 892.55 12.1 A 3.051 3.051 0 0 0 892.073 12.906 Q 891.402 14.469 891.1 18.05 A 73.694 73.694 0 0 0 890.93 20.8 Q 890.7 25.803 890.7 35.2 A 608.073 608.073 0 0 0 890.723 40.758 Q 890.786 47.58 891.016 51.201 A 56.225 56.225 0 0 0 891.1 52.35 A 38.82 38.82 0 0 0 891.273 54.007 Q 891.697 57.325 892.55 58.3 Q 893.6 59.5 896.6 59.5 Q 899.08 59.5 900.262 58.68 Z M 11.9 58.7 L 16.1 58.7 A 13.075 13.075 0 0 0 17.505 58.631 Q 18.936 58.475 19.765 57.973 A 2.593 2.593 0 0 0 20.3 57.55 A 2.877 2.877 0 0 0 20.806 56.76 Q 21.422 55.421 21.727 52.556 A 38.938 38.938 0 0 0 21.8 51.8 A 69.151 69.151 0 0 0 21.97 49.138 Q 22.2 44.294 22.2 35.2 A 569.538 569.538 0 0 0 22.177 29.822 Q 22.114 23.219 21.884 19.713 A 52.781 52.781 0 0 0 21.8 18.6 A 33.308 33.308 0 0 0 21.592 16.753 Q 21.212 14.114 20.503 13.1 A 2.109 2.109 0 0 0 20.3 12.85 A 2.904 2.904 0 0 0 19.335 12.207 Q 18.421 11.813 16.973 11.725 A 14.446 14.446 0 0 0 16.1 11.7 L 11.9 11.7 L 11.9 58.7 Z M 498.8 58.7 L 503 58.7 A 13.075 13.075 0 0 0 504.405 58.631 Q 505.836 58.475 506.665 57.973 A 2.593 2.593 0 0 0 507.2 57.55 A 2.877 2.877 0 0 0 507.706 56.76 Q 508.322 55.421 508.627 52.556 A 38.938 38.938 0 0 0 508.7 51.8 A 69.151 69.151 0 0 0 508.87 49.138 Q 509.1 44.294 509.1 35.2 A 569.538 569.538 0 0 0 509.077 29.822 Q 509.014 23.219 508.784 19.713 A 52.781 52.781 0 0 0 508.7 18.6 A 33.308 33.308 0 0 0 508.492 16.753 Q 508.112 14.114 507.403 13.1 A 2.109 2.109 0 0 0 507.2 12.85 A 2.904 2.904 0 0 0 506.235 12.207 Q 505.321 11.813 503.873 11.725 A 14.446 14.446 0 0 0 503 11.7 L 498.8 11.7 L 498.8 58.7 Z" vector-effect="non-scaling-stroke"/></g></svg>