<svg width="130.464" height="66.048" viewBox="0 0 130.464 66.048" xmlns="http://www.w3.org/2000/svg"><g id="svgGroup" stroke-linecap="round" fill-rule="evenodd" font-size="9pt" stroke="#ffffff" stroke-width="0" fill="#ffffff" style="stroke:#ffffff;stroke-width:0;fill:#ffffff"><path d="M 11.616 66.048 L 0 66.048 L 0 0 L 25.056 0 L 25.056 10.464 L 11.616 10.464 L 11.616 28.8 L 23.52 28.8 L 23.52 39.264 L 11.616 39.264 L 11.616 66.048 Z" id="0" vector-effect="non-scaling-stroke"/><path d="M 65.376 66.048 L 53.472 66.048 L 47.904 42.528 L 47.712 42.528 L 42.432 42.528 L 42.432 66.048 L 30.816 66.048 L 30.816 0 L 48.96 0 A 27.824 27.824 0 0 1 52.324 0.19 Q 56.157 0.658 58.443 2.28 A 8.464 8.464 0 0 1 58.608 2.4 A 11.004 11.004 0 0 1 62.362 7.505 A 14.614 14.614 0 0 1 62.88 9.216 Q 63.936 13.632 63.936 21.216 Q 63.936 28.362 62.974 32.754 A 25.416 25.416 0 0 1 62.88 33.168 A 12.207 12.207 0 0 1 61.464 36.716 A 10.173 10.173 0 0 1 58.368 39.936 L 65.376 66.048 Z M 47.04 10.464 L 42.432 10.464 L 42.432 32.352 L 47.04 32.352 Q 49.169 32.352 50.285 31.759 A 2.836 2.836 0 0 0 50.64 31.536 Q 51.703 30.751 52.054 28.674 A 9.98 9.98 0 0 0 52.08 28.512 Q 52.333 26.848 52.396 23.655 A 115.542 115.542 0 0 0 52.416 21.408 Q 52.416 17.717 52.225 15.554 A 20.22 20.22 0 0 0 52.08 14.304 A 8.141 8.141 0 0 0 51.839 13.201 Q 51.442 11.873 50.64 11.28 Q 49.646 10.545 47.522 10.472 A 14.041 14.041 0 0 0 47.04 10.464 Z" id="1" vector-effect="non-scaling-stroke"/><path d="M 97.344 66.048 L 71.04 66.048 L 71.04 0 L 97.344 0 L 97.344 10.464 L 82.656 10.464 L 82.656 27.456 L 95.52 27.456 L 95.52 37.92 L 82.656 37.92 L 82.656 55.584 L 97.344 55.584 L 97.344 66.048 Z" id="2" vector-effect="non-scaling-stroke"/><path d="M 130.464 66.048 L 104.16 66.048 L 104.16 0 L 130.464 0 L 130.464 10.464 L 115.776 10.464 L 115.776 27.456 L 128.64 27.456 L 128.64 37.92 L 115.776 37.92 L 115.776 55.584 L 130.464 55.584 L 130.464 66.048 Z" id="3" vector-effect="non-scaling-stroke"/></g></svg>