<svg version="1.2" xmlns="http://www.w3.org/2000/svg" viewBox="0 0 201 174" width="201" height="174">
	<title>New Project</title>
	<style>
		.s0 { fill: #ffffff } 
	</style>
	<path id="HE'S  LOOKING  FORWARD  TO IT!" fill-rule="evenodd" class="s0" d="m6.5 29h-3q-1.4 0-1.4-1.5v-25q0-1.5 1.4-1.5h3q1.3 0 1.3 1.5v9.5h10.5v-9.5q0-1.5 1.4-1.5h3q1.3 0 1.3 1.5v25q0 1.5-1.3 1.5h-3q-1.4 0-1.4-1.5v-10.6h-10.5v10.6q0 1.5-1.3 1.5zm42.5 0h-17.3q-1.4 0-1.4-1.5v-25q0-1.5 1.4-1.5h16.7q1.5 0 1.5 1.3v2.3q0 1.2-1.5 1.2h-12.4v6.2h11.4q1.4 0 1.4 1.3v2.3q0 1.3-1.4 1.3h-11.4v7.3h13q1.5 0 1.5 1.2v2.3q0 1.3-1.5 1.3zm6.4-17.3l-0.5-10.1q0-1.3 1-1.3h3.4q1.1 0 1 1.3l-0.4 10.1q-0.1 1.2-1 1.2h-2.5q-0.9 0-1-1.2zm10.5 15.2q-1.2-0.9-0.6-1.8l1.6-2.3q0.7-1.1 2.1-0.1 1.1 0.7 2.9 1.6 1.7 0.8 3.7 0.8 1.4 0 2.6-0.4 1.3-0.3 2-1.2 0.6-0.9 0.6-2.1 0-0.9-0.3-1.5-0.2-0.7-0.9-1.1-0.7-0.5-1.4-0.8-1.2-0.5-3.1-1-1.8-0.5-3.7-1.2-1.6-0.6-2.9-1.7-1.4-1.1-2.1-2.4-0.8-1.4-0.8-3.7 0-2.7 1.8-4.6 1.8-2 4-2.5 2.3-0.6 4.7-0.6 2.3 0 4.7 0.7 2.5 0.7 3.7 1.8 1.2 1 0.6 1.9l-1.6 2.1q-0.8 1.1-2.1 0.2-0.9-0.6-2.4-1.3-1.5-0.8-3.1-0.8-1.1 0-2.1 0.2-1 0.2-1.7 1-0.8 0.7-0.8 1.8 0 1.1 0.6 1.7 0.5 0.7 1.2 1 0.7 0.3 1.3 0.5 2.2 0.7 3.8 1.2 1.7 0.5 3.1 1.2 1.9 0.9 3 1.7 1 0.9 1.7 2.4 0.7 1.6 0.7 3.7 0 3.1-2 5.1-2 2.1-4.5 2.7-2.4 0.6-4.7 0.6-3.4 0-5.5-0.7-2.2-0.6-4.1-2.1zm-46.7 50.1h-15.7q-1.4 0-1.4-1.5v-25q0-1.5 1.4-1.5h3.2q1.1 0 1.1 1.5v21.7h11.4q1.5 0 1.5 1.2v2.3q0 1.3-1.5 1.3zm4.2-14q0-6.7 3.5-10.7 3.4-4 9.9-4 6.4 0 9.9 4 3.5 4 3.5 10.7 0 6.7-3.5 10.7-3.5 4-9.9 4-6.5 0-9.9-4-3.5-4-3.5-10.7zm6.1 0q0 4.9 1.7 7.5 1.8 2.6 5.6 2.6 3.8 0 5.5-2.6 1.8-2.6 1.8-7.5 0-4.9-1.8-7.5-1.7-2.6-5.5-2.6-3.8 0-5.6 2.6-1.7 2.6-1.7 7.5zm24 0q0-6.7 3.5-10.7 3.5-4 9.9-4 6.5 0 10 4 3.4 4 3.4 10.7 0 6.7-3.4 10.7-3.5 4-10 4-6.4 0-9.9-4-3.5-4-3.5-10.7zm6.1 0q0 4.9 1.8 7.5 1.7 2.6 5.5 2.6 3.8 0 5.6-2.6 1.7-2.6 1.7-7.5 0-4.9-1.7-7.5-1.8-2.6-5.6-2.6-3.8 0-5.5 2.6-1.8 2.6-1.8 7.5zm29.9 14h-3q-1.4 0-1.4-1.5v-25q0-1.5 1.4-1.5h3q1.3 0 1.3 1.5v7.7q0 1.2-0.1 2.4h0.2l9.5-10.5q1-1.1 1.8-1.1h3.9q2.3 0 0.7 1.7l-8.9 9.7 9.6 14.9q1 1.7-0.8 1.7h-3.6q-1.1 0-1.8-1.2l-7.2-11.2-3.3 3.7v7.2q0 1.5-1.3 1.5zm26.6 0h-3q-1.4 0-1.4-1.5v-25q0-1.5 1.4-1.5h3q1.3 0 1.3 1.5v25q0 1.5-1.3 1.5zm11.9 0h-3q-1.3 0-1.3-1.5v-25q0-1.5 1.3-1.5h2.9q1.7 0 2.6 1.4l9.9 16h0.2q-0.1-1.2-0.1-2.4v-13.5q0-1.5 1.3-1.5h3q1.4 0 1.4 1.5v25q0 1.5-1.4 1.5h-2.7q-1.7 0-2.5-1.4l-10.2-16.3h-0.1q0.1 1.2 0.1 2.4v13.8q0 1.5-1.4 1.5zm23-14q0-6.7 3.5-10.7 3.5-4 9.9-4 3.9 0 6.1 1 2.3 1 3.9 3.1 1.1 1.3 0 2l-2.2 1.4q-1 0.7-2.1-0.5-0.9-1-2.3-1.7-1.5-0.7-3.2-0.7-4.1 0-5.8 2.6-1.7 2.6-1.7 7.5 0 4.9 1.7 7.5 1.7 2.6 5.8 2.6 2 0 3.5-0.4 1.4-0.4 2.7-1.5v-3.5h-4.2q-1.5 0-1.5-1.3v-2.3q0-1.2 1.5-1.2h8.5q1.4 0 1.4 1.2v10q-2.7 2-5.5 2.8-2.8 0.8-6.6 0.8-6.3 0-9.9-4-3.5-4-3.5-10.7zm-144.5 62h-3q-1.4 0-1.4-1.5v-25q0-1.5 1.4-1.5h15.4q1.5 0 1.5 1.3v2.3q0 1.2-1.5 1.2h-11.1v6.8h9.5q1.5 0 1.5 1.3v2.3q0 1.3-1.5 1.3h-9.5v10q0 1.5-1.3 1.5zm17.1-14q0-6.7 3.5-10.7 3.5-4 9.9-4 6.5 0 10 4 3.4 4 3.4 10.7 0 6.7-3.4 10.7-3.5 4-10 4-6.4 0-9.9-4-3.5-4-3.5-10.7zm6.1 0q0 4.9 1.8 7.5 1.7 2.6 5.5 2.6 3.9 0 5.6-2.6 1.8-2.6 1.8-7.5 0-4.9-1.8-7.5-1.7-2.6-5.6-2.6-3.8 0-5.5 2.6-1.8 2.6-1.8 7.5zm29.9 14h-3q-1.3 0-1.3-1.5v-25q0-1.5 1.3-1.5h9.1q6 0 8.8 1.9 2.7 1.8 2.7 6 0 3.1-2.2 5-2.2 1.9-5.7 2.5 1.9 0.7 2.8 2 1 1.2 1.6 2.1l4.3 6.8q1.1 1.7-0.8 1.7h-3.4q-1 0-1.7-1.2l-4-6.5q-0.6-1.1-2.3-2.3-1.7-1.3-3.4-1.3h-1.4v9.8q0 1.5-1.4 1.5zm1.4-23.2v7h3.4q4 0 5.6-0.8 1.7-0.9 1.7-2.9 0-2.1-1.6-2.7-1.6-0.6-4.7-0.6zm26.6 21.3l-6.7-24.5q-0.4-1.6 0.9-1.6h3.6q1 0 1.3 1.3l3.7 15.3q0.4 1.7 0.5 2.3 0.1 0.6 0.2 2h0.1q0.1-1.4 0.2-2.1 0.1-0.7 0.6-2.3l4.4-15.1q0.4-1.4 1.6-1.4h3.6q1.2 0 1.6 1.4l4.4 15.1q0.5 1.6 0.6 2.3 0.1 0.7 0.2 2.1 0.1-1.4 0.3-2 0.1-0.6 0.5-2.3l3.7-15.3q0.3-1.3 1.3-1.3h3.6q1.3 0 0.9 1.6l-6.7 24.5q-0.5 1.9-1.8 1.9h-3.4q-1.2 0-1.7-1.9l-4.7-16.3q-0.4-1.4-0.4-1.8-0.1-0.4-0.2-1.5-0.1 1.1-0.2 1.5 0 0.4-0.4 1.8l-4.7 16.3q-0.5 1.9-1.7 1.9h-3.4q-1.3 0-1.8-1.9zm34.9 1.9h-3.1q-1.4 0-0.9-1.3l9.6-25.1q0.6-1.6 1.8-1.6h2.7q1.3 0 1.9 1.6l9.5 25.1q0.5 1.3-0.9 1.3h-3.1q-1.3 0-1.8-1.3l-2-5.3h-9.9l-2 5.3q-0.5 1.3-1.8 1.3zm8-17.7l-2.4 6.3h6.3l-2.4-6.3q-0.4-1.1-0.5-1.5-0.1-0.5-0.2-1.5h-0.1q-0.1 1-0.2 1.5-0.1 0.4-0.5 1.5zm21.8 17.7h-2.9q-1.4 0-1.4-1.5v-25q0-1.5 1.4-1.5h9q6 0 8.8 1.9 2.8 1.8 2.8 6 0 3.1-2.3 5-2.2 1.9-5.7 2.5 1.9 0.7 2.9 2 0.9 1.2 1.5 2.1l4.3 6.8q1.1 1.7-0.7 1.7h-3.4q-1.1 0-1.8-1.2l-3.9-6.5q-0.7-1.1-2.4-2.3-1.7-1.3-3.4-1.3h-1.4v9.8q0 1.5-1.4 1.5zm1.4-23.2v7h3.5q3.9 0 5.5-0.8 1.7-0.9 1.7-2.9 0-2.1-1.6-2.7-1.6-0.6-4.7-0.6zm30.4 23.2h-6.8q-1.4 0-1.4-1.5v-25q0-1.5 1.4-1.5h6.8q9 0 12.2 3.6 3.1 3.7 3.1 10.4 0 6.7-3.1 10.3-3.2 3.7-12.2 3.7zm-2.5-23.2v18.4h2.1q6.1 0 7.9-2.3 1.7-2.3 1.7-6.9 0-4.7-1.7-7-1.8-2.2-7.9-2.2zm-173.2 48.2h-7.2q-1.5 0-1.5-1.3v-2.4q0-1.3 1.5-1.3h20.1q1.4 0 1.4 1.3v2.4q0 1.3-1.4 1.3h-7.2v21.9q0 1.1-1 1.1h-3.7q-1 0-1-1.1zm16.7 9q0-6.7 3.5-10.7 3.4-3.9 9.9-3.9 6.4 0 9.9 3.9 3.5 4 3.5 10.7 0 6.8-3.5 10.7-3.5 4-9.9 4-6.5 0-9.9-4-3.5-3.9-3.5-10.7zm6.1 0q0 4.9 1.7 7.5 1.8 2.6 5.6 2.6 3.8 0 5.5-2.6 1.8-2.6 1.8-7.5 0-4.9-1.8-7.4-1.7-2.6-5.5-2.6-3.8 0-5.6 2.6-1.7 2.5-1.7 7.4zm43.5 14h-3q-1.3 0-1.3-1.4v-25.1q0-1.5 1.3-1.5h3q1.4 0 1.4 1.5v25.1q0 1.4-1.4 1.4zm13.8-23h-7.2q-1.4 0-1.4-1.2v-2.5q0-1.3 1.4-1.3h20.1q1.5 0 1.5 1.3v2.5q0 1.2-1.5 1.2h-7.2v22q0 1-1 1h-3.7q-1 0-1-1zm19.2 13.5l-0.6-17.1q0-1.4 1.4-1.4h3.1q1.4 0 1.4 1.4l-0.5 17.1q-0.1 1.3-1.3 1.3h-2.3q-1.2 0-1.2-1.3zm3.8 9.5h-2.9q-1.4 0-1.4-1.5v-2.6q0-1.5 1.4-1.5h2.9q1.4 0 1.4 1.5v2.6q0 1.5-1.4 1.5z"/>
</svg>