<svg width="265.248" height="61.728" viewBox="0 0 265.248 61.728" xmlns="http://www.w3.org/2000/svg"><g id="svgGroup" stroke-linecap="round" fill-rule="evenodd" font-size="9pt" stroke="#000000" stroke-width="5" fill="#ffffff" style="stroke:#000000;stroke-width:5;fill:#ffffff"><path d="M 66.432 0 L 53.28 60.96 L 32.544 60.96 L 38.304 33.792 L 26.496 33.792 L 20.736 60.96 L 0 60.96 L 12.96 0 L 33.792 0 L 28.128 26.496 L 39.84 26.496 L 45.504 0 L 66.432 0 Z" id="0" vector-effect="non-scaling-stroke"/><path d="M 99.457 18.934 A 51.289 51.289 0 0 0 93.6 18.624 A 55.222 55.222 0 0 0 88.687 18.833 Q 79.93 19.616 74.4 23.328 Q 69.6 26.688 67.056 31.776 A 23.29 23.29 0 0 0 65.504 35.759 A 26.44 26.44 0 0 0 64.512 43.104 A 30.629 30.629 0 0 0 64.541 44.457 Q 64.913 52.857 69.984 57.216 A 12.494 12.494 0 0 0 71.207 58.169 Q 74.842 60.664 81.081 61.41 A 49.01 49.01 0 0 0 86.88 61.728 Q 94.44 61.728 100.048 59.891 A 23.595 23.595 0 0 0 108 55.584 A 19.929 19.929 0 0 0 110.315 53.207 A 22.202 22.202 0 0 0 113.664 47.568 A 25.268 25.268 0 0 0 115.111 42.759 A 31.311 31.311 0 0 0 115.68 36.672 Q 115.68 26.88 110.208 22.656 A 13.01 13.01 0 0 0 109.18 21.935 Q 105.552 19.637 99.457 18.934 Z M 87.072 55.2 A 4.194 4.194 0 0 0 89.797 54.176 Q 90.568 53.541 91.248 52.512 Q 93.024 49.824 94.08 45.936 Q 95.136 42.048 95.664 37.872 Q 96.068 34.675 96.163 32.125 A 40.465 40.465 0 0 0 96.192 30.624 Q 96.192 27.936 95.664 26.544 A 2.086 2.086 0 0 0 95.037 25.643 Q 94.434 25.152 93.408 25.152 Q 90.927 25.152 89.106 27.702 A 10.088 10.088 0 0 0 88.944 27.936 A 21.65 21.65 0 0 0 87.066 31.402 A 28.439 28.439 0 0 0 85.92 34.56 Q 84.768 38.4 84.24 42.432 A 84.382 84.382 0 0 0 83.962 44.802 Q 83.712 47.244 83.712 48.96 Q 83.712 52.797 84.983 54.275 A 2.622 2.622 0 0 0 87.072 55.2 Z" id="1" vector-effect="non-scaling-stroke"/><path d="M 147.936 49.536 L 154.368 19.68 L 173.952 19.68 L 165.12 60.96 L 149.568 60.96 L 147.84 54.816 L 147.264 54.816 A 16.886 16.886 0 0 1 143.784 57.92 A 22.86 22.86 0 0 1 140.496 59.76 A 21.345 21.345 0 0 1 134.868 61.495 A 19.061 19.061 0 0 1 131.904 61.728 A 18.253 18.253 0 0 1 128.258 61.386 Q 125.028 60.727 122.88 58.8 A 9.656 9.656 0 0 1 119.629 51.749 A 13.095 13.095 0 0 1 119.616 51.168 A 18.34 18.34 0 0 1 119.721 49.288 Q 119.815 48.381 119.993 47.351 A 42.859 42.859 0 0 1 120.432 45.168 Q 121.248 41.568 121.92 38.4 L 125.952 19.68 L 145.44 19.68 L 140.64 42.144 Q 140.448 42.912 140.256 43.968 Q 140.064 45.024 139.872 46.032 Q 139.68 47.04 139.536 47.952 A 15.757 15.757 0 0 0 139.46 48.489 Q 139.394 49.026 139.392 49.414 A 4.69 4.69 0 0 0 139.392 49.44 A 5.534 5.534 0 0 0 139.507 50.598 A 4.03 4.03 0 0 0 140.016 51.888 Q 140.569 52.781 141.912 52.883 A 4.754 4.754 0 0 0 142.272 52.896 Q 144 52.896 145.536 51.744 Q 146.712 50.862 147.494 50.036 A 9.214 9.214 0 0 0 147.936 49.536 Z" id="2" vector-effect="non-scaling-stroke"/><path d="M 173.76 60.96 L 182.496 19.68 L 198.144 19.68 L 199.584 26.88 L 200.256 26.88 Q 202.464 23.424 205.92 21.024 A 12.556 12.556 0 0 1 209.91 19.229 Q 212.197 18.624 215.04 18.624 Q 215.424 18.624 216.24 18.672 A 8.807 8.807 0 0 1 217.047 18.759 Q 217.468 18.823 217.931 18.929 A 14.755 14.755 0 0 1 218.064 18.96 Q 219.072 19.2 220.176 19.632 Q 221.28 20.064 222.336 20.832 L 218.112 40.608 L 207.648 40.608 Q 207.456 34.668 206.596 32.314 A 6.703 6.703 0 0 0 206.592 32.304 Q 206.098 30.958 205.257 30.382 A 2.502 2.502 0 0 0 203.808 29.952 Q 202.855 29.952 201.76 30.378 A 7.984 7.984 0 0 0 201.744 30.384 A 3.82 3.82 0 0 0 200.892 30.862 Q 200.199 31.367 199.488 32.256 L 193.344 60.96 L 173.76 60.96 Z" id="3" vector-effect="non-scaling-stroke"/><path d="M 263.04 31.776 L 250.56 31.776 L 250.752 30.816 Q 250.848 30.336 250.848 29.76 A 8.422 8.422 0 0 0 250.475 27.231 A 7.789 7.789 0 0 0 250.224 26.544 A 2.373 2.373 0 0 0 249.519 25.581 Q 249.076 25.228 248.441 25.112 A 3.71 3.71 0 0 0 247.776 25.056 Q 246.144 25.056 244.512 26.448 A 4.545 4.545 0 0 0 242.89 29.781 A 6.21 6.21 0 0 0 242.88 30.144 A 4.689 4.689 0 0 0 242.985 31.167 Q 243.147 31.89 243.556 32.423 A 2.906 2.906 0 0 0 243.696 32.592 A 5.41 5.41 0 0 0 244.851 33.557 A 7.184 7.184 0 0 0 245.856 34.08 A 15.874 15.874 0 0 0 247.474 34.667 A 20.333 20.333 0 0 0 248.88 35.04 Q 250.56 35.424 252.192 35.808 A 35.32 35.32 0 0 1 256.04 37 A 32.002 32.002 0 0 1 256.56 37.2 Q 258.624 38.016 260.256 39.36 Q 261.888 40.704 262.848 42.672 Q 263.808 44.64 263.808 47.52 Q 263.808 51.552 261.936 54.288 Q 260.064 57.024 256.752 58.704 A 22.349 22.349 0 0 1 252.785 60.24 A 30.131 30.131 0 0 1 248.976 61.056 A 60.549 60.549 0 0 1 242.696 61.656 A 72.544 72.544 0 0 1 239.424 61.728 A 86.636 86.636 0 0 1 234.182 61.579 Q 231.728 61.43 229.623 61.131 A 38.225 38.225 0 0 1 226.56 60.576 Q 222.724 59.708 220.634 58.894 A 11.766 11.766 0 0 1 219.456 58.368 L 221.472 48.768 L 234.432 48.768 Q 234.336 49.248 234.336 49.68 L 234.336 50.592 Q 234.336 52.279 234.925 53.434 A 4.131 4.131 0 0 0 235.344 54.096 A 2.997 2.997 0 0 0 236.643 55.037 Q 237.148 55.237 237.783 55.324 A 7.824 7.824 0 0 0 238.848 55.392 A 7.712 7.712 0 0 0 240.289 55.267 Q 241.969 54.947 242.832 53.808 A 7.833 7.833 0 0 0 243.465 52.841 Q 243.748 52.323 243.89 51.832 A 3.421 3.421 0 0 0 244.032 50.88 A 3.206 3.206 0 0 0 243.088 48.593 A 4.21 4.21 0 0 0 243.024 48.528 A 7.992 7.992 0 0 0 241.646 47.436 A 10.474 10.474 0 0 0 240.48 46.8 Q 238.944 46.08 237.072 45.552 Q 235.2 45.024 233.472 44.544 Q 232.413 44.3 231.112 43.779 A 25.057 25.057 0 0 1 230.64 43.584 Q 229.056 42.912 227.616 41.664 A 9.297 9.297 0 0 1 225.898 39.662 A 11.683 11.683 0 0 1 225.216 38.448 Q 224.42 36.816 224.284 34.492 A 16.916 16.916 0 0 1 224.256 33.504 A 14.268 14.268 0 0 1 224.61 30.245 A 10.394 10.394 0 0 1 226.32 26.448 A 15.155 15.155 0 0 1 231.287 22.108 A 17.675 17.675 0 0 1 231.696 21.888 Q 235.008 20.16 239.184 19.392 Q 243.36 18.624 247.584 18.624 A 51.919 51.919 0 0 1 254.876 19.12 A 45.179 45.179 0 0 1 257.568 19.584 A 41.947 41.947 0 0 1 260.845 20.383 Q 262.413 20.837 263.722 21.377 A 19.71 19.71 0 0 1 265.248 22.08 L 263.04 31.776 Z" id="4" vector-effect="non-scaling-stroke"/></g></svg>