<svg width="100%" height="100%" viewBox="0 0 359.6 70.401" xmlns="http://www.w3.org/2000/svg"><g id="svgGroup" stroke-linecap="round" fill-rule="evenodd" font-size="9pt" stroke="#ffffff" stroke-width="0" fill="#000" style="stroke:#ffffff;stroke-width:0;fill:#000"><path d="M 56.1 69.6 L 45.4 69.6 L 32.7 30.8 L 32.3 30.8 L 32.3 69.6 L 20.8 69.6 L 20.8 0.8 L 32.2 0.8 L 44.1 36.9 L 44.7 36.9 L 44.7 0.8 L 56.1 0.8 L 56.1 69.6 Z M 359.6 69.6 L 348.9 69.6 L 336.2 30.8 L 335.8 30.8 L 335.8 69.6 L 324.3 69.6 L 324.3 0.8 L 335.7 0.8 L 347.6 36.9 L 348.2 36.9 L 348.2 0.8 L 359.6 0.8 L 359.6 69.6 Z M 116.8 69.6 L 104.6 69.6 L 102.3 54.5 L 90.5 54.5 L 88.2 69.6 L 76.3 69.6 L 87.6 0.8 L 105.4 0.8 L 116.8 69.6 Z M 245.3 69.6 L 233.2 69.6 L 233.2 11.9 L 222.5 11.9 L 222.5 0.8 L 256 0.8 L 256 11.9 L 245.3 11.9 L 245.3 69.6 Z M 121.9 69.6 L 121.9 0.8 L 138 0.8 A 40.546 40.546 0 0 1 142.269 1.008 Q 147.683 1.584 150.4 3.75 Q 154.1 6.7 155.05 13.25 Q 155.766 18.188 155.942 28.157 A 400.15 400.15 0 0 1 156 35.2 Q 156 46.735 155.46 53.325 A 62.922 62.922 0 0 1 155.05 57.1 A 21.908 21.908 0 0 1 154.188 60.869 Q 152.944 64.622 150.4 66.65 A 10.757 10.757 0 0 1 147.35 68.299 Q 143.777 69.6 138 69.6 L 121.9 69.6 Z M 163.5 69.6 L 163.5 0.8 L 179.6 0.8 A 40.546 40.546 0 0 1 183.869 1.008 Q 189.283 1.584 192 3.75 Q 195.7 6.7 196.65 13.25 Q 197.366 18.188 197.542 28.157 A 400.15 400.15 0 0 1 197.6 35.2 Q 197.6 46.735 197.06 53.325 A 62.922 62.922 0 0 1 196.65 57.1 A 21.908 21.908 0 0 1 195.788 60.869 Q 194.544 64.622 192 66.65 A 10.757 10.757 0 0 1 188.95 68.299 Q 185.377 69.6 179.6 69.6 L 163.5 69.6 Z M 286.45 67.4 A 9.101 9.101 0 0 0 287.809 68.318 Q 291.552 70.4 298.8 70.4 A 46.081 46.081 0 0 0 300.558 70.368 Q 307.885 70.088 311.2 67.4 A 10.443 10.443 0 0 0 313.34 65.016 Q 315.213 62.176 315.85 57.65 A 65.701 65.701 0 0 0 316.26 53.786 Q 316.8 47.037 316.8 35.2 A 416.663 416.663 0 0 0 316.742 28.015 Q 316.566 17.839 315.85 12.75 Q 315.356 9.243 314.121 6.749 A 11.051 11.051 0 0 0 311.2 3 Q 308.483 0.797 303.069 0.212 A 39.876 39.876 0 0 0 298.8 0 A 46.011 46.011 0 0 0 297.032 0.033 Q 289.717 0.315 286.45 3 A 10.443 10.443 0 0 0 284.308 5.43 Q 282.482 8.261 281.85 12.75 A 65.701 65.701 0 0 0 281.44 16.615 Q 280.9 23.364 280.9 35.2 A 416.663 416.663 0 0 0 280.958 42.386 Q 281.134 52.561 281.85 57.65 A 25.117 25.117 0 0 0 282.336 60.191 Q 283.527 64.998 286.45 67.4 Z M 12 69.6 L 0 69.6 L 0 0.8 L 12 0.8 L 12 69.6 Z M 217.3 69.6 L 205.3 69.6 L 205.3 0.8 L 217.3 0.8 L 217.3 69.6 Z M 273.2 69.6 L 261.2 69.6 L 261.2 0.8 L 273.2 0.8 L 273.2 69.6 Z M 302.462 58.68 A 2.611 2.611 0 0 0 302.9 58.3 Q 303.907 57.202 304.285 53.172 A 40.116 40.116 0 0 0 304.35 52.4 A 82.012 82.012 0 0 0 304.499 49.666 Q 304.653 45.843 304.689 39.395 A 751.857 751.857 0 0 0 304.7 35.2 A 704.205 704.205 0 0 0 304.679 29.603 Q 304.615 21.562 304.35 18 Q 304 13.3 302.9 12.1 A 2.982 2.982 0 0 0 301.864 11.393 Q 300.923 10.987 299.452 10.916 A 13.46 13.46 0 0 0 298.8 10.9 A 11.697 11.697 0 0 0 297.432 10.974 Q 296.025 11.141 295.227 11.682 A 2.485 2.485 0 0 0 294.75 12.1 A 3.051 3.051 0 0 0 294.273 12.906 Q 293.602 14.469 293.3 18.05 A 73.694 73.694 0 0 0 293.13 20.8 Q 292.9 25.803 292.9 35.2 A 608.073 608.073 0 0 0 292.923 40.758 Q 292.986 47.58 293.216 51.201 A 56.225 56.225 0 0 0 293.3 52.35 A 38.82 38.82 0 0 0 293.473 54.007 Q 293.897 57.325 294.75 58.3 Q 295.8 59.5 298.8 59.5 Q 301.28 59.5 302.462 58.68 Z M 133.8 58.7 L 138 58.7 A 13.075 13.075 0 0 0 139.405 58.631 Q 140.836 58.475 141.665 57.973 A 2.593 2.593 0 0 0 142.2 57.55 A 2.877 2.877 0 0 0 142.706 56.76 Q 143.322 55.421 143.627 52.556 A 38.938 38.938 0 0 0 143.7 51.8 A 69.151 69.151 0 0 0 143.87 49.138 Q 144.1 44.294 144.1 35.2 A 569.538 569.538 0 0 0 144.077 29.822 Q 144.014 23.219 143.784 19.713 A 52.781 52.781 0 0 0 143.7 18.6 A 33.308 33.308 0 0 0 143.492 16.753 Q 143.112 14.114 142.403 13.1 A 2.109 2.109 0 0 0 142.2 12.85 A 2.904 2.904 0 0 0 141.235 12.207 Q 140.321 11.813 138.873 11.725 A 14.446 14.446 0 0 0 138 11.7 L 133.8 11.7 L 133.8 58.7 Z M 175.4 58.7 L 179.6 58.7 A 13.075 13.075 0 0 0 181.005 58.631 Q 182.436 58.475 183.265 57.973 A 2.593 2.593 0 0 0 183.8 57.55 A 2.877 2.877 0 0 0 184.306 56.76 Q 184.922 55.421 185.227 52.556 A 38.938 38.938 0 0 0 185.3 51.8 A 69.151 69.151 0 0 0 185.47 49.138 Q 185.7 44.294 185.7 35.2 A 569.538 569.538 0 0 0 185.677 29.822 Q 185.614 23.219 185.384 19.713 A 52.781 52.781 0 0 0 185.3 18.6 A 33.308 33.308 0 0 0 185.092 16.753 Q 184.712 14.114 184.003 13.1 A 2.109 2.109 0 0 0 183.8 12.85 A 2.904 2.904 0 0 0 182.835 12.207 Q 181.921 11.813 180.473 11.725 A 14.446 14.446 0 0 0 179.6 11.7 L 175.4 11.7 L 175.4 58.7 Z M 101.1 43.9 L 96.7 13.2 L 96.1 13.2 L 91.7 43.9 L 101.1 43.9 Z" vector-effect="non-scaling-stroke"/></g></svg>