<svg width="1379.5" height="70.401" viewBox="0 0 1379.5 70.401" xmlns="http://www.w3.org/2000/svg"><g id="svgGroup" stroke-linecap="round" fill-rule="evenodd" font-size="9pt" stroke="#000" stroke-width="0" fill="#ffffff" style="stroke:#000;stroke-width:0;fill:#ffffff"><path d="M 190.3 69.6 L 179.6 69.6 L 166.9 30.8 L 166.5 30.8 L 166.5 69.6 L 155 69.6 L 155 0.8 L 166.4 0.8 L 178.3 36.9 L 178.9 36.9 L 178.9 0.8 L 190.3 0.8 L 190.3 69.6 Z M 1316.1 69.6 L 1305.4 69.6 L 1292.7 30.8 L 1292.3 30.8 L 1292.3 69.6 L 1280.8 69.6 L 1280.8 0.8 L 1292.2 0.8 L 1304.1 36.9 L 1304.7 36.9 L 1304.7 0.8 L 1316.1 0.8 L 1316.1 69.6 Z M 355.5 69.6 L 343.4 69.6 L 343.4 40.6 L 332.6 40.6 L 332.6 69.6 L 320.5 69.6 L 320.5 0.8 L 332.6 0.8 L 332.6 29.2 L 343.4 29.2 L 343.4 0.8 L 355.5 0.8 L 355.5 69.6 Z M 566.7 69.6 L 554.6 69.6 L 554.6 40.6 L 543.8 40.6 L 543.8 69.6 L 531.7 69.6 L 531.7 0.8 L 543.8 0.8 L 543.8 29.2 L 554.6 29.2 L 554.6 0.8 L 566.7 0.8 L 566.7 69.6 Z M 625.3 69.6 L 613.2 69.6 L 613.2 40.6 L 602.4 40.6 L 602.4 69.6 L 590.3 69.6 L 590.3 0.8 L 602.4 0.8 L 602.4 29.2 L 613.2 29.2 L 613.2 0.8 L 625.3 0.8 L 625.3 69.6 Z M 92.9 0.8 L 104.9 0.8 L 104.9 39.3 Q 104.9 49.629 104.388 55.552 A 54.187 54.187 0 0 1 104 58.95 A 18.45 18.45 0 0 1 103.119 62.51 Q 101.919 65.803 99.5 67.65 A 10.559 10.559 0 0 1 96.621 69.159 Q 93.763 70.179 89.443 70.361 A 46.247 46.247 0 0 1 87.5 70.4 A 40.593 40.593 0 0 1 83.376 70.206 Q 78.144 69.67 75.5 67.65 Q 71.9 64.9 71 58.95 Q 70.321 54.465 70.155 45.574 A 335.49 335.49 0 0 1 70.1 39.3 L 70.1 0.8 L 82.1 0.8 L 82.1 44 A 312.644 312.644 0 0 0 82.118 47.451 Q 82.173 52.415 82.4 54.65 Q 82.7 57.6 83.75 58.55 A 2.89 2.89 0 0 0 84.642 59.081 Q 85.49 59.415 86.798 59.483 A 13.527 13.527 0 0 0 87.5 59.5 Q 89.66 59.5 90.764 58.892 A 2.564 2.564 0 0 0 91.25 58.55 A 2.782 2.782 0 0 0 91.833 57.766 Q 92.24 56.987 92.461 55.722 A 14.926 14.926 0 0 0 92.6 54.7 A 36.494 36.494 0 0 0 92.728 53.008 Q 92.9 49.911 92.9 44 L 92.9 0.8 Z M 470.7 0.8 L 482.7 0.8 L 482.7 39.3 Q 482.7 49.629 482.188 55.552 A 54.187 54.187 0 0 1 481.8 58.95 A 18.45 18.45 0 0 1 480.919 62.51 Q 479.719 65.803 477.3 67.65 A 10.559 10.559 0 0 1 474.421 69.159 Q 471.563 70.179 467.243 70.361 A 46.247 46.247 0 0 1 465.3 70.4 A 40.593 40.593 0 0 1 461.176 70.206 Q 455.944 69.67 453.3 67.65 Q 449.7 64.9 448.8 58.95 Q 448.121 54.465 447.955 45.574 A 335.49 335.49 0 0 1 447.9 39.3 L 447.9 0.8 L 459.9 0.8 L 459.9 44 A 312.644 312.644 0 0 0 459.918 47.451 Q 459.973 52.415 460.2 54.65 Q 460.5 57.6 461.55 58.55 A 2.89 2.89 0 0 0 462.442 59.081 Q 463.29 59.415 464.598 59.483 A 13.527 13.527 0 0 0 465.3 59.5 Q 467.46 59.5 468.564 58.892 A 2.564 2.564 0 0 0 469.05 58.55 A 2.782 2.782 0 0 0 469.633 57.766 Q 470.04 56.987 470.261 55.722 A 14.926 14.926 0 0 0 470.4 54.7 A 36.494 36.494 0 0 0 470.528 53.008 Q 470.7 49.911 470.7 44 L 470.7 0.8 Z M 827.3 0.8 L 839.3 0.8 L 839.3 39.3 Q 839.3 49.629 838.788 55.552 A 54.187 54.187 0 0 1 838.4 58.95 A 18.45 18.45 0 0 1 837.519 62.51 Q 836.319 65.803 833.9 67.65 A 10.559 10.559 0 0 1 831.021 69.159 Q 828.163 70.179 823.843 70.361 A 46.247 46.247 0 0 1 821.9 70.4 A 40.593 40.593 0 0 1 817.776 70.206 Q 812.544 69.67 809.9 67.65 Q 806.3 64.9 805.4 58.95 Q 804.721 54.465 804.555 45.574 A 335.49 335.49 0 0 1 804.5 39.3 L 804.5 0.8 L 816.5 0.8 L 816.5 44 A 312.644 312.644 0 0 0 816.518 47.451 Q 816.573 52.415 816.8 54.65 Q 817.1 57.6 818.15 58.55 A 2.89 2.89 0 0 0 819.042 59.081 Q 819.89 59.415 821.198 59.483 A 13.527 13.527 0 0 0 821.9 59.5 Q 824.06 59.5 825.164 58.892 A 2.564 2.564 0 0 0 825.65 58.55 A 2.782 2.782 0 0 0 826.233 57.766 Q 826.64 56.987 826.861 55.722 A 14.926 14.926 0 0 0 827 54.7 A 36.494 36.494 0 0 0 827.128 53.008 Q 827.3 49.911 827.3 44 L 827.3 0.8 Z M 513 40.8 L 507.8 40.8 L 507.8 30.2 L 523.8 30.2 L 523.8 68.3 A 27.372 27.372 0 0 1 521.229 69.039 Q 519.194 69.524 516.7 69.85 Q 512.5 70.4 508.6 70.4 A 36.659 36.659 0 0 1 504.424 70.179 Q 499.948 69.664 497.224 67.952 A 10.242 10.242 0 0 1 496.7 67.6 Q 492.8 64.8 491.3 57.45 A 54.977 54.977 0 0 1 490.575 52.719 Q 489.8 45.91 489.8 35.2 A 222.096 222.096 0 0 1 489.927 27.416 Q 490.174 20.385 490.906 15.641 A 44.851 44.851 0 0 1 491.4 12.95 Q 492.418 8.275 494.487 5.441 A 10.742 10.742 0 0 1 497.2 2.8 A 13.894 13.894 0 0 1 500.761 1.149 Q 504.183 0.074 509.113 0.005 A 48.859 48.859 0 0 1 509.8 0 A 44.204 44.204 0 0 1 513.16 0.136 Q 514.96 0.273 516.95 0.55 A 66.731 66.731 0 0 1 519.751 0.998 Q 521.125 1.249 522.324 1.539 A 34.479 34.479 0 0 1 523.7 1.9 L 523.7 12 A 157.411 157.411 0 0 0 520.375 11.519 Q 517.012 11.072 514.709 10.948 A 30.17 30.17 0 0 0 513.1 10.9 A 41.265 41.265 0 0 0 510.593 10.971 Q 506.991 11.191 505.4 12.1 A 3.941 3.941 0 0 0 504.123 13.332 Q 503.028 14.932 502.5 18.1 A 38.944 38.944 0 0 0 502.151 20.956 Q 501.721 25.735 501.701 34.366 A 366.474 366.474 0 0 0 501.7 35.2 Q 501.7 45.975 502.082 50.898 A 50.098 50.098 0 0 0 502.15 51.7 Q 502.485 55.278 503.349 57.106 A 4.73 4.73 0 0 0 504 58.15 Q 505.4 59.8 508.9 59.8 Q 511.4 59.8 513 59.4 L 513 40.8 Z M 1346.8 40.8 L 1341.6 40.8 L 1341.6 30.2 L 1357.6 30.2 L 1357.6 68.3 A 27.372 27.372 0 0 1 1355.029 69.039 Q 1352.994 69.524 1350.5 69.85 Q 1346.3 70.4 1342.4 70.4 A 36.659 36.659 0 0 1 1338.224 70.179 Q 1333.748 69.664 1331.024 67.952 A 10.242 10.242 0 0 1 1330.5 67.6 Q 1326.6 64.8 1325.1 57.45 A 54.977 54.977 0 0 1 1324.375 52.719 Q 1323.6 45.91 1323.6 35.2 A 222.096 222.096 0 0 1 1323.727 27.416 Q 1323.974 20.385 1324.706 15.641 A 44.851 44.851 0 0 1 1325.2 12.95 Q 1326.218 8.275 1328.287 5.441 A 10.742 10.742 0 0 1 1331 2.8 A 13.894 13.894 0 0 1 1334.561 1.149 Q 1337.983 0.074 1342.913 0.005 A 48.859 48.859 0 0 1 1343.6 0 A 44.204 44.204 0 0 1 1346.96 0.136 Q 1348.76 0.273 1350.75 0.55 A 66.731 66.731 0 0 1 1353.551 0.998 Q 1354.925 1.249 1356.124 1.539 A 34.479 34.479 0 0 1 1357.5 1.9 L 1357.5 12 A 157.411 157.411 0 0 0 1354.175 11.519 Q 1350.812 11.072 1348.509 10.948 A 30.17 30.17 0 0 0 1346.9 10.9 A 41.265 41.265 0 0 0 1344.393 10.971 Q 1340.791 11.191 1339.2 12.1 A 3.941 3.941 0 0 0 1337.923 13.332 Q 1336.828 14.932 1336.3 18.1 A 38.944 38.944 0 0 0 1335.951 20.956 Q 1335.521 25.735 1335.501 34.366 A 366.474 366.474 0 0 0 1335.5 35.2 Q 1335.5 45.975 1335.882 50.898 A 50.098 50.098 0 0 0 1335.95 51.7 Q 1336.285 55.278 1337.149 57.106 A 4.73 4.73 0 0 0 1337.8 58.15 Q 1339.2 59.8 1342.7 59.8 Q 1345.2 59.8 1346.8 59.4 L 1346.8 40.8 Z M 731.5 69.6 L 713.7 69.6 L 703.2 0.8 L 715.4 0.8 L 722.4 56.6 L 723.3 56.6 L 730.1 0.8 L 742 0.8 L 731.5 69.6 Z M 226.3 69.6 L 198.9 69.6 L 198.9 0.8 L 226.3 0.8 L 226.3 11.7 L 211 11.7 L 211 29.4 L 224.4 29.4 L 224.4 40.3 L 211 40.3 L 211 58.7 L 226.3 58.7 L 226.3 69.6 Z M 1190.5 69.6 L 1163.1 69.6 L 1163.1 0.8 L 1190.5 0.8 L 1190.5 11.7 L 1175.2 11.7 L 1175.2 29.4 L 1188.6 29.4 L 1188.6 40.3 L 1175.2 40.3 L 1175.2 58.7 L 1190.5 58.7 L 1190.5 69.6 Z M 149.1 69.6 L 136.7 69.6 L 130.9 45.1 L 130.7 45.1 L 125.2 45.1 L 125.2 69.6 L 113.1 69.6 L 113.1 0.8 L 132 0.8 A 28.984 28.984 0 0 1 135.504 0.998 Q 139.497 1.486 141.879 3.176 A 8.817 8.817 0 0 1 142.05 3.3 A 11.463 11.463 0 0 1 145.96 8.618 A 15.223 15.223 0 0 1 146.5 10.4 A 32.297 32.297 0 0 1 147.08 13.598 Q 147.565 17.212 147.598 22.186 A 110.254 110.254 0 0 1 147.6 22.9 A 90.96 90.96 0 0 1 147.493 27.468 Q 147.272 31.842 146.598 34.919 A 26.472 26.472 0 0 1 146.5 35.35 A 12.716 12.716 0 0 1 145.025 39.046 A 10.596 10.596 0 0 1 141.8 42.4 L 149.1 69.6 Z M 400.1 69.6 L 387.7 69.6 L 381.9 45.1 L 381.7 45.1 L 376.2 45.1 L 376.2 69.6 L 364.1 69.6 L 364.1 0.8 L 383 0.8 A 28.984 28.984 0 0 1 386.504 0.998 Q 390.497 1.486 392.879 3.176 A 8.817 8.817 0 0 1 393.05 3.3 A 11.463 11.463 0 0 1 396.96 8.618 A 15.223 15.223 0 0 1 397.5 10.4 A 32.297 32.297 0 0 1 398.08 13.598 Q 398.565 17.212 398.598 22.186 A 110.254 110.254 0 0 1 398.6 22.9 A 90.96 90.96 0 0 1 398.493 27.468 Q 398.272 31.842 397.598 34.919 A 26.472 26.472 0 0 1 397.5 35.35 A 12.716 12.716 0 0 1 396.025 39.046 A 10.596 10.596 0 0 1 392.8 42.4 L 400.1 69.6 Z M 1085.3 69.6 L 1072.9 69.6 L 1067.1 45.1 L 1066.9 45.1 L 1061.4 45.1 L 1061.4 69.6 L 1049.3 69.6 L 1049.3 0.8 L 1068.2 0.8 A 28.984 28.984 0 0 1 1071.704 0.998 Q 1075.697 1.486 1078.079 3.176 A 8.817 8.817 0 0 1 1078.25 3.3 A 11.463 11.463 0 0 1 1082.16 8.618 A 15.223 15.223 0 0 1 1082.7 10.4 A 32.297 32.297 0 0 1 1083.28 13.598 Q 1083.765 17.212 1083.798 22.186 A 110.254 110.254 0 0 1 1083.8 22.9 A 90.96 90.96 0 0 1 1083.693 27.468 Q 1083.472 31.842 1082.798 34.919 A 26.472 26.472 0 0 1 1082.7 35.35 A 12.716 12.716 0 0 1 1081.225 39.046 A 10.596 10.596 0 0 1 1078 42.4 L 1085.3 69.6 Z M 653.9 68.7 L 653.9 58.8 Q 661.2 59.5 665.2 59.5 Q 667.715 59.5 669.182 59.218 A 8.371 8.371 0 0 0 669.5 59.15 A 5.156 5.156 0 0 0 670.774 58.679 A 4.13 4.13 0 0 0 671.9 57.8 Q 673.3 56.1 673.3 50.4 Q 673.3 46.036 672.956 44.23 A 8.166 8.166 0 0 0 672.95 44.2 Q 672.6 42.4 671.5 41.55 A 4.361 4.361 0 0 0 670.739 41.092 Q 669.9 40.685 668.571 40.346 A 24.141 24.141 0 0 0 667.5 40.1 L 659.5 38.4 Q 655.7 37.6 654.3 33.2 A 23.305 23.305 0 0 1 653.565 30.082 Q 652.994 26.74 652.913 21.994 A 93.966 93.966 0 0 1 652.9 20.4 Q 652.9 12.583 654.763 8.166 A 14.731 14.731 0 0 1 654.9 7.85 A 14.315 14.315 0 0 1 656.73 4.793 A 10.503 10.503 0 0 1 660.65 1.7 Q 663.565 0.379 667.779 0.085 A 36.225 36.225 0 0 1 670.3 0 Q 674.8 0 678.45 0.6 A 92.012 92.012 0 0 1 679.92 0.853 Q 682.319 1.288 683.1 1.6 L 683.1 11.6 A 12.803 12.803 0 0 0 682.519 11.501 Q 681.458 11.34 679.45 11.15 A 56.347 56.347 0 0 0 676.001 10.935 A 67.399 67.399 0 0 0 673.8 10.9 A 36.918 36.918 0 0 0 672.028 10.94 Q 670.32 11.022 669.164 11.276 A 8.983 8.983 0 0 0 668.85 11.35 Q 667.1 11.8 666.3 12.8 Q 665.547 13.742 665.281 15.215 A 8.024 8.024 0 0 0 665.25 15.4 Q 665 17 665 20 Q 665 22.639 665.142 24.169 A 13.351 13.351 0 0 0 665.25 25.05 A 5.819 5.819 0 0 0 665.457 25.926 Q 665.602 26.371 665.813 26.715 A 2.526 2.526 0 0 0 666.3 27.3 A 3.374 3.374 0 0 0 666.95 27.737 Q 667.705 28.135 668.9 28.4 L 675.8 30 Q 678.9 30.6 680.95 32.1 Q 682.465 33.209 683.516 35.519 A 16.893 16.893 0 0 1 684.2 37.3 A 18.7 18.7 0 0 1 684.732 39.626 Q 685.167 42.195 685.269 45.915 A 87.177 87.177 0 0 1 685.3 48.3 A 72.013 72.013 0 0 1 685.137 53.324 Q 684.751 58.825 683.45 62.2 A 15.767 15.767 0 0 1 682.015 65.075 Q 680.935 66.752 679.516 67.812 A 8.783 8.783 0 0 1 678.05 68.7 A 14.972 14.972 0 0 1 675.043 69.736 Q 672.25 70.4 668.5 70.4 A 62.799 62.799 0 0 1 664.373 70.258 A 80.301 80.301 0 0 1 660.9 69.95 A 59.626 59.626 0 0 1 657.767 69.527 Q 656.292 69.285 655.017 68.985 A 30.386 30.386 0 0 1 653.9 68.7 Z M 767.1 68.7 L 767.1 58.8 Q 774.4 59.5 778.4 59.5 Q 780.915 59.5 782.382 59.218 A 8.371 8.371 0 0 0 782.7 59.15 A 5.156 5.156 0 0 0 783.974 58.679 A 4.13 4.13 0 0 0 785.1 57.8 Q 786.5 56.1 786.5 50.4 Q 786.5 46.036 786.156 44.23 A 8.166 8.166 0 0 0 786.15 44.2 Q 785.8 42.4 784.7 41.55 A 4.361 4.361 0 0 0 783.939 41.092 Q 783.1 40.685 781.771 40.346 A 24.141 24.141 0 0 0 780.7 40.1 L 772.7 38.4 Q 768.9 37.6 767.5 33.2 A 23.305 23.305 0 0 1 766.765 30.082 Q 766.194 26.74 766.113 21.994 A 93.966 93.966 0 0 1 766.1 20.4 Q 766.1 12.583 767.963 8.166 A 14.731 14.731 0 0 1 768.1 7.85 A 14.315 14.315 0 0 1 769.93 4.793 A 10.503 10.503 0 0 1 773.85 1.7 Q 776.765 0.379 780.979 0.085 A 36.225 36.225 0 0 1 783.5 0 Q 788 0 791.65 0.6 A 92.012 92.012 0 0 1 793.12 0.853 Q 795.519 1.288 796.3 1.6 L 796.3 11.6 A 12.803 12.803 0 0 0 795.719 11.501 Q 794.658 11.34 792.65 11.15 A 56.347 56.347 0 0 0 789.201 10.935 A 67.399 67.399 0 0 0 787 10.9 A 36.918 36.918 0 0 0 785.228 10.94 Q 783.52 11.022 782.364 11.276 A 8.983 8.983 0 0 0 782.05 11.35 Q 780.3 11.8 779.5 12.8 Q 778.747 13.742 778.481 15.215 A 8.024 8.024 0 0 0 778.45 15.4 Q 778.2 17 778.2 20 Q 778.2 22.639 778.342 24.169 A 13.351 13.351 0 0 0 778.45 25.05 A 5.819 5.819 0 0 0 778.657 25.926 Q 778.802 26.371 779.013 26.715 A 2.526 2.526 0 0 0 779.5 27.3 A 3.374 3.374 0 0 0 780.15 27.737 Q 780.905 28.135 782.1 28.4 L 789 30 Q 792.1 30.6 794.15 32.1 Q 795.665 33.209 796.716 35.519 A 16.893 16.893 0 0 1 797.4 37.3 A 18.7 18.7 0 0 1 797.932 39.626 Q 798.367 42.195 798.469 45.915 A 87.177 87.177 0 0 1 798.5 48.3 A 72.013 72.013 0 0 1 798.337 53.324 Q 797.951 58.825 796.65 62.2 A 15.767 15.767 0 0 1 795.215 65.075 Q 794.135 66.752 792.716 67.812 A 8.783 8.783 0 0 1 791.25 68.7 A 14.972 14.972 0 0 1 788.243 69.736 Q 785.45 70.4 781.7 70.4 A 62.799 62.799 0 0 1 777.573 70.258 A 80.301 80.301 0 0 1 774.1 69.95 A 59.626 59.626 0 0 1 770.967 69.527 Q 769.492 69.285 768.217 68.985 A 30.386 30.386 0 0 1 767.1 68.7 Z M 934.8 68.7 L 934.8 58.8 Q 942.1 59.5 946.1 59.5 Q 948.615 59.5 950.082 59.218 A 8.371 8.371 0 0 0 950.4 59.15 A 5.156 5.156 0 0 0 951.674 58.679 A 4.13 4.13 0 0 0 952.8 57.8 Q 954.2 56.1 954.2 50.4 Q 954.2 46.036 953.856 44.23 A 8.166 8.166 0 0 0 953.85 44.2 Q 953.5 42.4 952.4 41.55 A 4.361 4.361 0 0 0 951.639 41.092 Q 950.8 40.685 949.471 40.346 A 24.141 24.141 0 0 0 948.4 40.1 L 940.4 38.4 Q 936.6 37.6 935.2 33.2 A 23.305 23.305 0 0 1 934.465 30.082 Q 933.894 26.74 933.813 21.994 A 93.966 93.966 0 0 1 933.8 20.4 Q 933.8 12.583 935.663 8.166 A 14.731 14.731 0 0 1 935.8 7.85 A 14.315 14.315 0 0 1 937.63 4.793 A 10.503 10.503 0 0 1 941.55 1.7 Q 944.465 0.379 948.679 0.085 A 36.225 36.225 0 0 1 951.2 0 Q 955.7 0 959.35 0.6 A 92.012 92.012 0 0 1 960.82 0.853 Q 963.219 1.288 964 1.6 L 964 11.6 A 12.803 12.803 0 0 0 963.419 11.501 Q 962.358 11.34 960.35 11.15 A 56.347 56.347 0 0 0 956.901 10.935 A 67.399 67.399 0 0 0 954.7 10.9 A 36.918 36.918 0 0 0 952.928 10.94 Q 951.22 11.022 950.064 11.276 A 8.983 8.983 0 0 0 949.75 11.35 Q 948 11.8 947.2 12.8 Q 946.447 13.742 946.181 15.215 A 8.024 8.024 0 0 0 946.15 15.4 Q 945.9 17 945.9 20 Q 945.9 22.639 946.042 24.169 A 13.351 13.351 0 0 0 946.15 25.05 A 5.819 5.819 0 0 0 946.357 25.926 Q 946.502 26.371 946.713 26.715 A 2.526 2.526 0 0 0 947.2 27.3 A 3.374 3.374 0 0 0 947.85 27.737 Q 948.605 28.135 949.8 28.4 L 956.7 30 Q 959.8 30.6 961.85 32.1 Q 963.365 33.209 964.416 35.519 A 16.893 16.893 0 0 1 965.1 37.3 A 18.7 18.7 0 0 1 965.632 39.626 Q 966.067 42.195 966.169 45.915 A 87.177 87.177 0 0 1 966.2 48.3 A 72.013 72.013 0 0 1 966.037 53.324 Q 965.651 58.825 964.35 62.2 A 15.767 15.767 0 0 1 962.915 65.075 Q 961.835 66.752 960.416 67.812 A 8.783 8.783 0 0 1 958.95 68.7 A 14.972 14.972 0 0 1 955.943 69.736 Q 953.15 70.4 949.4 70.4 A 62.799 62.799 0 0 1 945.273 70.258 A 80.301 80.301 0 0 1 941.8 69.95 A 59.626 59.626 0 0 1 938.667 69.527 Q 937.192 69.285 935.917 68.985 A 30.386 30.386 0 0 1 934.8 68.7 Z M 254.5 69.6 L 242.4 69.6 L 242.4 45 L 229 0.8 L 241.1 0.8 L 248.3 31.5 L 249.3 31.5 L 256.2 0.8 L 267.9 0.8 L 254.5 45 L 254.5 69.6 Z M 1110.6 69.6 L 1098.5 69.6 L 1098.5 45 L 1085.1 0.8 L 1097.2 0.8 L 1104.4 31.5 L 1105.4 31.5 L 1112.3 0.8 L 1124 0.8 L 1110.6 45 L 1110.6 69.6 Z M 884.6 69.6 L 872.4 69.6 L 870.1 54.5 L 858.3 54.5 L 856 69.6 L 844.1 69.6 L 855.4 0.8 L 873.2 0.8 L 884.6 69.6 Z M 304.8 69.6 L 292.7 69.6 L 292.7 11.9 L 282 11.9 L 282 0.8 L 315.5 0.8 L 315.5 11.9 L 304.8 11.9 L 304.8 69.6 Z M 991.8 69.6 L 979.7 69.6 L 979.7 11.9 L 969 11.9 L 969 0.8 L 1002.5 0.8 L 1002.5 11.9 L 991.8 11.9 L 991.8 69.6 Z M 1147.4 69.6 L 1135.3 69.6 L 1135.3 11.9 L 1124.6 11.9 L 1124.6 0.8 L 1158.1 0.8 L 1158.1 11.9 L 1147.4 11.9 L 1147.4 69.6 Z M 915.6 69.6 L 889.7 69.6 L 889.7 0.8 L 901.8 0.8 L 901.8 58.5 L 915.6 58.5 L 915.6 69.6 Z M 1223.5 69.6 L 1197.6 69.6 L 1197.6 0.8 L 1209.7 0.8 L 1209.7 58.5 L 1223.5 58.5 L 1223.5 69.6 Z M 1254.6 69.6 L 1228.7 69.6 L 1228.7 0.8 L 1240.8 0.8 L 1240.8 58.5 L 1254.6 58.5 L 1254.6 69.6 Z M 32.65 67.4 A 9.101 9.101 0 0 0 34.009 68.318 Q 37.752 70.4 45 70.4 A 46.081 46.081 0 0 0 46.758 70.368 Q 54.085 70.088 57.4 67.4 A 10.443 10.443 0 0 0 59.54 65.016 Q 61.413 62.176 62.05 57.65 A 65.701 65.701 0 0 0 62.46 53.786 Q 63 47.037 63 35.2 A 416.663 416.663 0 0 0 62.942 28.015 Q 62.766 17.839 62.05 12.75 Q 61.556 9.243 60.321 6.749 A 11.051 11.051 0 0 0 57.4 3 Q 54.683 0.797 49.269 0.212 A 39.876 39.876 0 0 0 45 0 A 46.011 46.011 0 0 0 43.232 0.033 Q 35.917 0.315 32.65 3 A 10.443 10.443 0 0 0 30.508 5.43 Q 28.682 8.261 28.05 12.75 A 65.701 65.701 0 0 0 27.64 16.615 Q 27.1 23.364 27.1 35.2 A 416.663 416.663 0 0 0 27.158 42.386 Q 27.334 52.561 28.05 57.65 A 25.117 25.117 0 0 0 28.536 60.191 Q 29.727 64.998 32.65 67.4 Z M 410.45 67.4 A 9.101 9.101 0 0 0 411.809 68.318 Q 415.552 70.4 422.8 70.4 A 46.081 46.081 0 0 0 424.558 70.368 Q 431.885 70.088 435.2 67.4 A 10.443 10.443 0 0 0 437.34 65.016 Q 439.213 62.176 439.85 57.65 A 65.701 65.701 0 0 0 440.26 53.786 Q 440.8 47.037 440.8 35.2 A 416.663 416.663 0 0 0 440.742 28.015 Q 440.566 17.839 439.85 12.75 Q 439.356 9.243 438.121 6.749 A 11.051 11.051 0 0 0 435.2 3 Q 432.483 0.797 427.069 0.212 A 39.876 39.876 0 0 0 422.8 0 A 46.011 46.011 0 0 0 421.032 0.033 Q 413.717 0.315 410.45 3 A 10.443 10.443 0 0 0 408.308 5.43 Q 406.482 8.261 405.85 12.75 A 65.701 65.701 0 0 0 405.44 16.615 Q 404.9 23.364 404.9 35.2 A 416.663 416.663 0 0 0 404.958 42.386 Q 405.134 52.561 405.85 57.65 A 25.117 25.117 0 0 0 406.336 60.191 Q 407.527 64.998 410.45 67.4 Z M 1011.45 67.4 A 9.101 9.101 0 0 0 1012.809 68.318 Q 1016.552 70.4 1023.8 70.4 A 46.081 46.081 0 0 0 1025.558 70.368 Q 1032.885 70.088 1036.2 67.4 A 10.443 10.443 0 0 0 1038.34 65.016 Q 1040.213 62.176 1040.85 57.65 A 65.701 65.701 0 0 0 1041.26 53.786 Q 1041.8 47.037 1041.8 35.2 A 416.663 416.663 0 0 0 1041.742 28.015 Q 1041.566 17.839 1040.85 12.75 Q 1040.356 9.243 1039.121 6.749 A 11.051 11.051 0 0 0 1036.2 3 Q 1033.483 0.797 1028.069 0.212 A 39.876 39.876 0 0 0 1023.8 0 A 46.011 46.011 0 0 0 1022.032 0.033 Q 1014.717 0.315 1011.45 3 A 10.443 10.443 0 0 0 1009.308 5.43 Q 1007.482 8.261 1006.85 12.75 A 65.701 65.701 0 0 0 1006.44 16.615 Q 1005.9 23.364 1005.9 35.2 A 416.663 416.663 0 0 0 1005.958 42.386 Q 1006.134 52.561 1006.85 57.65 A 25.117 25.117 0 0 0 1007.336 60.191 Q 1008.527 64.998 1011.45 67.4 Z M 8 46 L 8 0.8 L 20 0.8 L 20 39.8 Q 20 54.251 19.019 60.049 A 25.223 25.223 0 0 1 18.9 60.7 A 15.09 15.09 0 0 1 18.086 63.499 Q 16.76 66.744 14.05 67.9 Q 10.428 69.446 0.698 69.592 A 131.359 131.359 0 0 1 0 69.6 L 0 59.3 Q 4.1 59.2 5.6 58.5 A 2.847 2.847 0 0 0 6.807 57.4 Q 7.318 56.589 7.55 55.3 A 18.359 18.359 0 0 0 7.742 53.837 Q 7.975 51.413 7.998 46.974 A 191.525 191.525 0 0 0 8 46 Z M 646.1 69.6 L 634.1 69.6 L 634.1 0.8 L 646.1 0.8 L 646.1 69.6 Z M 759.3 69.6 L 747.3 69.6 L 747.3 0.8 L 759.3 0.8 L 759.3 69.6 Z M 1272 69.6 L 1260 69.6 L 1260 0.8 L 1272 0.8 L 1272 69.6 Z M 1365.6 7.9 L 1365.6 0.8 L 1379.5 0.8 L 1379.5 7.9 A 49.887 49.887 0 0 1 1379.452 9.865 Q 1379.321 13.085 1378.833 19.221 A 746.938 746.938 0 0 1 1378.5 23.25 Q 1377.5 35 1376.1 48.7 L 1369 48.7 Q 1365.968 18.202 1365.64 9.652 A 46.89 46.89 0 0 1 1365.6 7.9 Z M 48.662 58.68 A 2.611 2.611 0 0 0 49.1 58.3 Q 50.107 57.202 50.485 53.172 A 40.116 40.116 0 0 0 50.55 52.4 A 82.012 82.012 0 0 0 50.699 49.666 Q 50.853 45.843 50.889 39.395 A 751.857 751.857 0 0 0 50.9 35.2 A 704.205 704.205 0 0 0 50.879 29.603 Q 50.815 21.562 50.55 18 Q 50.2 13.3 49.1 12.1 A 2.982 2.982 0 0 0 48.064 11.393 Q 47.123 10.987 45.652 10.916 A 13.46 13.46 0 0 0 45 10.9 A 11.697 11.697 0 0 0 43.632 10.974 Q 42.225 11.141 41.427 11.682 A 2.485 2.485 0 0 0 40.95 12.1 A 3.051 3.051 0 0 0 40.473 12.906 Q 39.802 14.469 39.5 18.05 A 73.694 73.694 0 0 0 39.33 20.8 Q 39.1 25.803 39.1 35.2 A 608.073 608.073 0 0 0 39.123 40.758 Q 39.186 47.58 39.416 51.201 A 56.225 56.225 0 0 0 39.5 52.35 A 38.82 38.82 0 0 0 39.673 54.007 Q 40.097 57.325 40.95 58.3 Q 42 59.5 45 59.5 Q 47.48 59.5 48.662 58.68 Z M 426.462 58.68 A 2.611 2.611 0 0 0 426.9 58.3 Q 427.907 57.202 428.285 53.172 A 40.116 40.116 0 0 0 428.35 52.4 A 82.012 82.012 0 0 0 428.499 49.666 Q 428.653 45.843 428.689 39.395 A 751.857 751.857 0 0 0 428.7 35.2 A 704.205 704.205 0 0 0 428.679 29.603 Q 428.615 21.562 428.35 18 Q 428 13.3 426.9 12.1 A 2.982 2.982 0 0 0 425.864 11.393 Q 424.923 10.987 423.452 10.916 A 13.46 13.46 0 0 0 422.8 10.9 A 11.697 11.697 0 0 0 421.432 10.974 Q 420.025 11.141 419.227 11.682 A 2.485 2.485 0 0 0 418.75 12.1 A 3.051 3.051 0 0 0 418.273 12.906 Q 417.602 14.469 417.3 18.05 A 73.694 73.694 0 0 0 417.13 20.8 Q 416.9 25.803 416.9 35.2 A 608.073 608.073 0 0 0 416.923 40.758 Q 416.986 47.58 417.216 51.201 A 56.225 56.225 0 0 0 417.3 52.35 A 38.82 38.82 0 0 0 417.473 54.007 Q 417.897 57.325 418.75 58.3 Q 419.8 59.5 422.8 59.5 Q 425.28 59.5 426.462 58.68 Z M 1027.462 58.68 A 2.611 2.611 0 0 0 1027.9 58.3 Q 1028.907 57.202 1029.285 53.172 A 40.116 40.116 0 0 0 1029.35 52.4 A 82.012 82.012 0 0 0 1029.499 49.666 Q 1029.653 45.843 1029.689 39.395 A 751.857 751.857 0 0 0 1029.7 35.2 A 704.205 704.205 0 0 0 1029.679 29.603 Q 1029.615 21.562 1029.35 18 Q 1029 13.3 1027.9 12.1 A 2.982 2.982 0 0 0 1026.864 11.393 Q 1025.923 10.987 1024.452 10.916 A 13.46 13.46 0 0 0 1023.8 10.9 A 11.697 11.697 0 0 0 1022.432 10.974 Q 1021.025 11.141 1020.227 11.682 A 2.485 2.485 0 0 0 1019.75 12.1 A 3.051 3.051 0 0 0 1019.273 12.906 Q 1018.602 14.469 1018.3 18.05 A 73.694 73.694 0 0 0 1018.13 20.8 Q 1017.9 25.803 1017.9 35.2 A 608.073 608.073 0 0 0 1017.923 40.758 Q 1017.986 47.58 1018.216 51.201 A 56.225 56.225 0 0 0 1018.3 52.35 A 38.82 38.82 0 0 0 1018.473 54.007 Q 1018.897 57.325 1019.75 58.3 Q 1020.8 59.5 1023.8 59.5 Q 1026.28 59.5 1027.462 58.68 Z M 868.9 43.9 L 864.5 13.2 L 863.9 13.2 L 859.5 43.9 L 868.9 43.9 Z M 130 11.7 L 125.2 11.7 L 125.2 34.5 L 130 34.5 A 12.658 12.658 0 0 0 131.279 34.44 Q 132.58 34.308 133.381 33.882 A 2.954 2.954 0 0 0 133.75 33.65 A 2.971 2.971 0 0 0 134.552 32.72 Q 135.012 31.919 135.223 30.669 A 10.396 10.396 0 0 0 135.25 30.5 Q 135.514 28.766 135.579 25.441 A 120.355 120.355 0 0 0 135.6 23.1 Q 135.6 19.255 135.401 17.002 A 21.063 21.063 0 0 0 135.25 15.7 Q 134.912 13.477 133.826 12.608 A 2.512 2.512 0 0 0 133.75 12.55 A 3.466 3.466 0 0 0 132.814 12.075 Q 131.727 11.7 130 11.7 Z M 381 11.7 L 376.2 11.7 L 376.2 34.5 L 381 34.5 A 12.658 12.658 0 0 0 382.279 34.44 Q 383.58 34.308 384.381 33.882 A 2.954 2.954 0 0 0 384.75 33.65 A 2.971 2.971 0 0 0 385.552 32.72 Q 386.012 31.919 386.223 30.669 A 10.396 10.396 0 0 0 386.25 30.5 Q 386.514 28.766 386.579 25.441 A 120.355 120.355 0 0 0 386.6 23.1 Q 386.6 19.255 386.401 17.002 A 21.063 21.063 0 0 0 386.25 15.7 Q 385.912 13.477 384.826 12.608 A 2.512 2.512 0 0 0 384.75 12.55 A 3.466 3.466 0 0 0 383.814 12.075 Q 382.727 11.7 381 11.7 Z M 1066.2 11.7 L 1061.4 11.7 L 1061.4 34.5 L 1066.2 34.5 A 12.658 12.658 0 0 0 1067.479 34.44 Q 1068.78 34.308 1069.581 33.882 A 2.954 2.954 0 0 0 1069.95 33.65 A 2.971 2.971 0 0 0 1070.752 32.72 Q 1071.212 31.919 1071.423 30.669 A 10.396 10.396 0 0 0 1071.45 30.5 Q 1071.714 28.766 1071.779 25.441 A 120.355 120.355 0 0 0 1071.8 23.1 Q 1071.8 19.255 1071.601 17.002 A 21.063 21.063 0 0 0 1071.45 15.7 Q 1071.112 13.477 1070.026 12.608 A 2.512 2.512 0 0 0 1069.95 12.55 A 3.466 3.466 0 0 0 1069.014 12.075 Q 1067.927 11.7 1066.2 11.7 Z M 1378.7 69.6 L 1366.4 69.6 L 1366.4 57.5 L 1378.7 57.5 L 1378.7 69.6 Z" vector-effect="non-scaling-stroke"/></g></svg>