<svg width="auto" height="auto" viewBox="0 0 1024.32 225.282" xmlns="http://www.w3.org/2000/svg"><g id="svgGroup" stroke-linecap="round" fill-rule="evenodd" font-size="9pt" stroke="#ffffff" stroke-width="1" fill="#ffffff" style="stroke:#ffffff;stroke-width:1;fill:#ffffff"><path d="M 115.52 222.721 L 75.2 222.721 L 49.6 129.601 L 38.72 129.601 L 38.72 222.721 L 0 222.721 L 0 2.561 L 38.72 2.561 L 38.72 92.801 L 49.6 92.801 L 75.84 2.561 L 115.2 2.561 L 79.68 108.801 L 115.52 222.721 Z M 920.96 222.721 L 880.64 222.721 L 855.04 129.601 L 844.16 129.601 L 844.16 222.721 L 805.44 222.721 L 805.44 2.561 L 844.16 2.561 L 844.16 92.801 L 855.04 92.801 L 881.28 2.561 L 920.64 2.561 L 885.12 108.801 L 920.96 222.721 Z M 202.88 2.561 L 241.28 2.561 L 241.28 125.761 Q 241.28 158.812 239.643 177.768 A 173.398 173.398 0 0 1 238.4 188.641 Q 236.231 202.984 229.158 211.516 A 31.6 31.6 0 0 1 224 216.481 Q 213.859 224.227 191.817 225.155 A 147.991 147.991 0 0 1 185.6 225.281 Q 162.961 225.281 151.218 219.039 A 29.106 29.106 0 0 1 147.2 216.481 Q 135.68 207.681 132.8 188.641 Q 130.629 174.287 130.094 145.837 A 1073.57 1073.57 0 0 1 129.92 125.761 L 129.92 2.561 L 168.32 2.561 L 168.32 140.801 Q 168.32 165.441 169.28 174.881 A 46.543 46.543 0 0 0 169.886 179.078 Q 170.686 183.174 172.133 185.545 A 8.149 8.149 0 0 0 173.6 187.361 Q 176.96 190.401 185.6 190.401 Q 192.512 190.401 196.045 188.455 A 8.204 8.204 0 0 0 197.6 187.361 Q 200.328 184.893 201.474 178.31 A 47.765 47.765 0 0 0 201.92 175.041 Q 202.709 167.409 202.85 149.173 A 1091.655 1091.655 0 0 0 202.88 140.801 L 202.88 2.561 Z M 1024.32 222.721 L 936.64 222.721 L 936.64 2.561 L 1024.32 2.561 L 1024.32 37.441 L 975.36 37.441 L 975.36 94.081 L 1018.24 94.081 L 1018.24 128.961 L 975.36 128.961 L 975.36 187.841 L 1024.32 187.841 L 1024.32 222.721 Z M 382.72 222.721 L 343.04 222.721 L 324.48 144.321 L 323.84 144.321 L 306.24 144.321 L 306.24 222.721 L 267.52 222.721 L 267.52 2.561 L 328 2.561 A 92.748 92.748 0 0 1 339.212 3.194 Q 352.455 4.811 360.16 10.561 A 36.681 36.681 0 0 1 372.673 27.578 A 48.712 48.712 0 0 1 374.4 33.281 A 103.351 103.351 0 0 1 376.256 43.512 Q 377.92 55.901 377.92 73.281 A 291.072 291.072 0 0 1 377.576 87.897 Q 376.87 101.895 374.714 111.741 A 84.712 84.712 0 0 1 374.4 113.121 A 40.69 40.69 0 0 1 369.679 124.946 A 33.908 33.908 0 0 1 359.36 135.681 L 382.72 222.721 Z M 536.96 222.721 L 536.96 2.561 L 588.48 2.561 A 129.748 129.748 0 0 1 602.141 3.227 Q 615.912 4.691 624.231 9.372 A 29.464 29.464 0 0 1 628.16 12.001 Q 640 21.441 643.04 42.401 Q 645.332 58.203 645.896 90.101 A 1280.48 1280.48 0 0 1 646.08 112.641 Q 646.08 149.552 644.352 170.64 A 201.351 201.351 0 0 1 643.04 182.721 Q 640 203.841 628.16 213.281 Q 617.568 221.726 594.172 222.616 A 149.787 149.787 0 0 1 588.48 222.721 L 536.96 222.721 Z M 415.84 215.681 A 29.123 29.123 0 0 0 420.188 218.617 Q 432.165 225.281 455.36 225.281 A 147.462 147.462 0 0 0 460.984 225.177 Q 484.433 224.281 495.04 215.681 A 33.419 33.419 0 0 0 501.887 208.052 Q 505.123 203.147 507.206 196.67 A 73.141 73.141 0 0 0 509.92 184.481 A 210.242 210.242 0 0 0 511.232 172.115 Q 512.96 150.517 512.96 112.641 A 1333.322 1333.322 0 0 0 512.776 89.648 Q 512.212 57.085 509.92 40.801 A 79.912 79.912 0 0 0 508.478 33.154 Q 506.919 26.71 504.386 21.596 A 35.362 35.362 0 0 0 495.04 9.601 A 29.356 29.356 0 0 0 491.213 6.986 Q 482.877 2.176 469.021 0.678 A 127.605 127.605 0 0 0 455.36 0.001 Q 427.52 0.001 415.84 9.601 Q 404.16 19.201 401.12 40.801 A 210.242 210.242 0 0 0 399.808 53.167 Q 398.08 74.765 398.08 112.641 A 1333.322 1333.322 0 0 0 398.264 135.634 Q 398.828 168.197 401.12 184.481 A 80.376 80.376 0 0 0 402.674 192.611 Q 406.487 207.994 415.84 215.681 Z M 684.32 215.681 A 29.123 29.123 0 0 0 688.668 218.617 Q 700.645 225.281 723.84 225.281 A 147.462 147.462 0 0 0 729.464 225.177 Q 752.913 224.281 763.52 215.681 A 33.419 33.419 0 0 0 770.367 208.052 Q 773.603 203.147 775.686 196.67 A 73.141 73.141 0 0 0 778.4 184.481 A 210.242 210.242 0 0 0 779.712 172.115 Q 781.44 150.517 781.44 112.641 A 1333.322 1333.322 0 0 0 781.256 89.648 Q 780.692 57.085 778.4 40.801 A 79.912 79.912 0 0 0 776.958 33.154 Q 775.399 26.71 772.866 21.596 A 35.362 35.362 0 0 0 763.52 9.601 A 29.356 29.356 0 0 0 759.693 6.986 Q 751.357 2.176 737.501 0.678 A 127.605 127.605 0 0 0 723.84 0.001 Q 696 0.001 684.32 9.601 Q 672.64 19.201 669.6 40.801 A 210.242 210.242 0 0 0 668.288 53.167 Q 666.56 74.765 666.56 112.641 A 1333.322 1333.322 0 0 0 666.744 135.634 Q 667.308 168.197 669.6 184.481 A 80.376 80.376 0 0 0 671.154 192.611 Q 674.967 207.994 684.32 215.681 Z M 455.36 190.401 A 37.613 37.613 0 0 0 459.78 190.161 Q 464.441 189.607 467.078 187.776 A 8.355 8.355 0 0 0 468.48 186.561 Q 472 182.721 473.12 167.681 Q 474.041 155.312 474.205 126.063 A 2405.954 2405.954 0 0 0 474.24 112.641 Q 474.24 72.641 473.12 57.601 A 109.866 109.866 0 0 0 472.515 51.557 Q 471.385 42.906 469.121 39.543 A 6.99 6.99 0 0 0 468.48 38.721 A 9.541 9.541 0 0 0 465.165 36.457 Q 462.152 35.158 457.445 34.93 A 43.073 43.073 0 0 0 455.36 34.881 Q 445.76 34.881 442.4 38.721 A 9.762 9.762 0 0 0 440.872 41.299 Q 439.005 45.649 438.032 54.881 A 137.778 137.778 0 0 0 437.76 57.761 A 235.821 235.821 0 0 0 437.215 66.559 Q 436.652 78.818 436.52 99.318 A 2075.852 2075.852 0 0 0 436.48 112.641 A 1945.842 1945.842 0 0 0 436.555 130.425 Q 436.756 152.256 437.492 163.845 A 179.922 179.922 0 0 0 437.76 167.521 Q 438.861 180.595 441.501 185.265 A 7.774 7.774 0 0 0 442.4 186.561 A 8.991 8.991 0 0 0 445.599 188.815 Q 448.526 190.107 453.164 190.347 A 42.673 42.673 0 0 0 455.36 190.401 Z M 723.84 190.401 A 37.613 37.613 0 0 0 728.26 190.161 Q 732.921 189.607 735.558 187.776 A 8.355 8.355 0 0 0 736.96 186.561 Q 740.48 182.721 741.6 167.681 Q 742.521 155.312 742.685 126.063 A 2405.954 2405.954 0 0 0 742.72 112.641 Q 742.72 72.641 741.6 57.601 A 109.866 109.866 0 0 0 740.995 51.557 Q 739.865 42.906 737.601 39.543 A 6.99 6.99 0 0 0 736.96 38.721 A 9.541 9.541 0 0 0 733.645 36.457 Q 730.632 35.158 725.925 34.93 A 43.073 43.073 0 0 0 723.84 34.881 Q 714.24 34.881 710.88 38.721 A 9.762 9.762 0 0 0 709.352 41.299 Q 707.485 45.649 706.512 54.881 A 137.778 137.778 0 0 0 706.24 57.761 A 235.821 235.821 0 0 0 705.695 66.559 Q 705.132 78.818 705 99.318 A 2075.852 2075.852 0 0 0 704.96 112.641 A 1945.842 1945.842 0 0 0 705.035 130.425 Q 705.236 152.256 705.972 163.845 A 179.922 179.922 0 0 0 706.24 167.521 Q 707.341 180.595 709.981 185.265 A 7.774 7.774 0 0 0 710.88 186.561 A 8.991 8.991 0 0 0 714.079 188.815 Q 717.006 190.107 721.644 190.347 A 42.673 42.673 0 0 0 723.84 190.401 Z M 575.04 187.841 L 588.48 187.841 A 41.84 41.84 0 0 0 592.975 187.618 Q 597.557 187.121 600.209 185.514 A 8.298 8.298 0 0 0 601.92 184.161 Q 605.44 180.481 606.72 165.761 Q 608 151.041 608 112.641 A 1822.528 1822.528 0 0 0 607.925 95.43 Q 607.69 70.676 606.72 59.521 A 106.586 106.586 0 0 0 606.053 53.609 Q 604.838 45.166 602.569 41.92 A 6.748 6.748 0 0 0 601.92 41.121 A 9.294 9.294 0 0 0 598.833 39.064 Q 595.906 37.802 591.274 37.522 A 46.228 46.228 0 0 0 588.48 37.441 L 575.04 37.441 L 575.04 187.841 Z M 321.6 37.441 L 306.24 37.441 L 306.24 110.401 L 321.6 110.401 A 40.504 40.504 0 0 0 325.693 110.209 Q 329.856 109.785 332.418 108.422 A 9.454 9.454 0 0 0 333.6 107.681 A 9.506 9.506 0 0 0 336.167 104.705 Q 337.735 101.971 338.4 97.601 Q 339.244 92.052 339.452 81.411 A 385.138 385.138 0 0 0 339.52 73.921 Q 339.52 57.601 338.4 50.241 A 27.137 27.137 0 0 0 337.596 46.563 Q 336.274 42.137 333.6 40.161 A 11.09 11.09 0 0 0 330.604 38.641 Q 327.645 37.62 323.205 37.468 A 46.803 46.803 0 0 0 321.6 37.441 Z" vector-effect="non-scaling-stroke"/></g></svg>