<svg version="1.2" xmlns="http://www.w3.org/2000/svg" viewBox="0 0 586 107" width="586" height="107"><style></style><path  d="m306.1 62.2l-13.2-1.5q-13.9-1.6-20.2-8.6-6.2-6.9-4-18.9 2.4-13.4 13.6-21.2 11.2-7.8 28-7.8 16.1 0 24.7 8.1 8.5 8.1 7.3 22.4h-15.7q0.2-8.9-4.4-13.2-4.6-4.3-14.5-4.3-9.3 0-15.7 4.3-6.4 4.2-7.7 11.2-1 5.6 2.3 8.6 3.4 2.9 11.6 4l12.4 1.7q30.7 3.5 26.1 28.7-1.6 8.6-7.3 15.1-5.6 6.4-14.4 9.9-8.7 3.5-19.5 3.5-17.8 0-27-8.4-9.1-8.4-8-22.5h15.9q-0.3 17.8 21.6 17.8 9.1 0 15.4-4.2 6.4-4.2 7.7-11.1 2.1-11.7-15-13.6zm102.7-7.4l-8.7 48.2h-15.5l2-11q-10 12.7-27.2 12.7-7.4 0-12.6-2.8-5.2-3-7.5-8-2.3-5.2-1.1-11.7 1.8-9.8 9.3-15.4 7.5-5.7 19.8-6.6l21.5-1.7q3.9-0.2 4.5-3.6l0.4-1.7q1.2-6.8-2.5-10.9-3.7-4.2-11.4-4.2-14.4 0-18.5 14.2h-16q1.9-7.8 7.2-13.6 5.3-6 12.9-9.3 7.7-3.3 16.7-3.3 9.4 0 16 3.7 6.6 3.6 9.4 10.1 2.9 6.4 1.3 14.9zm-54.8 26.3q-0.9 5.1 2.4 8.2 3.4 3 10.1 3 8.9 0 15.4-5.6 6.7-5.5 8.3-14.5l0.5-2.6-22.8 1.4q-12.2 0.8-13.9 10.1zm83.1 8.5h6.8l-2.4 13.4h-8.8q-8.7 0-14-4.9-5.1-5.1-3.1-16.2l7.5-41.1h-11.7l2.3-12.8h11.7l3.5-19h15.3l-3.4 19h14.3l-2.3 12.8h-14.4l-7.1 39.1q-1 5.7 0.6 7.7 1.7 2 5.2 2zm6 13.4l13.6-75h15.6l-2.2 11.9q4.9-6.5 11.3-9.9 6.3-3.5 12.1-3.5h3.6l-2.9 16h-4q-9.2 0-15.8 4.9-6.5 4.9-8 12.6l-7.8 43zm56.9-84.5l3-16.5h16.9l-3 16.5zm-14.7 84.5l13.7-75h15.5l-13.6 75zm26.4-37.8q2.2-11.8 8.3-20.6 6.2-8.9 15.3-13.7 9.1-4.9 20-4.9 10.9 0 18.2 4.9 7.2 4.8 10.1 13.7 3 8.8 0.9 20.6-2.2 11.9-8.4 20.8-6.1 8.8-15.2 13.8-9.1 4.9-19.9 4.9-10.9 0-18.3-4.9-7.2-5-10.2-13.8-3-8.9-0.8-20.8zm56.9 0q2.2-12.1-1.9-18.8-4.1-6.8-13.9-6.8-9.8 0-16.5 6.8-6.6 6.7-8.8 18.8-2.3 12.3 1.9 19.1 4.2 6.8 14 6.8 9.8 0 16.3-6.8 6.7-6.8 8.9-19.1z"/><path  d="m55.6 7.4l37.2 97.6h-16.3l-8.7-23.4h-42l-8.5 23.4h-16.6l37.4-97.6zm7.4 61.4l-16.4-44.1-16.1 44.1zm31.1 36.2v-75h15.5v11.9q3.7-6.5 9.4-9.9 5.7-3.5 11.6-3.5h3.5v16h-4q-9.1 0-14.8 4.9-5.7 4.9-5.7 12.6v43zm41.5-84.5v-16.5h16.9v16.5zm0.7 84.5v-75h15.5v75zm19.6-37.3q0-12 4.5-21 4.6-8.9 12.8-13.8 8.3-4.9 19.4-4.9 10.5 0 18.6 4.9 8.2 4.9 12.9 13.7 4.6 8.8 4.6 20.5v4.5h-57.2q1.9 22.5 22 22.5 7.8 0 12.5-3.5 4.7-3.5 6-9.4h15.7q-2.3 12.1-10.9 18.9-8.6 6.6-23.2 6.6-17.5 0-27.6-10.4-10.1-10.5-10.1-28.6zm36.3-27q-17.9 0-20.5 19.8h40.4q-0.7-9-6.2-14.4-5.4-5.4-13.7-5.4zm43.6 2.1h-11.5v-12.8h11.5v-8.9q0-7.4 3-12.1 3-4.6 8.1-6.8 5.1-2.2 11.3-2.2h7.5v12.8h-5.6q-4.1 0-6.5 1.9-2.4 1.9-2.4 7.3v8h14.5v12.8h-14.5v62.2h-15.4z"/></svg>