<svg width="108.25" height="32.651" viewBox="0 0 108.25 32.651" xmlns="http://www.w3.org/2000/svg"><g id="svgGroup" stroke-linecap="round" fill-rule="evenodd" font-size="9pt" stroke="#000" stroke-width="0" fill="#ffffff" style="stroke:#000;stroke-width:0;fill:#ffffff"><path d="M 33.5 0.5 L 26.65 32.25 L 14.95 32.25 L 9.4 9.3 L 4.5 32.25 L 0 32.25 L 6.75 0.5 L 18.7 0.5 L 23.95 23.75 L 28.9 0.5 L 33.5 0.5 Z M 78.7 20.1 L 76.7 29.55 Q 75.45 30.15 74.125 30.725 A 22.01 22.01 0 0 1 71.856 31.56 A 24.743 24.743 0 0 1 71.3 31.725 A 22.772 22.772 0 0 1 69.318 32.188 A 28.083 28.083 0 0 1 68.025 32.4 A 25.111 25.111 0 0 1 65.925 32.602 A 31.848 31.848 0 0 1 64.15 32.65 A 24.024 24.024 0 0 1 60.173 32.342 Q 58.049 31.985 56.35 31.213 A 11.194 11.194 0 0 1 53.825 29.65 Q 50.2 26.65 50.2 19.65 A 23.362 23.362 0 0 1 51.025 13.382 A 21.558 21.558 0 0 1 51.45 12.025 Q 52.7 8.45 55.15 5.775 A 17.13 17.13 0 0 1 60.318 1.955 A 20.069 20.069 0 0 1 61.2 1.55 Q 64.8 0 69.45 0 A 28.136 28.136 0 0 1 71.682 0.085 A 21.671 21.671 0 0 1 73.475 0.3 A 25.967 25.967 0 0 1 75.315 0.668 A 19.901 19.901 0 0 1 76.775 1.075 Q 78.25 1.55 79.425 2.1 A 58.804 58.804 0 0 1 80.544 2.638 A 44.282 44.282 0 0 1 81.55 3.15 L 79.75 12.45 L 70.75 12.45 A 125.853 125.853 0 0 0 70.777 12.181 Q 70.819 11.75 70.875 11.15 Q 70.95 10.35 71 9.525 Q 71.05 8.7 71.1 7.9 Q 71.134 7.35 71.145 6.918 A 14.854 14.854 0 0 0 71.15 6.55 A 7.805 7.805 0 0 0 71.14 6.176 Q 71.131 5.984 71.113 5.77 A 13.922 13.922 0 0 0 71.1 5.625 Q 71.05 5.1 70.85 4.6 Q 70.65 4.1 70.225 3.775 A 1.498 1.498 0 0 0 69.687 3.519 Q 69.472 3.463 69.219 3.453 A 2.866 2.866 0 0 0 69.1 3.45 A 3.082 3.082 0 0 0 67.277 4.055 A 4.366 4.366 0 0 0 66.725 4.525 A 8.347 8.347 0 0 0 65.767 5.687 Q 65.348 6.292 64.972 7.028 A 14.721 14.721 0 0 0 64.8 7.375 A 23.281 23.281 0 0 0 63.907 9.522 A 30.24 30.24 0 0 0 63.3 11.4 Q 62.65 13.65 62.225 15.975 Q 61.8 18.3 61.575 20.55 A 52.275 52.275 0 0 0 61.438 22.16 Q 61.377 23.038 61.359 23.815 A 28.202 28.202 0 0 0 61.35 24.5 A 12.928 12.928 0 0 0 61.356 24.892 Q 61.362 25.081 61.373 25.295 A 28.756 28.756 0 0 0 61.4 25.75 Q 61.45 26.5 61.7 27.2 Q 61.95 27.9 62.475 28.4 Q 63 28.9 63.9 28.9 A 2.752 2.752 0 0 0 65.33 28.478 Q 66.129 27.999 66.9 26.975 A 8.084 8.084 0 0 0 67.688 25.653 Q 68.394 24.203 69.004 21.929 A 43.381 43.381 0 0 0 69.45 20.1 L 78.7 20.1 Z M 80.45 32.25 L 87.2 0.5 L 108.25 0.5 L 107.45 4.3 L 97.25 4.3 L 95.15 13.95 L 103.7 13.95 L 102.9 17.7 L 94.35 17.7 L 92.05 28.4 L 102.25 28.4 L 101.5 32.25 L 80.45 32.25 Z M 49.8 0.5 L 43 32.25 L 32.2 32.25 L 38.95 0.5 L 49.8 0.5 Z" vector-effect="non-scaling-stroke"/></g></svg>