<svg width="260.9" height="70.401" viewBox="0 0 260.9 70.401" xmlns="http://www.w3.org/2000/svg"><g id="svgGroup" stroke-linecap="round" fill-rule="evenodd" font-size="9pt" stroke="#000" stroke-width="0" fill="#000000" style="stroke:#000;stroke-width:0;fill:#000000"><path d="M 181.5 69.6 L 154.1 69.6 L 154.1 0.8 L 181.5 0.8 L 181.5 11.7 L 166.2 11.7 L 166.2 29.4 L 179.6 29.4 L 179.6 40.3 L 166.2 40.3 L 166.2 58.7 L 181.5 58.7 L 181.5 69.6 Z M 224.6 69.6 L 212.2 69.6 L 206.4 45.1 L 206.2 45.1 L 200.7 45.1 L 200.7 69.6 L 188.6 69.6 L 188.6 0.8 L 207.5 0.8 A 28.984 28.984 0 0 1 211.004 0.998 Q 214.997 1.486 217.379 3.176 A 8.817 8.817 0 0 1 217.55 3.3 A 11.463 11.463 0 0 1 221.46 8.618 A 15.223 15.223 0 0 1 222 10.4 A 32.297 32.297 0 0 1 222.58 13.598 Q 223.065 17.212 223.098 22.186 A 110.254 110.254 0 0 1 223.1 22.9 A 90.96 90.96 0 0 1 222.993 27.468 Q 222.772 31.842 222.098 34.919 A 26.472 26.472 0 0 1 222 35.35 A 12.716 12.716 0 0 1 220.525 39.046 A 10.596 10.596 0 0 1 217.3 42.4 L 224.6 69.6 Z M 81.4 68.7 L 81.4 58.8 Q 88.7 59.5 92.7 59.5 Q 95.215 59.5 96.682 59.218 A 8.371 8.371 0 0 0 97 59.15 A 5.156 5.156 0 0 0 98.274 58.679 A 4.13 4.13 0 0 0 99.4 57.8 Q 100.8 56.1 100.8 50.4 Q 100.8 46.036 100.456 44.23 A 8.166 8.166 0 0 0 100.45 44.2 Q 100.1 42.4 99 41.55 A 4.361 4.361 0 0 0 98.239 41.092 Q 97.4 40.685 96.071 40.346 A 24.141 24.141 0 0 0 95 40.1 L 87 38.4 Q 83.2 37.6 81.8 33.2 A 23.305 23.305 0 0 1 81.065 30.082 Q 80.494 26.74 80.413 21.994 A 93.966 93.966 0 0 1 80.4 20.4 Q 80.4 12.583 82.263 8.166 A 14.731 14.731 0 0 1 82.4 7.85 A 14.315 14.315 0 0 1 84.23 4.793 A 10.503 10.503 0 0 1 88.15 1.7 Q 91.065 0.379 95.279 0.085 A 36.225 36.225 0 0 1 97.8 0 Q 102.3 0 105.95 0.6 A 92.012 92.012 0 0 1 107.42 0.853 Q 109.819 1.288 110.6 1.6 L 110.6 11.6 A 12.803 12.803 0 0 0 110.019 11.501 Q 108.958 11.34 106.95 11.15 A 56.347 56.347 0 0 0 103.501 10.935 A 67.399 67.399 0 0 0 101.3 10.9 A 36.918 36.918 0 0 0 99.528 10.94 Q 97.82 11.022 96.664 11.276 A 8.983 8.983 0 0 0 96.35 11.35 Q 94.6 11.8 93.8 12.8 Q 93.047 13.742 92.781 15.215 A 8.024 8.024 0 0 0 92.75 15.4 Q 92.5 17 92.5 20 Q 92.5 22.639 92.642 24.169 A 13.351 13.351 0 0 0 92.75 25.05 A 5.819 5.819 0 0 0 92.957 25.926 Q 93.102 26.371 93.313 26.715 A 2.526 2.526 0 0 0 93.8 27.3 A 3.374 3.374 0 0 0 94.45 27.737 Q 95.205 28.135 96.4 28.4 L 103.3 30 Q 106.4 30.6 108.45 32.1 Q 109.965 33.209 111.016 35.519 A 16.893 16.893 0 0 1 111.7 37.3 A 18.7 18.7 0 0 1 112.232 39.626 Q 112.667 42.195 112.769 45.915 A 87.177 87.177 0 0 1 112.8 48.3 A 72.013 72.013 0 0 1 112.637 53.324 Q 112.251 58.825 110.95 62.2 A 15.767 15.767 0 0 1 109.515 65.075 Q 108.435 66.752 107.016 67.812 A 8.783 8.783 0 0 1 105.55 68.7 A 14.972 14.972 0 0 1 102.543 69.736 Q 99.75 70.4 96 70.4 A 62.799 62.799 0 0 1 91.873 70.258 A 80.301 80.301 0 0 1 88.4 69.95 A 59.626 59.626 0 0 1 85.267 69.527 Q 83.792 69.285 82.517 68.985 A 30.386 30.386 0 0 1 81.4 68.7 Z M 229.5 68.7 L 229.5 58.8 Q 236.8 59.5 240.8 59.5 Q 243.315 59.5 244.782 59.218 A 8.371 8.371 0 0 0 245.1 59.15 A 5.156 5.156 0 0 0 246.374 58.679 A 4.13 4.13 0 0 0 247.5 57.8 Q 248.9 56.1 248.9 50.4 Q 248.9 46.036 248.556 44.23 A 8.166 8.166 0 0 0 248.55 44.2 Q 248.2 42.4 247.1 41.55 A 4.361 4.361 0 0 0 246.339 41.092 Q 245.5 40.685 244.171 40.346 A 24.141 24.141 0 0 0 243.1 40.1 L 235.1 38.4 Q 231.3 37.6 229.9 33.2 A 23.305 23.305 0 0 1 229.165 30.082 Q 228.594 26.74 228.513 21.994 A 93.966 93.966 0 0 1 228.5 20.4 Q 228.5 12.583 230.363 8.166 A 14.731 14.731 0 0 1 230.5 7.85 A 14.315 14.315 0 0 1 232.33 4.793 A 10.503 10.503 0 0 1 236.25 1.7 Q 239.165 0.379 243.379 0.085 A 36.225 36.225 0 0 1 245.9 0 Q 250.4 0 254.05 0.6 A 92.012 92.012 0 0 1 255.52 0.853 Q 257.919 1.288 258.7 1.6 L 258.7 11.6 A 12.803 12.803 0 0 0 258.119 11.501 Q 257.058 11.34 255.05 11.15 A 56.347 56.347 0 0 0 251.601 10.935 A 67.399 67.399 0 0 0 249.4 10.9 A 36.918 36.918 0 0 0 247.628 10.94 Q 245.92 11.022 244.764 11.276 A 8.983 8.983 0 0 0 244.45 11.35 Q 242.7 11.8 241.9 12.8 Q 241.147 13.742 240.881 15.215 A 8.024 8.024 0 0 0 240.85 15.4 Q 240.6 17 240.6 20 Q 240.6 22.639 240.742 24.169 A 13.351 13.351 0 0 0 240.85 25.05 A 5.819 5.819 0 0 0 241.057 25.926 Q 241.202 26.371 241.413 26.715 A 2.526 2.526 0 0 0 241.9 27.3 A 3.374 3.374 0 0 0 242.55 27.737 Q 243.305 28.135 244.5 28.4 L 251.4 30 Q 254.5 30.6 256.55 32.1 Q 258.065 33.209 259.116 35.519 A 16.893 16.893 0 0 1 259.8 37.3 A 18.7 18.7 0 0 1 260.332 39.626 Q 260.767 42.195 260.869 45.915 A 87.177 87.177 0 0 1 260.9 48.3 A 72.013 72.013 0 0 1 260.737 53.324 Q 260.351 58.825 259.05 62.2 A 15.767 15.767 0 0 1 257.615 65.075 Q 256.535 66.752 255.116 67.812 A 8.783 8.783 0 0 1 253.65 68.7 A 14.972 14.972 0 0 1 250.643 69.736 Q 247.85 70.4 244.1 70.4 A 62.799 62.799 0 0 1 239.973 70.258 A 80.301 80.301 0 0 1 236.5 69.95 A 59.626 59.626 0 0 1 233.367 69.527 Q 231.892 69.285 230.617 68.985 A 30.386 30.386 0 0 1 229.5 68.7 Z M 138.4 69.6 L 126.3 69.6 L 126.3 11.9 L 115.6 11.9 L 115.6 0.8 L 149.1 0.8 L 149.1 11.9 L 138.4 11.9 L 138.4 69.6 Z M 0 69.6 L 0 0.8 L 18.5 0.8 Q 25.2 0.8 28.6 3.4 A 11.669 11.669 0 0 1 32.353 8.433 A 15.876 15.876 0 0 1 33.1 10.85 Q 34.15 15.479 34.198 23.159 A 118.863 118.863 0 0 1 34.2 23.9 A 98.621 98.621 0 0 1 34.097 28.54 Q 33.872 33.316 33.15 36.65 A 14.982 14.982 0 0 1 31.683 40.686 A 12.235 12.235 0 0 1 28.7 44.3 A 10.744 10.744 0 0 1 25.301 46.139 Q 22.484 47.1 18.5 47.1 L 12.1 47.1 L 12.1 69.6 L 0 69.6 Z M 44.55 67.4 A 9.101 9.101 0 0 0 45.909 68.318 Q 49.652 70.4 56.9 70.4 A 46.081 46.081 0 0 0 58.658 70.368 Q 65.985 70.088 69.3 67.4 A 10.443 10.443 0 0 0 71.44 65.016 Q 73.313 62.176 73.95 57.65 A 65.701 65.701 0 0 0 74.36 53.786 Q 74.9 47.037 74.9 35.2 A 416.663 416.663 0 0 0 74.842 28.015 Q 74.666 17.839 73.95 12.75 Q 73.456 9.243 72.221 6.749 A 11.051 11.051 0 0 0 69.3 3 Q 66.583 0.797 61.169 0.212 A 39.876 39.876 0 0 0 56.9 0 A 46.011 46.011 0 0 0 55.132 0.033 Q 47.817 0.315 44.55 3 A 10.443 10.443 0 0 0 42.408 5.43 Q 40.582 8.261 39.95 12.75 A 65.701 65.701 0 0 0 39.54 16.615 Q 39 23.364 39 35.2 A 416.663 416.663 0 0 0 39.058 42.386 Q 39.234 52.561 39.95 57.65 A 25.117 25.117 0 0 0 40.436 60.191 Q 41.627 64.998 44.55 67.4 Z M 60.562 58.68 A 2.611 2.611 0 0 0 61 58.3 Q 62.007 57.202 62.385 53.172 A 40.116 40.116 0 0 0 62.45 52.4 A 82.012 82.012 0 0 0 62.599 49.666 Q 62.753 45.843 62.789 39.395 A 751.857 751.857 0 0 0 62.8 35.2 A 704.205 704.205 0 0 0 62.779 29.603 Q 62.715 21.562 62.45 18 Q 62.1 13.3 61 12.1 A 2.982 2.982 0 0 0 59.964 11.393 Q 59.023 10.987 57.552 10.916 A 13.46 13.46 0 0 0 56.9 10.9 A 11.697 11.697 0 0 0 55.532 10.974 Q 54.125 11.141 53.327 11.682 A 2.485 2.485 0 0 0 52.85 12.1 A 3.051 3.051 0 0 0 52.373 12.906 Q 51.702 14.469 51.4 18.05 A 73.694 73.694 0 0 0 51.23 20.8 Q 51 25.803 51 35.2 A 608.073 608.073 0 0 0 51.023 40.758 Q 51.086 47.58 51.316 51.201 A 56.225 56.225 0 0 0 51.4 52.35 A 38.82 38.82 0 0 0 51.573 54.007 Q 51.997 57.325 52.85 58.3 Q 53.9 59.5 56.9 59.5 Q 59.38 59.5 60.562 58.68 Z M 12.1 36.2 L 16.5 36.2 A 11.259 11.259 0 0 0 17.813 36.129 Q 19.414 35.941 20.25 35.25 A 3.297 3.297 0 0 0 21.026 34.287 Q 21.537 33.363 21.75 31.9 Q 22.1 29.5 22.1 23.9 Q 22.1 19.678 21.901 17.275 A 22.552 22.552 0 0 0 21.75 15.9 A 9.22 9.22 0 0 0 21.499 14.7 Q 21.12 13.375 20.387 12.715 A 2.6 2.6 0 0 0 20.25 12.6 A 3.42 3.42 0 0 0 19.288 12.088 Q 18.358 11.755 16.968 11.708 A 13.896 13.896 0 0 0 16.5 11.7 L 12.1 11.7 L 12.1 36.2 Z M 205.5 11.7 L 200.7 11.7 L 200.7 34.5 L 205.5 34.5 A 12.658 12.658 0 0 0 206.779 34.44 Q 208.08 34.308 208.881 33.882 A 2.954 2.954 0 0 0 209.25 33.65 A 2.971 2.971 0 0 0 210.052 32.72 Q 210.512 31.919 210.723 30.669 A 10.396 10.396 0 0 0 210.75 30.5 Q 211.014 28.766 211.079 25.441 A 120.355 120.355 0 0 0 211.1 23.1 Q 211.1 19.255 210.901 17.002 A 21.063 21.063 0 0 0 210.75 15.7 Q 210.412 13.477 209.326 12.608 A 2.512 2.512 0 0 0 209.25 12.55 A 3.466 3.466 0 0 0 208.314 12.075 Q 207.227 11.7 205.5 11.7 Z" vector-effect="non-scaling-stroke"/></g></svg>