<svg width="319.5" height="68.8" viewBox="0 0 319.5 68.8" xmlns="http://www.w3.org/2000/svg"><g id="svgGroup" stroke-linecap="round" fill-rule="evenodd" font-size="9pt" stroke="#000" stroke-width="0" fill="#000" style="stroke:#000;stroke-width:0;fill:#000"><path d="M 73.5 68.8 L 61.4 68.8 L 61.4 39.8 L 50.6 39.8 L 50.6 68.8 L 38.5 68.8 L 38.5 0 L 50.6 0 L 50.6 28.4 L 61.4 28.4 L 61.4 0 L 73.5 0 L 73.5 68.8 Z M 109.5 68.8 L 82.1 68.8 L 82.1 0 L 109.5 0 L 109.5 10.9 L 94.2 10.9 L 94.2 28.6 L 107.6 28.6 L 107.6 39.5 L 94.2 39.5 L 94.2 57.9 L 109.5 57.9 L 109.5 68.8 Z M 185.9 68.8 L 158.5 68.8 L 158.5 0 L 185.9 0 L 185.9 10.9 L 170.6 10.9 L 170.6 28.6 L 184 28.6 L 184 39.5 L 170.6 39.5 L 170.6 57.9 L 185.9 57.9 L 185.9 68.8 Z M 319.5 68.8 L 292.1 68.8 L 292.1 0 L 319.5 0 L 319.5 10.9 L 304.2 10.9 L 304.2 28.6 L 317.6 28.6 L 317.6 39.5 L 304.2 39.5 L 304.2 57.9 L 319.5 57.9 L 319.5 68.8 Z M 152.6 68.8 L 140.2 68.8 L 134.4 44.3 L 134.2 44.3 L 128.7 44.3 L 128.7 68.8 L 116.6 68.8 L 116.6 0 L 135.5 0 A 28.984 28.984 0 0 1 139.004 0.198 Q 142.997 0.686 145.379 2.376 A 8.817 8.817 0 0 1 145.55 2.5 A 11.463 11.463 0 0 1 149.46 7.818 A 15.223 15.223 0 0 1 150 9.6 A 32.297 32.297 0 0 1 150.58 12.798 Q 151.065 16.412 151.098 21.386 A 110.254 110.254 0 0 1 151.1 22.1 A 90.96 90.96 0 0 1 150.993 26.668 Q 150.772 31.042 150.098 34.119 A 26.472 26.472 0 0 1 150 34.55 A 12.716 12.716 0 0 1 148.525 38.245 A 10.596 10.596 0 0 1 145.3 41.6 L 152.6 68.8 Z M 286.2 68.8 L 273.8 68.8 L 268 44.3 L 267.8 44.3 L 262.3 44.3 L 262.3 68.8 L 250.2 68.8 L 250.2 0 L 269.1 0 A 28.984 28.984 0 0 1 272.604 0.198 Q 276.597 0.686 278.979 2.376 A 8.817 8.817 0 0 1 279.15 2.5 A 11.463 11.463 0 0 1 283.06 7.818 A 15.223 15.223 0 0 1 283.6 9.6 A 32.297 32.297 0 0 1 284.18 12.798 Q 284.665 16.412 284.698 21.386 A 110.254 110.254 0 0 1 284.7 22.1 A 90.96 90.96 0 0 1 284.593 26.668 Q 284.372 31.042 283.698 34.119 A 26.472 26.472 0 0 1 283.6 34.55 A 12.716 12.716 0 0 1 282.125 38.245 A 10.596 10.596 0 0 1 278.9 41.6 L 286.2 68.8 Z M 245.1 68.8 L 232.9 68.8 L 230.6 53.7 L 218.8 53.7 L 216.5 68.8 L 204.6 68.8 L 215.9 0 L 233.7 0 L 245.1 68.8 Z M 22.8 68.8 L 10.7 68.8 L 10.7 11.1 L 0 11.1 L 0 0 L 33.5 0 L 33.5 11.1 L 22.8 11.1 L 22.8 68.8 Z M 229.4 43.1 L 225 12.4 L 224.4 12.4 L 220 43.1 L 229.4 43.1 Z M 133.5 10.9 L 128.7 10.9 L 128.7 33.7 L 133.5 33.7 A 12.658 12.658 0 0 0 134.779 33.64 Q 136.08 33.508 136.881 33.082 A 2.954 2.954 0 0 0 137.25 32.85 A 2.971 2.971 0 0 0 138.052 31.92 Q 138.512 31.119 138.723 29.869 A 10.396 10.396 0 0 0 138.75 29.7 Q 139.014 27.966 139.079 24.641 A 120.355 120.355 0 0 0 139.1 22.3 Q 139.1 18.455 138.901 16.202 A 21.063 21.063 0 0 0 138.75 14.9 Q 138.412 12.677 137.326 11.808 A 2.512 2.512 0 0 0 137.25 11.75 A 3.466 3.466 0 0 0 136.314 11.275 Q 135.227 10.9 133.5 10.9 Z M 267.1 10.9 L 262.3 10.9 L 262.3 33.7 L 267.1 33.7 A 12.658 12.658 0 0 0 268.379 33.64 Q 269.68 33.508 270.481 33.082 A 2.954 2.954 0 0 0 270.85 32.85 A 2.971 2.971 0 0 0 271.652 31.92 Q 272.112 31.119 272.323 29.869 A 10.396 10.396 0 0 0 272.35 29.7 Q 272.614 27.966 272.679 24.641 A 120.355 120.355 0 0 0 272.7 22.3 Q 272.7 18.455 272.501 16.202 A 21.063 21.063 0 0 0 272.35 14.9 Q 272.012 12.677 270.926 11.808 A 2.512 2.512 0 0 0 270.85 11.75 A 3.466 3.466 0 0 0 269.914 11.275 Q 268.827 10.9 267.1 10.9 Z" vector-effect="non-scaling-stroke"/></g></svg>