<svg width="288.45" height="32.65" viewBox="0 0 288.45 32.65" xmlns="http://www.w3.org/2000/svg"><g id="svgGroup" stroke-linecap="round" fill-rule="evenodd" font-size="9pt" stroke="#000" stroke-width="0" fill="#000" style="stroke:#000;stroke-width:0;fill:#000"><path d="M 110.5 0.5 L 103.7 32.25 L 92.6 32.25 L 97.2 10.65 L 85.35 32.25 L 78.55 32.25 L 76.3 9.9 L 71.5 32.25 L 67 32.25 L 73.75 0.5 L 86.5 0.5 L 88.05 18.4 L 97.65 0.5 L 110.5 0.5 Z M 273.15 0.5 L 268.75 20.9 A 69.768 69.768 0 0 0 268.577 21.683 Q 268.444 22.3 268.35 22.8 A 9.018 9.018 0 0 0 268.229 23.669 A 7.189 7.189 0 0 0 268.2 24.3 A 4.041 4.041 0 0 0 268.402 25.606 A 3.367 3.367 0 0 0 269.425 27.1 A 3.889 3.889 0 0 0 270.722 27.818 Q 271.7 28.15 273.05 28.15 Q 274.415 28.15 275.4 27.785 A 4.264 4.264 0 0 0 275.925 27.55 Q 277.05 26.95 277.775 25.95 A 7.942 7.942 0 0 0 278.694 24.281 A 9.396 9.396 0 0 0 278.925 23.65 A 24.863 24.863 0 0 0 279.533 21.439 A 28.046 28.046 0 0 0 279.65 20.9 L 283.9 0.5 L 288.45 0.5 L 284.1 21 A 21.721 21.721 0 0 1 282.824 25.104 A 20.02 20.02 0 0 1 282.65 25.5 Q 281.7 27.6 279.925 29.2 A 10.987 10.987 0 0 1 277.677 30.748 A 15.233 15.233 0 0 1 275.351 31.725 A 16.466 16.466 0 0 1 272.852 32.324 Q 270.864 32.65 268.4 32.65 Q 263.187 32.65 260.44 31.109 A 7.282 7.282 0 0 1 259.9 30.775 Q 257.15 28.9 257.15 25 Q 257.15 23.25 257.6 20.55 Q 258.05 17.85 258.75 14.7 L 261.8 0.5 L 273.15 0.5 Z M 109.2 32.25 L 115.95 0.5 L 137 0.5 L 136.2 4.3 L 126 4.3 L 123.9 13.95 L 132.45 13.95 L 131.65 17.7 L 123.1 17.7 L 120.8 28.4 L 131 28.4 L 130.25 32.25 L 109.2 32.25 Z M 134.35 32.25 L 141.1 0.5 L 162.15 0.5 L 161.35 4.3 L 151.15 4.3 L 149.05 13.95 L 157.6 13.95 L 156.8 17.7 L 148.25 17.7 L 145.95 28.4 L 156.15 28.4 L 155.4 32.25 L 134.35 32.25 Z M 226.25 0.5 L 213.5 20.25 L 210.95 32.25 L 200.1 32.25 L 202.85 19.4 L 197.95 0.5 L 209.95 0.5 L 213.35 13.05 L 220.85 0.5 L 226.25 0.5 Z M 27.65 0.5 L 26.8 4.3 L 18.75 4.3 L 12.8 32.25 L 2 32.25 L 7.95 4.3 L 0 4.3 L 0.9 0.5 L 27.65 0.5 Z M 190.8 0.5 L 189.95 4.3 L 181.9 4.3 L 175.95 32.25 L 165.15 32.25 L 171.1 4.3 L 163.15 4.3 L 164.05 0.5 L 190.8 0.5 Z M 46.514 0.13 A 27.561 27.561 0 0 0 43.75 0 Q 41.838 0 40.179 0.212 A 19.356 19.356 0 0 0 37.45 0.75 Q 34.75 1.5 32.55 3.05 Q 28.9 5.6 26.925 9.975 A 21.408 21.408 0 0 0 25.499 14.373 A 26.701 26.701 0 0 0 24.95 19.9 A 29.895 29.895 0 0 0 24.985 21.385 Q 25.099 23.662 25.575 25.3 Q 25.878 26.342 26.292 27.207 A 8.788 8.788 0 0 0 27.3 28.85 A 8.148 8.148 0 0 0 28.995 30.483 A 9.493 9.493 0 0 0 31.5 31.75 A 14.279 14.279 0 0 0 33.523 32.263 Q 35.645 32.65 38.5 32.65 A 36.16 36.16 0 0 0 40.118 32.615 Q 41.782 32.54 43.227 32.308 A 18.142 18.142 0 0 0 46.075 31.625 Q 49.15 30.6 51.5 28.05 A 15.603 15.603 0 0 0 52.296 27.118 A 18.291 18.291 0 0 0 53.775 24.925 Q 54.8 23.15 55.525 21.125 Q 56.25 19.1 56.65 16.9 Q 57.05 14.7 57.05 12.5 A 23.13 23.13 0 0 0 57.048 12.184 Q 57.016 9.828 56.5 8 Q 55.95 6.05 54.95 4.5 Q 53.4 2.2 50.725 1.1 Q 48.97 0.378 46.514 0.13 Z M 244.464 0.13 A 27.561 27.561 0 0 0 241.7 0 Q 239.788 0 238.129 0.212 A 19.356 19.356 0 0 0 235.4 0.75 Q 232.7 1.5 230.5 3.05 Q 226.85 5.6 224.875 9.975 A 21.408 21.408 0 0 0 223.449 14.373 A 26.701 26.701 0 0 0 222.9 19.9 A 29.895 29.895 0 0 0 222.935 21.385 Q 223.049 23.662 223.525 25.3 Q 223.828 26.342 224.242 27.207 A 8.788 8.788 0 0 0 225.25 28.85 A 8.148 8.148 0 0 0 226.945 30.483 A 9.493 9.493 0 0 0 229.45 31.75 A 14.279 14.279 0 0 0 231.473 32.263 Q 233.595 32.65 236.45 32.65 A 36.16 36.16 0 0 0 238.068 32.615 Q 239.732 32.54 241.177 32.308 A 18.142 18.142 0 0 0 244.025 31.625 Q 247.1 30.6 249.45 28.05 A 15.603 15.603 0 0 0 250.246 27.118 A 18.291 18.291 0 0 0 251.725 24.925 Q 252.75 23.15 253.475 21.125 Q 254.2 19.1 254.6 16.9 Q 255 14.7 255 12.5 A 23.13 23.13 0 0 0 254.998 12.184 Q 254.966 9.828 254.45 8 Q 253.9 6.05 252.9 4.5 Q 251.35 2.2 248.675 1.1 Q 246.92 0.378 244.464 0.13 Z M 38.1 29.15 A 2.671 2.671 0 0 0 39.489 28.75 Q 39.866 28.525 40.227 28.173 A 5.09 5.09 0 0 0 40.275 28.125 Q 41.151 27.249 41.918 25.861 A 15.6 15.6 0 0 0 42.175 25.375 Q 43.05 23.65 43.775 21.45 Q 44.5 19.25 45 16.9 Q 45.5 14.55 45.775 12.225 Q 46.05 9.9 46.05 8 Q 46.05 5.4 45.525 4.425 A 2.171 2.171 0 0 0 45.15 3.911 A 1.566 1.566 0 0 0 44 3.45 A 2.77 2.77 0 0 0 42.61 3.836 Q 42.224 4.057 41.85 4.403 A 5.223 5.223 0 0 0 41.8 4.45 A 8.775 8.775 0 0 0 40.874 5.495 Q 40.467 6.031 40.08 6.68 A 15.873 15.873 0 0 0 39.825 7.125 A 20.365 20.365 0 0 0 38.873 9.107 A 26.735 26.735 0 0 0 38.175 10.975 Q 37.45 13.15 36.925 15.45 Q 36.4 17.75 36.125 20 Q 35.85 22.25 35.85 24.15 Q 35.85 26.278 36.199 27.417 A 3.144 3.144 0 0 0 36.475 28.075 A 2.785 2.785 0 0 0 36.868 28.607 A 1.652 1.652 0 0 0 38.1 29.15 Z M 236.05 29.15 A 2.671 2.671 0 0 0 237.439 28.75 Q 237.816 28.525 238.177 28.173 A 5.09 5.09 0 0 0 238.225 28.125 Q 239.101 27.249 239.868 25.861 A 15.6 15.6 0 0 0 240.125 25.375 Q 241 23.65 241.725 21.45 Q 242.45 19.25 242.95 16.9 Q 243.45 14.55 243.725 12.225 Q 244 9.9 244 8 Q 244 5.4 243.475 4.425 A 2.171 2.171 0 0 0 243.1 3.911 A 1.566 1.566 0 0 0 241.95 3.45 A 2.77 2.77 0 0 0 240.56 3.836 Q 240.174 4.057 239.8 4.403 A 5.223 5.223 0 0 0 239.75 4.45 A 8.775 8.775 0 0 0 238.824 5.495 Q 238.417 6.031 238.03 6.68 A 15.873 15.873 0 0 0 237.775 7.125 A 20.365 20.365 0 0 0 236.823 9.107 A 26.735 26.735 0 0 0 236.125 10.975 Q 235.4 13.15 234.875 15.45 Q 234.35 17.75 234.075 20 Q 233.8 22.25 233.8 24.15 Q 233.8 26.278 234.149 27.417 A 3.144 3.144 0 0 0 234.425 28.075 A 2.785 2.785 0 0 0 234.818 28.607 A 1.652 1.652 0 0 0 236.05 29.15 Z" vector-effect="non-scaling-stroke"/></g></svg>