<svg width="242.1" height="70.401" viewBox="0 0 242.1 70.401" xmlns="http://www.w3.org/2000/svg"><g id="svgGroup" stroke-linecap="round" fill-rule="evenodd" font-size="9pt" stroke="#ffffff" stroke-width="0" fill="#000" style="stroke:#ffffff;stroke-width:0;fill:#000"><path d="M 165.2 69.6 L 153.1 69.6 L 153.1 40.6 L 142.3 40.6 L 142.3 69.6 L 130.2 69.6 L 130.2 0.8 L 142.3 0.8 L 142.3 29.2 L 153.1 29.2 L 153.1 0.8 L 165.2 0.8 L 165.2 69.6 Z M 210.9 69.6 L 198.7 69.6 L 196.4 54.5 L 184.6 54.5 L 182.3 69.6 L 170.4 69.6 L 181.7 0.8 L 199.5 0.8 L 210.9 69.6 Z M 22.8 69.6 L 10.7 69.6 L 10.7 11.9 L 0 11.9 L 0 0.8 L 33.5 0.8 L 33.5 11.9 L 22.8 11.9 L 22.8 69.6 Z M 114.5 69.6 L 102.4 69.6 L 102.4 11.9 L 91.7 11.9 L 91.7 0.8 L 125.2 0.8 L 125.2 11.9 L 114.5 11.9 L 114.5 69.6 Z M 231.4 69.6 L 219.3 69.6 L 219.3 11.9 L 208.6 11.9 L 208.6 0.8 L 242.1 0.8 L 242.1 11.9 L 231.4 11.9 L 231.4 69.6 Z M 42.45 67.4 A 9.101 9.101 0 0 0 43.809 68.318 Q 47.552 70.4 54.8 70.4 A 46.081 46.081 0 0 0 56.558 70.368 Q 63.885 70.088 67.2 67.4 A 10.443 10.443 0 0 0 69.34 65.016 Q 71.213 62.176 71.85 57.65 A 65.701 65.701 0 0 0 72.26 53.786 Q 72.8 47.037 72.8 35.2 A 416.663 416.663 0 0 0 72.742 28.015 Q 72.566 17.839 71.85 12.75 Q 71.356 9.243 70.121 6.749 A 11.051 11.051 0 0 0 67.2 3 Q 64.483 0.797 59.069 0.212 A 39.876 39.876 0 0 0 54.8 0 A 46.011 46.011 0 0 0 53.032 0.033 Q 45.717 0.315 42.45 3 A 10.443 10.443 0 0 0 40.308 5.43 Q 38.482 8.261 37.85 12.75 A 65.701 65.701 0 0 0 37.44 16.615 Q 36.9 23.364 36.9 35.2 A 416.663 416.663 0 0 0 36.958 42.386 Q 37.134 52.561 37.85 57.65 A 25.117 25.117 0 0 0 38.336 60.191 Q 39.527 64.998 42.45 67.4 Z M 58.462 58.68 A 2.611 2.611 0 0 0 58.9 58.3 Q 59.907 57.202 60.285 53.172 A 40.116 40.116 0 0 0 60.35 52.4 A 82.012 82.012 0 0 0 60.499 49.666 Q 60.653 45.843 60.689 39.395 A 751.857 751.857 0 0 0 60.7 35.2 A 704.205 704.205 0 0 0 60.679 29.603 Q 60.615 21.562 60.35 18 Q 60 13.3 58.9 12.1 A 2.982 2.982 0 0 0 57.864 11.393 Q 56.923 10.987 55.452 10.916 A 13.46 13.46 0 0 0 54.8 10.9 A 11.697 11.697 0 0 0 53.432 10.974 Q 52.025 11.141 51.227 11.682 A 2.485 2.485 0 0 0 50.75 12.1 A 3.051 3.051 0 0 0 50.273 12.906 Q 49.602 14.469 49.3 18.05 A 73.694 73.694 0 0 0 49.13 20.8 Q 48.9 25.803 48.9 35.2 A 608.073 608.073 0 0 0 48.923 40.758 Q 48.986 47.58 49.216 51.201 A 56.225 56.225 0 0 0 49.3 52.35 A 38.82 38.82 0 0 0 49.473 54.007 Q 49.897 57.325 50.75 58.3 Q 51.8 59.5 54.8 59.5 Q 57.28 59.5 58.462 58.68 Z M 195.2 43.9 L 190.8 13.2 L 190.2 13.2 L 185.8 43.9 L 195.2 43.9 Z" vector-effect="non-scaling-stroke"/></g></svg>