<svg width="100%" height="100%" viewBox="0 0 1548.7 70.401" xmlns="http://www.w3.org/2000/svg"><g id="svgGroup" stroke-linecap="round" fill-rule="evenodd" font-size="9pt" stroke="#000" stroke-width="0" fill="#ffffff" style="stroke:#000;stroke-width:0;fill:#ffffff"><path d="M 150.5 69.6 L 139.8 69.6 L 127.1 30.8 L 126.7 30.8 L 126.7 69.6 L 115.2 69.6 L 115.2 0.8 L 126.6 0.8 L 138.5 36.9 L 139.1 36.9 L 139.1 0.8 L 150.5 0.8 L 150.5 69.6 Z M 278.3 69.6 L 267.6 69.6 L 254.9 30.8 L 254.5 30.8 L 254.5 69.6 L 243 69.6 L 243 0.8 L 254.4 0.8 L 266.3 36.9 L 266.9 36.9 L 266.9 0.8 L 278.3 0.8 L 278.3 69.6 Z M 456.7 69.6 L 446 69.6 L 433.3 30.8 L 432.9 30.8 L 432.9 69.6 L 421.4 69.6 L 421.4 0.8 L 432.8 0.8 L 444.7 36.9 L 445.3 36.9 L 445.3 0.8 L 456.7 0.8 L 456.7 69.6 Z M 690.3 69.6 L 679.6 69.6 L 666.9 30.8 L 666.5 30.8 L 666.5 69.6 L 655 69.6 L 655 0.8 L 666.4 0.8 L 678.3 36.9 L 678.9 36.9 L 678.9 0.8 L 690.3 0.8 L 690.3 69.6 Z M 813.1 29.9 L 830.8 29.9 L 830.8 39.8 L 824.4 39.8 L 824.4 68.7 A 75.639 75.639 0 0 1 821.137 69.275 Q 819.466 69.533 817.609 69.756 A 127.467 127.467 0 0 1 816.35 69.9 Q 812.44 70.33 809.305 70.39 A 52.17 52.17 0 0 1 808.3 70.4 A 43.283 43.283 0 0 1 804.213 70.22 Q 800.034 69.822 797.25 68.55 Q 793.2 66.7 791.35 62.6 A 17.927 17.927 0 0 1 790.232 59.158 Q 789.5 55.903 789.5 51.5 A 52.18 52.18 0 0 1 789.645 47.465 Q 789.951 43.534 790.905 41.042 A 10.521 10.521 0 0 1 791.55 39.65 Q 793.6 36 798.1 34.7 L 798.1 34.3 A 10.016 10.016 0 0 1 792.063 29.222 A 12.484 12.484 0 0 1 792 29.1 Q 790.11 25.414 790.006 18.511 A 54.063 54.063 0 0 1 790 17.7 A 33.732 33.732 0 0 1 790.319 12.881 Q 791.204 6.768 794.55 3.9 A 13.59 13.59 0 0 1 798.729 1.524 Q 802.584 0.099 808.303 0.007 A 49.615 49.615 0 0 1 809.1 0 A 52.359 52.359 0 0 1 812.169 0.096 Q 813.737 0.188 815.473 0.37 A 90.375 90.375 0 0 1 816.65 0.5 Q 820.9 1 824.4 1.7 L 824.4 10.6 A 92.408 92.408 0 0 0 814.294 9.911 A 101.585 101.585 0 0 0 812.8 9.9 A 64.094 64.094 0 0 0 810.341 9.944 Q 807.984 10.035 806.451 10.315 A 10.285 10.285 0 0 0 805.25 10.6 A 5.262 5.262 0 0 0 803.773 11.308 A 4.16 4.16 0 0 0 802.25 13.3 Q 801.649 14.903 801.53 18.174 A 47.422 47.422 0 0 0 801.5 19.9 A 48.884 48.884 0 0 0 801.562 22.453 Q 801.754 26.121 802.55 27.75 Q 803.407 29.505 805.961 29.827 A 9.898 9.898 0 0 0 807.2 29.9 L 809.2 29.9 L 809.2 39.8 L 807.2 39.8 A 12.783 12.783 0 0 0 805.766 39.875 Q 804.253 40.047 803.316 40.61 A 3.726 3.726 0 0 0 803.25 40.65 Q 801.9 41.5 801.35 43.7 Q 800.8 45.9 800.8 50.3 Q 800.8 55 801.6 57.1 A 5.104 5.104 0 0 0 802.4 58.52 A 4.149 4.149 0 0 0 804.35 59.85 A 9.234 9.234 0 0 0 805.632 60.164 Q 807.032 60.415 809.109 60.479 A 48.782 48.782 0 0 0 810.6 60.5 A 43.221 43.221 0 0 0 811.356 60.494 Q 812.175 60.48 812.762 60.432 A 11.252 11.252 0 0 0 813.1 60.4 L 813.1 29.9 Z M 1193.8 69.6 L 1181.2 69.6 L 1173.2 40.5 L 1169.8 40.5 L 1169.8 69.6 L 1157.7 69.6 L 1157.7 0.8 L 1169.8 0.8 L 1169.8 29 L 1173.2 29 L 1181.4 0.8 L 1193.7 0.8 L 1182.6 34 L 1193.8 69.6 Z M 905.9 0.8 L 917.9 0.8 L 917.9 39.3 Q 917.9 49.629 917.388 55.552 A 54.187 54.187 0 0 1 917 58.95 A 18.45 18.45 0 0 1 916.119 62.51 Q 914.919 65.803 912.5 67.65 A 10.559 10.559 0 0 1 909.621 69.159 Q 906.763 70.179 902.443 70.361 A 46.247 46.247 0 0 1 900.5 70.4 A 40.593 40.593 0 0 1 896.376 70.206 Q 891.144 69.67 888.5 67.65 Q 884.9 64.9 884 58.95 Q 883.321 54.465 883.155 45.574 A 335.49 335.49 0 0 1 883.1 39.3 L 883.1 0.8 L 895.1 0.8 L 895.1 44 A 312.644 312.644 0 0 0 895.118 47.451 Q 895.173 52.415 895.4 54.65 Q 895.7 57.6 896.75 58.55 A 2.89 2.89 0 0 0 897.642 59.081 Q 898.49 59.415 899.798 59.483 A 13.527 13.527 0 0 0 900.5 59.5 Q 902.66 59.5 903.764 58.892 A 2.564 2.564 0 0 0 904.25 58.55 A 2.782 2.782 0 0 0 904.833 57.766 Q 905.24 56.987 905.461 55.722 A 14.926 14.926 0 0 0 905.6 54.7 A 36.494 36.494 0 0 0 905.728 53.008 Q 905.9 49.911 905.9 44 L 905.9 0.8 Z M 636.3 40.8 L 631.1 40.8 L 631.1 30.2 L 647.1 30.2 L 647.1 68.3 A 27.372 27.372 0 0 1 644.529 69.039 Q 642.494 69.524 640 69.85 Q 635.8 70.4 631.9 70.4 A 36.659 36.659 0 0 1 627.724 70.179 Q 623.248 69.664 620.524 67.952 A 10.242 10.242 0 0 1 620 67.6 Q 616.1 64.8 614.6 57.45 A 54.977 54.977 0 0 1 613.875 52.719 Q 613.1 45.91 613.1 35.2 A 222.096 222.096 0 0 1 613.227 27.416 Q 613.474 20.385 614.206 15.641 A 44.851 44.851 0 0 1 614.7 12.95 Q 615.718 8.275 617.787 5.441 A 10.742 10.742 0 0 1 620.5 2.8 A 13.894 13.894 0 0 1 624.061 1.149 Q 627.483 0.074 632.413 0.005 A 48.859 48.859 0 0 1 633.1 0 A 44.204 44.204 0 0 1 636.46 0.136 Q 638.26 0.273 640.25 0.55 A 66.731 66.731 0 0 1 643.051 0.998 Q 644.425 1.249 645.624 1.539 A 34.479 34.479 0 0 1 647 1.9 L 647 12 A 157.411 157.411 0 0 0 643.675 11.519 Q 640.312 11.072 638.009 10.948 A 30.17 30.17 0 0 0 636.4 10.9 A 41.265 41.265 0 0 0 633.893 10.971 Q 630.291 11.191 628.7 12.1 A 3.941 3.941 0 0 0 627.423 13.332 Q 626.328 14.932 625.8 18.1 A 38.944 38.944 0 0 0 625.451 20.956 Q 625.021 25.735 625.001 34.366 A 366.474 366.474 0 0 0 625 35.2 Q 625 45.975 625.382 50.898 A 50.098 50.098 0 0 0 625.45 51.7 Q 625.785 55.278 626.649 57.106 A 4.73 4.73 0 0 0 627.3 58.15 Q 628.7 59.8 632.2 59.8 Q 634.7 59.8 636.3 59.4 L 636.3 40.8 Z M 1314.6 69.6 L 1296.8 69.6 L 1286.3 0.8 L 1298.5 0.8 L 1305.5 56.6 L 1306.4 56.6 L 1313.2 0.8 L 1325.1 0.8 L 1314.6 69.6 Z M 314.3 69.6 L 286.9 69.6 L 286.9 0.8 L 314.3 0.8 L 314.3 11.7 L 299 11.7 L 299 29.4 L 312.4 29.4 L 312.4 40.3 L 299 40.3 L 299 58.7 L 314.3 58.7 L 314.3 69.6 Z M 549.3 69.6 L 521.9 69.6 L 521.9 0.8 L 549.3 0.8 L 549.3 11.7 L 534 11.7 L 534 29.4 L 547.4 29.4 L 547.4 40.3 L 534 40.3 L 534 58.7 L 549.3 58.7 L 549.3 69.6 Z M 726.3 69.6 L 698.9 69.6 L 698.9 0.8 L 726.3 0.8 L 726.3 11.7 L 711 11.7 L 711 29.4 L 724.4 29.4 L 724.4 40.3 L 711 40.3 L 711 58.7 L 726.3 58.7 L 726.3 69.6 Z M 1282.7 69.6 L 1255.3 69.6 L 1255.3 0.8 L 1282.7 0.8 L 1282.7 11.7 L 1267.4 11.7 L 1267.4 29.4 L 1280.8 29.4 L 1280.8 40.3 L 1267.4 40.3 L 1267.4 58.7 L 1282.7 58.7 L 1282.7 69.6 Z M 1357.6 69.6 L 1330.2 69.6 L 1330.2 0.8 L 1357.6 0.8 L 1357.6 11.7 L 1342.3 11.7 L 1342.3 29.4 L 1355.7 29.4 L 1355.7 40.3 L 1342.3 40.3 L 1342.3 58.7 L 1357.6 58.7 L 1357.6 69.6 Z M 1505.6 69.6 L 1478.2 69.6 L 1478.2 0.8 L 1505.6 0.8 L 1505.6 11.7 L 1490.3 11.7 L 1490.3 29.4 L 1503.7 29.4 L 1503.7 40.3 L 1490.3 40.3 L 1490.3 58.7 L 1505.6 58.7 L 1505.6 69.6 Z M 769.4 69.6 L 757 69.6 L 751.2 45.1 L 751 45.1 L 745.5 45.1 L 745.5 69.6 L 733.4 69.6 L 733.4 0.8 L 752.3 0.8 A 28.984 28.984 0 0 1 755.804 0.998 Q 759.797 1.486 762.179 3.176 A 8.817 8.817 0 0 1 762.35 3.3 A 11.463 11.463 0 0 1 766.26 8.618 A 15.223 15.223 0 0 1 766.8 10.4 A 32.297 32.297 0 0 1 767.38 13.598 Q 767.865 17.212 767.898 22.186 A 110.254 110.254 0 0 1 767.9 22.9 A 90.96 90.96 0 0 1 767.793 27.468 Q 767.572 31.842 766.898 34.919 A 26.472 26.472 0 0 1 766.8 35.35 A 12.716 12.716 0 0 1 765.325 39.046 A 10.596 10.596 0 0 1 762.1 42.4 L 769.4 69.6 Z M 1548.7 69.6 L 1536.3 69.6 L 1530.5 45.1 L 1530.3 45.1 L 1524.8 45.1 L 1524.8 69.6 L 1512.7 69.6 L 1512.7 0.8 L 1531.6 0.8 A 28.984 28.984 0 0 1 1535.104 0.998 Q 1539.097 1.486 1541.479 3.176 A 8.817 8.817 0 0 1 1541.65 3.3 A 11.463 11.463 0 0 1 1545.56 8.618 A 15.223 15.223 0 0 1 1546.1 10.4 A 32.297 32.297 0 0 1 1546.68 13.598 Q 1547.165 17.212 1547.198 22.186 A 110.254 110.254 0 0 1 1547.2 22.9 A 90.96 90.96 0 0 1 1547.093 27.468 Q 1546.872 31.842 1546.198 34.919 A 26.472 26.472 0 0 1 1546.1 35.35 A 12.716 12.716 0 0 1 1544.625 39.046 A 10.596 10.596 0 0 1 1541.4 42.4 L 1548.7 69.6 Z M 320.4 68.7 L 320.4 58.8 Q 327.7 59.5 331.7 59.5 Q 334.215 59.5 335.682 59.218 A 8.371 8.371 0 0 0 336 59.15 A 5.156 5.156 0 0 0 337.274 58.679 A 4.13 4.13 0 0 0 338.4 57.8 Q 339.8 56.1 339.8 50.4 Q 339.8 46.036 339.456 44.23 A 8.166 8.166 0 0 0 339.45 44.2 Q 339.1 42.4 338 41.55 A 4.361 4.361 0 0 0 337.239 41.092 Q 336.4 40.685 335.071 40.346 A 24.141 24.141 0 0 0 334 40.1 L 326 38.4 Q 322.2 37.6 320.8 33.2 A 23.305 23.305 0 0 1 320.065 30.082 Q 319.494 26.74 319.413 21.994 A 93.966 93.966 0 0 1 319.4 20.4 Q 319.4 12.583 321.263 8.166 A 14.731 14.731 0 0 1 321.4 7.85 A 14.315 14.315 0 0 1 323.23 4.793 A 10.503 10.503 0 0 1 327.15 1.7 Q 330.065 0.379 334.279 0.085 A 36.225 36.225 0 0 1 336.8 0 Q 341.3 0 344.95 0.6 A 92.012 92.012 0 0 1 346.42 0.853 Q 348.819 1.288 349.6 1.6 L 349.6 11.6 A 12.803 12.803 0 0 0 349.019 11.501 Q 347.958 11.34 345.95 11.15 A 56.347 56.347 0 0 0 342.501 10.935 A 67.399 67.399 0 0 0 340.3 10.9 A 36.918 36.918 0 0 0 338.528 10.94 Q 336.82 11.022 335.664 11.276 A 8.983 8.983 0 0 0 335.35 11.35 Q 333.6 11.8 332.8 12.8 Q 332.047 13.742 331.781 15.215 A 8.024 8.024 0 0 0 331.75 15.4 Q 331.5 17 331.5 20 Q 331.5 22.639 331.642 24.169 A 13.351 13.351 0 0 0 331.75 25.05 A 5.819 5.819 0 0 0 331.957 25.926 Q 332.102 26.371 332.313 26.715 A 2.526 2.526 0 0 0 332.8 27.3 A 3.374 3.374 0 0 0 333.45 27.737 Q 334.205 28.135 335.4 28.4 L 342.3 30 Q 345.4 30.6 347.45 32.1 Q 348.965 33.209 350.016 35.519 A 16.893 16.893 0 0 1 350.7 37.3 A 18.7 18.7 0 0 1 351.232 39.626 Q 351.667 42.195 351.769 45.915 A 87.177 87.177 0 0 1 351.8 48.3 A 72.013 72.013 0 0 1 351.637 53.324 Q 351.251 58.825 349.95 62.2 A 15.767 15.767 0 0 1 348.515 65.075 Q 347.435 66.752 346.016 67.812 A 8.783 8.783 0 0 1 344.55 68.7 A 14.972 14.972 0 0 1 341.543 69.736 Q 338.75 70.4 335 70.4 A 62.799 62.799 0 0 1 330.873 70.258 A 80.301 80.301 0 0 1 327.4 69.95 A 59.626 59.626 0 0 1 324.267 69.527 Q 322.792 69.285 321.517 68.985 A 30.386 30.386 0 0 1 320.4 68.7 Z M 555.4 68.7 L 555.4 58.8 Q 562.7 59.5 566.7 59.5 Q 569.215 59.5 570.682 59.218 A 8.371 8.371 0 0 0 571 59.15 A 5.156 5.156 0 0 0 572.274 58.679 A 4.13 4.13 0 0 0 573.4 57.8 Q 574.8 56.1 574.8 50.4 Q 574.8 46.036 574.456 44.23 A 8.166 8.166 0 0 0 574.45 44.2 Q 574.1 42.4 573 41.55 A 4.361 4.361 0 0 0 572.239 41.092 Q 571.4 40.685 570.071 40.346 A 24.141 24.141 0 0 0 569 40.1 L 561 38.4 Q 557.2 37.6 555.8 33.2 A 23.305 23.305 0 0 1 555.065 30.082 Q 554.494 26.74 554.413 21.994 A 93.966 93.966 0 0 1 554.4 20.4 Q 554.4 12.583 556.263 8.166 A 14.731 14.731 0 0 1 556.4 7.85 A 14.315 14.315 0 0 1 558.23 4.793 A 10.503 10.503 0 0 1 562.15 1.7 Q 565.065 0.379 569.279 0.085 A 36.225 36.225 0 0 1 571.8 0 Q 576.3 0 579.95 0.6 A 92.012 92.012 0 0 1 581.42 0.853 Q 583.819 1.288 584.6 1.6 L 584.6 11.6 A 12.803 12.803 0 0 0 584.019 11.501 Q 582.958 11.34 580.95 11.15 A 56.347 56.347 0 0 0 577.501 10.935 A 67.399 67.399 0 0 0 575.3 10.9 A 36.918 36.918 0 0 0 573.528 10.94 Q 571.82 11.022 570.664 11.276 A 8.983 8.983 0 0 0 570.35 11.35 Q 568.6 11.8 567.8 12.8 Q 567.047 13.742 566.781 15.215 A 8.024 8.024 0 0 0 566.75 15.4 Q 566.5 17 566.5 20 Q 566.5 22.639 566.642 24.169 A 13.351 13.351 0 0 0 566.75 25.05 A 5.819 5.819 0 0 0 566.957 25.926 Q 567.102 26.371 567.313 26.715 A 2.526 2.526 0 0 0 567.8 27.3 A 3.374 3.374 0 0 0 568.45 27.737 Q 569.205 28.135 570.4 28.4 L 577.3 30 Q 580.4 30.6 582.45 32.1 Q 583.965 33.209 585.016 35.519 A 16.893 16.893 0 0 1 585.7 37.3 A 18.7 18.7 0 0 1 586.232 39.626 Q 586.667 42.195 586.769 45.915 A 87.177 87.177 0 0 1 586.8 48.3 A 72.013 72.013 0 0 1 586.637 53.324 Q 586.251 58.825 584.95 62.2 A 15.767 15.767 0 0 1 583.515 65.075 Q 582.435 66.752 581.016 67.812 A 8.783 8.783 0 0 1 579.55 68.7 A 14.972 14.972 0 0 1 576.543 69.736 Q 573.75 70.4 570 70.4 A 62.799 62.799 0 0 1 565.873 70.258 A 80.301 80.301 0 0 1 562.4 69.95 A 59.626 59.626 0 0 1 559.267 69.527 Q 557.792 69.285 556.517 68.985 A 30.386 30.386 0 0 1 555.4 68.7 Z M 1014.3 68.7 L 1014.3 58.8 Q 1021.6 59.5 1025.6 59.5 Q 1028.115 59.5 1029.582 59.218 A 8.371 8.371 0 0 0 1029.9 59.15 A 5.156 5.156 0 0 0 1031.174 58.679 A 4.13 4.13 0 0 0 1032.3 57.8 Q 1033.7 56.1 1033.7 50.4 Q 1033.7 46.036 1033.356 44.23 A 8.166 8.166 0 0 0 1033.35 44.2 Q 1033 42.4 1031.9 41.55 A 4.361 4.361 0 0 0 1031.139 41.092 Q 1030.3 40.685 1028.971 40.346 A 24.141 24.141 0 0 0 1027.9 40.1 L 1019.9 38.4 Q 1016.1 37.6 1014.7 33.2 A 23.305 23.305 0 0 1 1013.965 30.082 Q 1013.394 26.74 1013.313 21.994 A 93.966 93.966 0 0 1 1013.3 20.4 Q 1013.3 12.583 1015.163 8.166 A 14.731 14.731 0 0 1 1015.3 7.85 A 14.315 14.315 0 0 1 1017.13 4.793 A 10.503 10.503 0 0 1 1021.05 1.7 Q 1023.965 0.379 1028.179 0.085 A 36.225 36.225 0 0 1 1030.7 0 Q 1035.2 0 1038.85 0.6 A 92.012 92.012 0 0 1 1040.32 0.853 Q 1042.719 1.288 1043.5 1.6 L 1043.5 11.6 A 12.803 12.803 0 0 0 1042.919 11.501 Q 1041.858 11.34 1039.85 11.15 A 56.347 56.347 0 0 0 1036.401 10.935 A 67.399 67.399 0 0 0 1034.2 10.9 A 36.918 36.918 0 0 0 1032.428 10.94 Q 1030.72 11.022 1029.564 11.276 A 8.983 8.983 0 0 0 1029.25 11.35 Q 1027.5 11.8 1026.7 12.8 Q 1025.947 13.742 1025.681 15.215 A 8.024 8.024 0 0 0 1025.65 15.4 Q 1025.4 17 1025.4 20 Q 1025.4 22.639 1025.542 24.169 A 13.351 13.351 0 0 0 1025.65 25.05 A 5.819 5.819 0 0 0 1025.857 25.926 Q 1026.002 26.371 1026.213 26.715 A 2.526 2.526 0 0 0 1026.7 27.3 A 3.374 3.374 0 0 0 1027.35 27.737 Q 1028.105 28.135 1029.3 28.4 L 1036.2 30 Q 1039.3 30.6 1041.35 32.1 Q 1042.865 33.209 1043.916 35.519 A 16.893 16.893 0 0 1 1044.6 37.3 A 18.7 18.7 0 0 1 1045.132 39.626 Q 1045.567 42.195 1045.669 45.915 A 87.177 87.177 0 0 1 1045.7 48.3 A 72.013 72.013 0 0 1 1045.537 53.324 Q 1045.151 58.825 1043.85 62.2 A 15.767 15.767 0 0 1 1042.415 65.075 Q 1041.335 66.752 1039.916 67.812 A 8.783 8.783 0 0 1 1038.45 68.7 A 14.972 14.972 0 0 1 1035.443 69.736 Q 1032.65 70.4 1028.9 70.4 A 62.799 62.799 0 0 1 1024.773 70.258 A 80.301 80.301 0 0 1 1021.3 69.95 A 59.626 59.626 0 0 1 1018.167 69.527 Q 1016.692 69.285 1015.417 68.985 A 30.386 30.386 0 0 1 1014.3 68.7 Z M 416.3 69.6 L 404.1 69.6 L 401.8 54.5 L 390 54.5 L 387.7 69.6 L 375.8 69.6 L 387.1 0.8 L 404.9 0.8 L 416.3 69.6 Z M 1120.3 69.6 L 1108.1 69.6 L 1105.8 54.5 L 1094 54.5 L 1091.7 69.6 L 1079.8 69.6 L 1091.1 0.8 L 1108.9 0.8 L 1120.3 69.6 Z M 863.5 69.6 L 851.4 69.6 L 851.4 0.8 L 877.5 0.8 L 877.5 11.7 L 863.5 11.7 L 863.5 30.8 L 875.9 30.8 L 875.9 41.7 L 863.5 41.7 L 863.5 69.6 Z M 1071.3 69.6 L 1059.2 69.6 L 1059.2 11.9 L 1048.5 11.9 L 1048.5 0.8 L 1082 0.8 L 1082 11.9 L 1071.3 11.9 L 1071.3 69.6 Z M 1151.1 1.5 L 1151.1 11.6 A 50.082 50.082 0 0 0 1147.915 11.128 Q 1146.412 10.957 1145.074 10.915 A 27.409 27.409 0 0 0 1144.2 10.9 Q 1140.973 10.9 1139.355 11.893 A 3.76 3.76 0 0 0 1138.75 12.35 Q 1137.2 13.8 1136.75 18.5 Q 1136.3 23.2 1136.3 35.2 Q 1136.3 45.875 1136.656 50.773 A 49.658 49.658 0 0 0 1136.75 51.9 A 24.922 24.922 0 0 0 1137.021 53.925 Q 1137.563 56.94 1138.75 58.05 A 4.293 4.293 0 0 0 1140.093 58.876 Q 1141.368 59.39 1143.329 59.481 A 18.871 18.871 0 0 0 1144.2 59.5 A 36.593 36.593 0 0 0 1148.755 59.227 A 30.646 30.646 0 0 0 1151.3 58.8 L 1151.3 68.8 Q 1150.032 69.323 1148.234 69.706 A 31.311 31.311 0 0 1 1146.95 69.95 A 32.877 32.877 0 0 1 1144.079 70.314 A 26.008 26.008 0 0 1 1142 70.4 Q 1134.51 70.4 1130.796 67.659 A 9.358 9.358 0 0 1 1130.4 67.35 A 11.382 11.382 0 0 1 1127.661 63.935 Q 1126.18 61.2 1125.5 57.15 Q 1124.583 51.687 1124.367 41.756 A 302.037 302.037 0 0 1 1124.3 35.2 Q 1124.3 23.381 1125.119 16.378 A 56.65 56.65 0 0 1 1125.55 13.35 Q 1126.333 8.808 1128.078 5.915 A 11.075 11.075 0 0 1 1130.5 3.05 Q 1134.129 0.059 1141.703 0.001 A 39.296 39.296 0 0 1 1142 0 Q 1144.7 0 1147.25 0.4 A 21.994 21.994 0 0 1 1148.654 0.664 Q 1150.018 0.97 1150.892 1.394 A 5.485 5.485 0 0 1 1151.1 1.5 Z M 1438.1 69.6 L 1438.1 0.8 L 1456.6 0.8 Q 1463.3 0.8 1466.7 3.4 A 11.669 11.669 0 0 1 1470.453 8.433 A 15.876 15.876 0 0 1 1471.2 10.85 Q 1472.25 15.479 1472.298 23.159 A 118.863 118.863 0 0 1 1472.3 23.9 A 98.621 98.621 0 0 1 1472.197 28.54 Q 1471.972 33.316 1471.25 36.65 A 14.982 14.982 0 0 1 1469.783 40.686 A 12.235 12.235 0 0 1 1466.8 44.3 A 10.744 10.744 0 0 1 1463.401 46.139 Q 1460.584 47.1 1456.6 47.1 L 1450.2 47.1 L 1450.2 69.6 L 1438.1 69.6 Z M 159.1 69.6 L 159.1 0.8 L 175.2 0.8 A 40.546 40.546 0 0 1 179.469 1.008 Q 184.883 1.584 187.6 3.75 Q 191.3 6.7 192.25 13.25 Q 192.966 18.188 193.142 28.157 A 400.15 400.15 0 0 1 193.2 35.2 Q 193.2 46.735 192.66 53.325 A 62.922 62.922 0 0 1 192.25 57.1 A 21.908 21.908 0 0 1 191.388 60.869 Q 190.144 64.622 187.6 66.65 A 10.757 10.757 0 0 1 184.55 68.299 Q 180.977 69.6 175.2 69.6 L 159.1 69.6 Z M 480.3 69.6 L 480.3 0.8 L 496.4 0.8 A 40.546 40.546 0 0 1 500.669 1.008 Q 506.083 1.584 508.8 3.75 Q 512.5 6.7 513.45 13.25 Q 514.166 18.188 514.342 28.157 A 400.15 400.15 0 0 1 514.4 35.2 Q 514.4 46.735 513.86 53.325 A 62.922 62.922 0 0 1 513.45 57.1 A 21.908 21.908 0 0 1 512.588 60.869 Q 511.344 64.622 508.8 66.65 A 10.757 10.757 0 0 1 505.75 68.299 Q 502.177 69.6 496.4 69.6 L 480.3 69.6 Z M 1213.7 69.6 L 1213.7 0.8 L 1229.8 0.8 A 40.546 40.546 0 0 1 1234.069 1.008 Q 1239.483 1.584 1242.2 3.75 Q 1245.9 6.7 1246.85 13.25 Q 1247.566 18.188 1247.742 28.157 A 400.15 400.15 0 0 1 1247.8 35.2 Q 1247.8 46.735 1247.26 53.325 A 62.922 62.922 0 0 1 1246.85 57.1 A 21.908 21.908 0 0 1 1245.988 60.869 Q 1244.744 64.622 1242.2 66.65 A 10.757 10.757 0 0 1 1239.15 68.299 Q 1235.577 69.6 1229.8 69.6 L 1213.7 69.6 Z M 952 69.6 L 926.1 69.6 L 926.1 0.8 L 938.2 0.8 L 938.2 58.5 L 952 58.5 L 952 69.6 Z M 983.1 69.6 L 957.2 69.6 L 957.2 0.8 L 969.3 0.8 L 969.3 58.5 L 983.1 58.5 L 983.1 69.6 Z M 1390.6 69.6 L 1364.7 69.6 L 1364.7 0.8 L 1376.8 0.8 L 1376.8 58.5 L 1390.6 58.5 L 1390.6 69.6 Z M 205.15 67.4 A 9.101 9.101 0 0 0 206.509 68.318 Q 210.252 70.4 217.5 70.4 A 46.081 46.081 0 0 0 219.258 70.368 Q 226.585 70.088 229.9 67.4 A 10.443 10.443 0 0 0 232.04 65.016 Q 233.913 62.176 234.55 57.65 A 65.701 65.701 0 0 0 234.96 53.786 Q 235.5 47.037 235.5 35.2 A 416.663 416.663 0 0 0 235.442 28.015 Q 235.266 17.839 234.55 12.75 Q 234.056 9.243 232.821 6.749 A 11.051 11.051 0 0 0 229.9 3 Q 227.183 0.797 221.769 0.212 A 39.876 39.876 0 0 0 217.5 0 A 46.011 46.011 0 0 0 215.732 0.033 Q 208.417 0.315 205.15 3 A 10.443 10.443 0 0 0 203.008 5.43 Q 201.182 8.261 200.55 12.75 A 65.701 65.701 0 0 0 200.14 16.615 Q 199.6 23.364 199.6 35.2 A 416.663 416.663 0 0 0 199.658 42.386 Q 199.834 52.561 200.55 57.65 A 25.117 25.117 0 0 0 201.036 60.191 Q 202.227 64.998 205.15 67.4 Z M 1400.25 67.4 A 9.101 9.101 0 0 0 1401.609 68.318 Q 1405.352 70.4 1412.6 70.4 A 46.081 46.081 0 0 0 1414.358 70.368 Q 1421.685 70.088 1425 67.4 A 10.443 10.443 0 0 0 1427.14 65.016 Q 1429.013 62.176 1429.65 57.65 A 65.701 65.701 0 0 0 1430.06 53.786 Q 1430.6 47.037 1430.6 35.2 A 416.663 416.663 0 0 0 1430.542 28.015 Q 1430.366 17.839 1429.65 12.75 Q 1429.156 9.243 1427.921 6.749 A 11.051 11.051 0 0 0 1425 3 Q 1422.283 0.797 1416.869 0.212 A 39.876 39.876 0 0 0 1412.6 0 A 46.011 46.011 0 0 0 1410.832 0.033 Q 1403.517 0.315 1400.25 3 A 10.443 10.443 0 0 0 1398.108 5.43 Q 1396.282 8.261 1395.65 12.75 A 65.701 65.701 0 0 0 1395.24 16.615 Q 1394.7 23.364 1394.7 35.2 A 416.663 416.663 0 0 0 1394.758 42.386 Q 1394.934 52.561 1395.65 57.65 A 25.117 25.117 0 0 0 1396.136 60.191 Q 1397.327 64.998 1400.25 67.4 Z M 106.4 69.6 L 94.4 69.6 L 94.4 0.8 L 106.4 0.8 L 106.4 69.6 Z M 370.4 69.6 L 358.4 69.6 L 358.4 0.8 L 370.4 0.8 L 370.4 69.6 Z M 605.4 69.6 L 593.4 69.6 L 593.4 0.8 L 605.4 0.8 L 605.4 69.6 Z M 70.6 44 L 0 44 L 0 34.2 L 70.6 34.2 L 70.6 44 Z M 221.162 58.68 A 2.611 2.611 0 0 0 221.6 58.3 Q 222.607 57.202 222.985 53.172 A 40.116 40.116 0 0 0 223.05 52.4 A 82.012 82.012 0 0 0 223.199 49.666 Q 223.353 45.843 223.389 39.395 A 751.857 751.857 0 0 0 223.4 35.2 A 704.205 704.205 0 0 0 223.379 29.603 Q 223.315 21.562 223.05 18 Q 222.7 13.3 221.6 12.1 A 2.982 2.982 0 0 0 220.564 11.393 Q 219.623 10.987 218.152 10.916 A 13.46 13.46 0 0 0 217.5 10.9 A 11.697 11.697 0 0 0 216.132 10.974 Q 214.725 11.141 213.927 11.682 A 2.485 2.485 0 0 0 213.45 12.1 A 3.051 3.051 0 0 0 212.973 12.906 Q 212.302 14.469 212 18.05 A 73.694 73.694 0 0 0 211.83 20.8 Q 211.6 25.803 211.6 35.2 A 608.073 608.073 0 0 0 211.623 40.758 Q 211.686 47.58 211.916 51.201 A 56.225 56.225 0 0 0 212 52.35 A 38.82 38.82 0 0 0 212.173 54.007 Q 212.597 57.325 213.45 58.3 Q 214.5 59.5 217.5 59.5 Q 219.98 59.5 221.162 58.68 Z M 1416.262 58.68 A 2.611 2.611 0 0 0 1416.7 58.3 Q 1417.707 57.202 1418.085 53.172 A 40.116 40.116 0 0 0 1418.15 52.4 A 82.012 82.012 0 0 0 1418.299 49.666 Q 1418.453 45.843 1418.489 39.395 A 751.857 751.857 0 0 0 1418.5 35.2 A 704.205 704.205 0 0 0 1418.479 29.603 Q 1418.415 21.562 1418.15 18 Q 1417.8 13.3 1416.7 12.1 A 2.982 2.982 0 0 0 1415.664 11.393 Q 1414.723 10.987 1413.252 10.916 A 13.46 13.46 0 0 0 1412.6 10.9 A 11.697 11.697 0 0 0 1411.232 10.974 Q 1409.825 11.141 1409.027 11.682 A 2.485 2.485 0 0 0 1408.55 12.1 A 3.051 3.051 0 0 0 1408.073 12.906 Q 1407.402 14.469 1407.1 18.05 A 73.694 73.694 0 0 0 1406.93 20.8 Q 1406.7 25.803 1406.7 35.2 A 608.073 608.073 0 0 0 1406.723 40.758 Q 1406.786 47.58 1407.016 51.201 A 56.225 56.225 0 0 0 1407.1 52.35 A 38.82 38.82 0 0 0 1407.273 54.007 Q 1407.697 57.325 1408.55 58.3 Q 1409.6 59.5 1412.6 59.5 Q 1415.08 59.5 1416.262 58.68 Z M 171 58.7 L 175.2 58.7 A 13.075 13.075 0 0 0 176.605 58.631 Q 178.036 58.475 178.865 57.973 A 2.593 2.593 0 0 0 179.4 57.55 A 2.877 2.877 0 0 0 179.906 56.76 Q 180.522 55.421 180.827 52.556 A 38.938 38.938 0 0 0 180.9 51.8 A 69.151 69.151 0 0 0 181.07 49.138 Q 181.3 44.294 181.3 35.2 A 569.538 569.538 0 0 0 181.277 29.822 Q 181.214 23.219 180.984 19.713 A 52.781 52.781 0 0 0 180.9 18.6 A 33.308 33.308 0 0 0 180.692 16.753 Q 180.312 14.114 179.603 13.1 A 2.109 2.109 0 0 0 179.4 12.85 A 2.904 2.904 0 0 0 178.435 12.207 Q 177.521 11.813 176.073 11.725 A 14.446 14.446 0 0 0 175.2 11.7 L 171 11.7 L 171 58.7 Z M 492.2 58.7 L 496.4 58.7 A 13.075 13.075 0 0 0 497.805 58.631 Q 499.236 58.475 500.065 57.973 A 2.593 2.593 0 0 0 500.6 57.55 A 2.877 2.877 0 0 0 501.106 56.76 Q 501.722 55.421 502.027 52.556 A 38.938 38.938 0 0 0 502.1 51.8 A 69.151 69.151 0 0 0 502.27 49.138 Q 502.5 44.294 502.5 35.2 A 569.538 569.538 0 0 0 502.477 29.822 Q 502.414 23.219 502.184 19.713 A 52.781 52.781 0 0 0 502.1 18.6 A 33.308 33.308 0 0 0 501.892 16.753 Q 501.512 14.114 500.803 13.1 A 2.109 2.109 0 0 0 500.6 12.85 A 2.904 2.904 0 0 0 499.635 12.207 Q 498.721 11.813 497.273 11.725 A 14.446 14.446 0 0 0 496.4 11.7 L 492.2 11.7 L 492.2 58.7 Z M 1225.6 58.7 L 1229.8 58.7 A 13.075 13.075 0 0 0 1231.205 58.631 Q 1232.636 58.475 1233.465 57.973 A 2.593 2.593 0 0 0 1234 57.55 A 2.877 2.877 0 0 0 1234.506 56.76 Q 1235.122 55.421 1235.427 52.556 A 38.938 38.938 0 0 0 1235.5 51.8 A 69.151 69.151 0 0 0 1235.67 49.138 Q 1235.9 44.294 1235.9 35.2 A 569.538 569.538 0 0 0 1235.877 29.822 Q 1235.814 23.219 1235.584 19.713 A 52.781 52.781 0 0 0 1235.5 18.6 A 33.308 33.308 0 0 0 1235.292 16.753 Q 1234.912 14.114 1234.203 13.1 A 2.109 2.109 0 0 0 1234 12.85 A 2.904 2.904 0 0 0 1233.035 12.207 Q 1232.121 11.813 1230.673 11.725 A 14.446 14.446 0 0 0 1229.8 11.7 L 1225.6 11.7 L 1225.6 58.7 Z M 400.6 43.9 L 396.2 13.2 L 395.6 13.2 L 391.2 43.9 L 400.6 43.9 Z M 1104.6 43.9 L 1100.2 13.2 L 1099.6 13.2 L 1095.2 43.9 L 1104.6 43.9 Z M 1450.2 36.2 L 1454.6 36.2 A 11.259 11.259 0 0 0 1455.913 36.129 Q 1457.514 35.941 1458.35 35.25 A 3.297 3.297 0 0 0 1459.126 34.287 Q 1459.637 33.363 1459.85 31.9 Q 1460.2 29.5 1460.2 23.9 Q 1460.2 19.678 1460.001 17.275 A 22.552 22.552 0 0 0 1459.85 15.9 A 9.22 9.22 0 0 0 1459.599 14.7 Q 1459.22 13.375 1458.487 12.715 A 2.6 2.6 0 0 0 1458.35 12.6 A 3.42 3.42 0 0 0 1457.388 12.088 Q 1456.458 11.755 1455.068 11.708 A 13.896 13.896 0 0 0 1454.6 11.7 L 1450.2 11.7 L 1450.2 36.2 Z M 750.3 11.7 L 745.5 11.7 L 745.5 34.5 L 750.3 34.5 A 12.658 12.658 0 0 0 751.579 34.44 Q 752.88 34.308 753.681 33.882 A 2.954 2.954 0 0 0 754.05 33.65 A 2.971 2.971 0 0 0 754.852 32.72 Q 755.312 31.919 755.523 30.669 A 10.396 10.396 0 0 0 755.55 30.5 Q 755.814 28.766 755.879 25.441 A 120.355 120.355 0 0 0 755.9 23.1 Q 755.9 19.255 755.701 17.002 A 21.063 21.063 0 0 0 755.55 15.7 Q 755.212 13.477 754.126 12.608 A 2.512 2.512 0 0 0 754.05 12.55 A 3.466 3.466 0 0 0 753.114 12.075 Q 752.027 11.7 750.3 11.7 Z M 1529.6 11.7 L 1524.8 11.7 L 1524.8 34.5 L 1529.6 34.5 A 12.658 12.658 0 0 0 1530.879 34.44 Q 1532.18 34.308 1532.981 33.882 A 2.954 2.954 0 0 0 1533.35 33.65 A 2.971 2.971 0 0 0 1534.152 32.72 Q 1534.612 31.919 1534.823 30.669 A 10.396 10.396 0 0 0 1534.85 30.5 Q 1535.114 28.766 1535.179 25.441 A 120.355 120.355 0 0 0 1535.2 23.1 Q 1535.2 19.255 1535.001 17.002 A 21.063 21.063 0 0 0 1534.85 15.7 Q 1534.512 13.477 1533.426 12.608 A 2.512 2.512 0 0 0 1533.35 12.55 A 3.466 3.466 0 0 0 1532.414 12.075 Q 1531.327 11.7 1529.6 11.7 Z M 1006.2 46.3 L 988.8 46.3 L 988.8 35.9 L 1006.2 35.9 L 1006.2 46.3 Z" vector-effect="non-scaling-stroke"/></g></svg>